<?xml version="1.0" encoding="UTF-8"?>
<svg xmlns="http://www.w3.org/2000/svg" xmlns:xlink="http://www.w3.org/1999/xlink" width="32pt" height="32pt" viewBox="0 0 32 32" version="1.0">
    <g id="surface1">
        <path style=" stroke:none;fill-rule:nonzero;fill:rgb(35.686275%,25.882353%,50.980392%);fill-opacity:1;" d="M 18.925781 16.402344 C 18.339844 16.207031 17.5 16.25 16.40625 16.25 L 12 16.25 L 12 22 L 16.710938 22 C 17.445312 22 17.964844 21.921875 18.261719 21.867188 C 18.785156 21.773438 19.226562 21.589844 19.578125 21.371094 C 19.929688 21.152344 20.21875 20.820312 20.445312 20.402344 C 20.675781 19.980469 20.789062 19.492188 20.789062 18.941406 C 20.789062 18.300781 20.625 17.808594 20.292969 17.335938 C 19.964844 16.859375 19.507812 16.59375 18.925781 16.402344 Z M 18.320312 13.773438 C 18.898438 13.601562 19.335938 13.300781 19.628906 12.898438 C 19.925781 12.5 20.070312 11.992188 20.070312 11.390625 C 20.070312 10.816406 19.933594 10.308594 19.660156 9.875 C 19.386719 9.441406 18.992188 9.273438 18.484375 9.113281 C 17.976562 8.953125 17.101562 9 15.863281 9 L 12 9 L 12 14 L 16.148438 14 C 17.15625 14 17.882812 13.90625 18.320312 13.773438 Z M 31.5 4.65625 C 31.5 2.359375 29.640625 0.5 27.34375 0.5 L 4.40625 0.5 C 2.109375 0.5 0.25 2.359375 0.25 4.65625 L 0.25 27.59375 C 0.25 29.890625 2.109375 31.75 4.40625 31.75 L 27.34375 31.75 C 29.640625 31.75 31.5 29.890625 31.5 27.59375 Z M 22.636719 21.1875 C 22.296875 21.878906 21.875 22.414062 21.375 22.789062 C 20.875 23.164062 20.246094 23.484375 19.488281 23.675781 C 18.734375 23.871094 17.808594 24 16.710938 24 L 9.75 24 L 9.75 6.75 L 16.605469 6.75 C 17.921875 6.75 18.976562 6.902344 19.769531 7.25 C 20.566406 7.597656 21.1875 8.125 21.640625 8.847656 C 22.089844 9.574219 22.316406 10.324219 22.316406 11.117188 C 22.316406 11.851562 22.117188 12.542969 21.714844 13.195312 C 21.316406 13.84375 20.714844 14.367188 19.90625 14.765625 C 20.949219 15.074219 21.75 15.59375 22.308594 16.328125 C 22.871094 17.066406 23.148438 17.933594 23.148438 18.9375 C 23.148438 19.742188 22.980469 20.492188 22.636719 21.1875 Z M 22.636719 21.1875 " />
    </g>
</svg>