<?xml version="1.0" encoding="UTF-8"?>
<svg width="32pt" height="32pt" version="1.0" viewBox="0 0 32 32" xmlns="http://www.w3.org/2000/svg">
    <path
        d="m18.926 16.402c-0.58594-0.19531-1.4258-0.15234-2.5195-0.15234h-4.4062v5.75h4.7109c0.73437 0 1.2539-0.078125 1.5508-0.13281 0.52344-0.09375 0.96484-0.27734 1.3164-0.49609s0.64062-0.55078 0.86719-0.96875c0.23047-0.42188 0.34375-0.91016 0.34375-1.4609 0-0.64062-0.16406-1.1328-0.49609-1.6055-0.32812-0.47656-0.78516-0.74219-1.3672-0.93359zm-0.60547-2.6289c0.57813-0.17188 1.0156-0.47266 1.3086-0.875 0.29688-0.39844 0.44141-0.90625 0.44141-1.5078 0-0.57422-0.13672-1.082-0.41016-1.5156-0.27344-0.43359-0.66797-0.60156-1.1758-0.76172-0.50781-0.16016-1.3828-0.11328-2.6211-0.11328h-3.8633v5h4.1484c1.0078 0 1.7344-0.09375 2.1719-0.22656zm13.18-9.1172c0-2.2969-1.8594-4.1562-4.1562-4.1562h-22.938c-2.2969 0-4.1562 1.8594-4.1562 4.1562v22.938c0 2.2969 1.8594 4.1562 4.1562 4.1562h22.938c2.2969 0 4.1562-1.8594 4.1562-4.1562zm-8.8633 16.531c-0.33984 0.69141-0.76172 1.2266-1.2617 1.6016s-1.1289 0.69531-1.8867 0.88672c-0.75391 0.19531-1.6797 0.32422-2.7773 0.32422h-6.9609v-17.25h6.8555c1.3164 0 2.3711 0.15234 3.1641 0.5 0.79688 0.34766 1.418 0.875 1.8711 1.5977 0.44922 0.72656 0.67578 1.4766 0.67578 2.2695 0 0.73437-0.19922 1.4258-0.60156 2.0781-0.39844 0.64844-1 1.1719-1.8086 1.5703 1.043 0.30859 1.8438 0.82812 2.4023 1.5625 0.5625 0.73828 0.83984 1.6055 0.83984 2.6094 0 0.80469-0.16797 1.5547-0.51172 2.25z"
        fill="#5b4281" />
</svg>