<?xml version="1.0" encoding="UTF-8"?>
<svg width="32pt" height="32pt" version="1.0" viewBox="0 0 32 32" xmlns="http://www.w3.org/2000/svg">
    <g>
        <path d="m4.7031 28.531l-2.5117-28.191h27.617l-2.5156 28.188-11.309 3.1367z" fill="#1471b5" />
        <path d="m16 29.266l9.1406-2.5352 2.1484-24.09h-11.289z" fill="#33a9dc" />
        <path d="m16 12.855h4.5742l0.31641-3.5391h-4.8906v-3.457h8.6719l-0.085937 0.92578-0.84766 9.5312h-7.7383z"
            fill="#fff" />
        <path
            d="m16.02 21.836l-0.015625 0.003906-3.8477-1.0391-0.24609-2.7578h-3.4727l0.48438 5.4297 7.082 1.9648 0.015625-0.003906z"
            fill="#ebebeb" />
        <path d="m20.281 16.168l-0.41406 4.6328-3.8594 1.0391v3.5977l7.0898-1.9648 0.050782-0.58203 0.60156-6.7227z"
            fill="#fff" />
        <path
            d="m16.012 5.8594v3.457h-8.3516l-0.070312-0.77734-0.15625-1.7539-0.082032-0.92578zm-0.011719 7v3.457h-3.8008l-0.070313-0.77734-0.15625-1.7539-0.085937-0.92578z"
            fill="#ebebeb" />
    </g>
</svg>