<?xml version="1.0" encoding="UTF-8"?>
<svg xmlns="http://www.w3.org/2000/svg" xmlns:xlink="http://www.w3.org/1999/xlink" width="32pt" height="32pt" viewBox="0 0 32 32" version="1.0">
    <g id="surface1">
        <path style=" stroke:none;fill-rule:nonzero;fill:rgb(8.235294%,44.705882%,71.372549%);fill-opacity:1;" d="M 4.703125 28.53125 L 2.191406 0.339844 L 29.808594 0.339844 L 27.292969 28.527344 L 15.984375 31.664062 Z M 4.703125 28.53125 " />
        <path style=" stroke:none;fill-rule:nonzero;fill:rgb(20%,66.27451%,86.27451%);fill-opacity:1;" d="M 16 29.265625 L 25.140625 26.730469 L 27.289062 2.640625 L 16 2.640625 Z M 16 29.265625 " />
        <path style=" stroke:none;fill-rule:nonzero;fill:rgb(100%,100%,100%);fill-opacity:1;" d="M 16 12.855469 L 20.574219 12.855469 L 20.890625 9.316406 L 16 9.316406 L 16 5.859375 L 24.671875 5.859375 L 24.585938 6.785156 L 23.738281 16.316406 L 16 16.316406 Z M 16 12.855469 " />
        <path style=" stroke:none;fill-rule:nonzero;fill:rgb(92.156863%,92.156863%,92.156863%);fill-opacity:1;" d="M 16.019531 21.835938 L 16.003906 21.839844 L 12.15625 20.800781 L 11.910156 18.042969 L 8.4375 18.042969 L 8.921875 23.472656 L 16.003906 25.4375 L 16.019531 25.433594 Z M 16.019531 21.835938 " />
        <path style=" stroke:none;fill-rule:nonzero;fill:rgb(100%,100%,100%);fill-opacity:1;" d="M 20.28125 16.167969 L 19.867188 20.800781 L 16.007812 21.839844 L 16.007812 25.4375 L 23.097656 23.472656 L 23.148438 22.890625 L 23.75 16.167969 Z M 20.28125 16.167969 " />
        <path style=" stroke:none;fill-rule:nonzero;fill:rgb(92.156863%,92.156863%,92.156863%);fill-opacity:1;" d="M 16.011719 5.859375 L 16.011719 9.316406 L 7.660156 9.316406 L 7.589844 8.539062 L 7.433594 6.785156 L 7.351562 5.859375 Z M 16 12.859375 L 16 16.316406 L 12.199219 16.316406 L 12.128906 15.539062 L 11.972656 13.785156 L 11.886719 12.859375 Z M 16 12.859375 " />
    </g>
</svg>