<?xml version="1.0" encoding="UTF-8"?>
<svg width="32" height="32" viewBox="0, 0, 400,241.7777777777778" xmlns="http://www.w3.org/2000/svg">
    <g fill-rule="evenodd">
        <path
            d="m0 120.92v120.92h400v-241.84h-400v120.92m227.1-102.41c0.723 0.205 1.559 0.477 1.858 0.604 1.434 0.609 1.889 0.858 2.063 1.13 0.104 0.162 0.594 0.486 1.089 0.719 0.751 0.353 3.578 2.953 7.09 6.52 1.029 1.045 8.108 8.128 8.823 8.828 0.318 0.312 2.185 2.235 4.149 4.273 1.963 2.039 3.97 3.932 4.459 4.207s0.948 0.733 1.019 1.018c0.072 0.284 1.848 2.175 3.948 4.201 2.099 2.025 4.089 3.96 4.422 4.299 0.332 0.339 2.258 2.29 4.279 4.335 4.234 4.285 4.698 4.914 5.543 7.517 1.339 4.124 1.284 3.07 1.294 24.949 5e-3 13.417 0.091 20.375 0.25 20.375 0.133 0 0.242 0.49 0.242 1.089 0 0.598 0.109 1.088 0.242 1.088s0.242 0.163 0.242 0.363c0 0.199 0.163 0.362 0.362 0.362 0.202 0 0.363 0.215 0.363 0.484 0 0.392-0.161 0.484-0.846 0.484h-0.847v9.16l1.089 0.163 1.088 0.163v1.646c0 1.079-0.104 1.693-0.302 1.786-0.242 0.113-0.242 0.169 0 0.282 0.195 0.091 0.302 0.688 0.302 1.693 0 0.873 0.106 1.552 0.242 1.552 0.133 0 0.242 0.326 0.242 0.725 0 0.718-0.014 0.726-1.331 0.726h-1.33v4.446c0 4.98-0.098 4.732 1.875 4.74l0.786 4e-3v2.041c0 1.123 0.108 2.109 0.241 2.191s0.242 1.058 0.242 2.169v2.021l-1.511 0.202-1.512 0.203-0.066 4.277-0.066 4.277 1.155 0.156c2.142 0.292 2 0.071 2 3.121 0 1.501 0.068 3.382 0.152 4.18l0.152 1.451-1.273 0.169-1.273 0.169 0.172 4.159c0.191 4.605 0.159 4.506 1.557 4.694l0.997 0.133v8.353l-0.907 0.214-0.907 0.214-0.067 3.188c-0.094 4.45 0.092 5.414 1.098 5.675l0.783 0.203v8.35l-0.786 0.231c-0.432 0.128-0.775 0.368-0.762 0.534s0.041 2.093 0.061 4.282l0.036 3.979 0.882 0.166 0.883 0.165-0.163 3.775c-0.204 4.741-0.18 4.706-3.301 4.828-1.468 0.057-2.171-2e-3 -2.171-0.182 0-0.183-1.349-0.266-4.353-0.266-2.74 0-4.353 0.09-4.353 0.242 0 0.435-8.934 0.316-9.102-0.121-0.116-0.303-0.827-0.362-4.32-0.362s-4.203 0.059-4.319 0.362c-0.247 0.644-8.863 0.529-9.033-0.121-0.12-0.46-0.33-0.483-4.423-0.483s-4.302 0.023-4.423 0.483c-0.168 0.643-8.878 0.77-8.878 0.13 0-0.688-0.941-0.855-4.816-0.855h-3.881l-0.152 0.604-0.151 0.605h-8.616l-0.159-0.725-0.159-0.726h-8.608l-0.146 0.731-0.146 0.731-4.288-0.066-4.288-0.066-0.163-0.798c-0.212-1.04 0.228-0.935-4.513-1.078l-4.173-0.126-0.151 0.941-0.15 0.94h-4.294c-4.766 0-4.579 0.07-4.589-1.717-4e-3 -0.717-1.493-0.939-6.323-0.942l-2.331-1e-3 -0.166 1.33-0.166 1.33h-4.189c-4.555 0-4.478 0.024-4.486-1.41-7e-3 -1.249-0.076-1.267-4.609-1.195l-4.214 0.066-0.121 1.209-0.121 1.209-4.293 0.066-4.292 0.066v-0.58c0-0.318-0.068-0.92-0.152-1.335l-0.151-0.756h-8.887v2.66l-0.907-0.017c-1.21-0.024-2.251-0.671-2.822-1.755-0.257-0.488-0.612-0.888-0.788-0.888-0.265 0-0.32-17.283-0.32-100.6v-100.6h53.16c47.216 0 53.308 0.042 54.474 0.374m-106.91 33.423c-6e-3 41.155 0.4 73.599 0.904 72.188 0.06-0.166 0.317-0.302 0.572-0.302s0.463-0.109 0.463-0.242 0.117-0.242 0.259-0.242c0.143 0 0.423-0.163 0.622-0.362 0.2-0.2 0.573-0.363 0.829-0.363 0.257 0 0.467-0.109 0.467-0.242s0.163-0.242 0.362-0.242c0.2 0 0.363-0.109 0.363-0.242s0.194-0.242 0.431-0.242c0.236 0 0.587-0.217 0.778-0.483 0.192-0.266 0.543-0.484 0.779-0.484 0.237 0 0.431-0.1 0.431-0.222 0-0.123 0.353-0.301 0.785-0.396 0.433-0.095 0.962-0.375 1.177-0.623 0.216-0.249 0.569-0.452 0.787-0.452 0.217 0 0.395-0.109 0.395-0.242s0.139-0.241 0.309-0.241 0.466-0.218 0.658-0.484 0.542-0.484 0.779-0.484c0.236 0 0.43-0.1 0.43-0.222 0-0.123 0.354-0.301 0.786-0.396 0.432-0.094 0.962-0.375 1.177-0.623 0.215-0.249 0.569-0.452 0.786-0.452s0.395-0.108 0.395-0.241 0.163-0.242 0.363-0.242c0.199 0 0.362-0.109 0.362-0.242s0.218-0.242 0.484-0.242 0.484-0.107 0.484-0.237c0-0.131 0.272-0.306 0.604-0.389 0.333-0.084 0.605-0.249 0.605-0.368 0-0.118 0.218-0.215 0.484-0.215s0.483-0.109 0.483-0.242 0.194-0.242 0.431-0.242c0.236 0 0.587-0.217 0.779-0.484 0.191-0.266 0.487-0.483 0.658-0.483 0.17 0 0.309-0.109 0.309-0.242s0.21-0.242 0.466-0.242c0.257 0 0.63-0.163 0.829-0.363 0.2-0.199 0.48-0.362 0.622-0.362 0.143 0 0.259-0.109 0.259-0.242s0.218-0.242 0.484-0.242 0.484-0.109 0.484-0.242 0.193-0.242 0.43-0.242 0.587-0.217 0.778-0.482c0.191-0.266 0.705-0.55 1.142-0.632 0.436-0.082 0.794-0.245 0.794-0.364 0-0.118 0.193-0.215 0.43-0.215s0.587-0.217 0.779-0.483 0.488-0.484 0.658-0.484 0.309-0.109 0.309-0.242 0.218-0.242 0.484-0.242 0.484-0.108 0.484-0.241 0.221-0.242 0.491-0.242 0.554-0.164 0.63-0.363c0.077-0.2 0.346-0.363 0.597-0.363 0.252 0 0.458-0.109 0.458-0.242s0.194-0.241 0.43-0.241c0.237 0 0.588-0.218 0.779-0.484 0.192-0.266 0.488-0.484 0.658-0.484s0.31-0.099 0.31-0.22c0-0.122 0.43-0.294 0.957-0.383 0.641-0.108 1.006-0.315 1.104-0.626 0.081-0.255 0.358-0.464 0.615-0.464s0.468-0.109 0.468-0.242 0.217-0.241 0.483-0.241 0.484-0.109 0.484-0.242 0.139-0.242 0.309-0.242 0.462-0.211 0.648-0.47c0.186-0.258 0.755-0.54 1.263-0.626s0.924-0.255 0.924-0.376c0-0.122 0.139-0.221 0.309-0.221s0.466-0.218 0.658-0.484 0.542-0.483 0.779-0.483 0.43-0.109 0.43-0.242 0.206-0.242 0.458-0.242 0.521-0.163 0.597-0.363c0.077-0.199 0.36-0.362 0.631-0.362 0.27 0 0.491-0.109 0.491-0.242s0.218-0.242 0.484-0.242 0.483-0.109 0.483-0.242 0.139-0.242 0.31-0.242c0.17 0 0.466-0.217 0.658-0.483 0.191-0.267 0.542-0.484 0.778-0.484 0.237 0 0.431-0.097 0.431-0.215s0.357-0.282 0.794-0.364c0.436-0.082 0.95-0.366 1.141-0.631 0.192-0.266 0.542-0.483 0.778-0.483 0.237 0 0.431-0.109 0.431-0.242s0.139-0.242 0.309-0.242 0.462-0.211 0.648-0.469c0.186-0.259 0.754-0.54 1.263-0.626 0.508-0.086 0.924-0.256 0.924-0.377s0.139-0.221 0.309-0.221 0.466-0.217 0.658-0.483 0.542-0.484 0.779-0.484c0.236 0 0.43-0.109 0.43-0.242s0.163-0.242 0.363-0.242c0.199 0 0.363-0.108 0.363-0.241s0.209-0.242 0.466-0.242 0.63-0.164 0.829-0.363c0.2-0.2 0.534-0.363 0.743-0.363s0.38-0.109 0.38-0.242 0.163-0.241 0.363-0.241c0.199 0 0.363-0.109 0.363-0.242s0.193-0.242 0.43-0.242c0.236 0 0.587-0.218 0.779-0.484 0.191-0.266 0.542-0.483 0.779-0.483 0.236 0 0.43-0.098 0.43-0.216 0-0.119 0.272-0.284 0.604-0.367 0.333-0.084 0.605-0.259 0.605-0.389 0-0.131 0.218-0.238 0.484-0.238s0.483-0.109 0.483-0.242 0.164-0.241 0.363-0.241c0.2 0 0.363-0.109 0.363-0.242s0.178-0.242 0.395-0.242 0.571-0.203 0.786-0.451 0.745-0.529 1.177-0.624 0.786-0.273 0.786-0.395c0-0.123 0.193-0.223 0.43-0.223s0.587-0.218 0.779-0.484 0.488-0.483 0.658-0.483 0.309-0.109 0.309-0.242 0.218-0.242 0.484-0.242 0.484-0.109 0.484-0.242 0.21-0.242 0.466-0.242c0.257 0 0.63-0.163 0.829-0.362 0.2-0.2 0.48-0.363 0.622-0.363 0.143 0 0.259-0.109 0.259-0.242s0.194-0.242 0.431-0.242c0.236 0 0.587-0.217 0.778-0.483 0.192-0.266 0.543-0.484 0.779-0.484 0.237 0 0.431-0.1 0.431-0.223 0-0.122 0.353-0.3 0.785-0.395 0.433-0.095 0.962-0.376 1.177-0.624 0.216-0.248 0.515-0.451 0.666-0.451 0.15 0 0.274-0.109 0.274-0.242s0.217-0.242 0.483-0.242 0.484-0.109 0.484-0.242 0.218-0.241 0.484-0.241 0.483-0.107 0.483-0.238c0-0.13 0.272-0.305 0.605-0.389 0.333-0.083 0.605-0.248 0.605-0.367s0.217-0.216 0.483-0.216 0.484-0.108 0.484-0.241 0.21-0.242 0.467-0.242 0.537-0.218 0.621-0.484c0.085-0.266 0.364-0.484 0.621-0.484s0.467-0.108 0.467-0.241 0.21-0.242 0.467-0.242c0.256 0 0.63-0.163 0.829-0.363 0.2-0.2 0.479-0.363 0.622-0.363 0.142 0 0.259-0.109 0.259-0.242s0.218-0.241 0.484-0.241 0.483-0.109 0.483-0.242 0.211-0.242 0.468-0.242 0.536-0.218 0.621-0.484c0.084-0.266 0.363-0.483 0.621-0.483 0.257 0 0.467-0.1 0.467-0.221s0.431-0.293 0.957-0.382c0.641-0.109 1.006-0.315 1.105-0.626 0.081-0.255 0.357-0.464 0.614-0.464s0.468-0.109 0.468-0.242 0.193-0.242 0.43-0.242 0.587-0.217 0.778-0.483c0.192-0.265 0.705-0.549 1.142-0.631 0.436-0.082 0.794-0.246 0.794-0.364s0.21-0.215 0.467-0.215 0.537-0.218 0.621-0.484 0.364-0.483 0.621-0.483 0.467-0.109 0.467-0.242 0.218-0.242 0.484-0.242 0.484-0.097 0.484-0.216c0-0.118 0.272-0.283 0.604-0.367 0.333-0.083 0.605-0.258 0.605-0.389 0-0.13 0.217-0.237 0.483-0.237s0.484-0.109 0.484-0.242 0.218-0.242 0.484-0.242 0.484-0.109 0.484-0.242 0.123-0.241 0.273-0.241c0.151 0 0.45-0.204 0.666-0.452 0.215-0.248 0.724-0.524 1.13-0.613s0.893-0.376 1.081-0.637 0.536-0.475 0.772-0.475c0.361 0 0.431-0.216 0.431-1.33 0-0.732-0.109-1.33-0.242-1.33s-0.242-0.256-0.242-0.569c0-0.76 0.477-2.091 0.749-2.091 0.12 0 0.22-0.789 0.222-1.754 2e-3 -0.964 0.12-3.331 0.263-5.26 0.645-8.736-0.031-19.688-1.286-20.826-0.238-0.215-0.432-0.487-0.433-0.605-1e-3 -0.117-0.491-0.73-1.088-1.361-0.677-0.714-1.087-1.37-1.087-1.737 0-0.377-0.175-0.645-0.484-0.743-0.266-0.084-0.484-0.29-0.484-0.458 0-0.167-0.272-0.56-0.604-0.872-0.333-0.312-0.605-0.712-0.605-0.888 0-0.177-0.109-0.321-0.242-0.321s-0.242-0.174-0.242-0.386-0.225-0.702-0.5-1.088l-0.5-0.703h-103.47l-4e-3 33.072m117.3-24.716c-4e-3 0.273 0.091 0.599 0.213 0.725 0.122 0.127 0.27 0.502 0.33 0.835 0.097 0.541 0.111 0.528 0.133-0.121 0.013-0.399-0.131-0.998-0.321-1.33-0.315-0.551-0.347-0.561-0.355-0.109m0.893 2.609c-0.097 0.245-0.109 0.555-0.026 0.69 0.148 0.24 0.376 1.578 0.835 4.911 0.388 2.818 0.668 6.705 0.939 13.042 0.142 3.315 0.288 6.058 0.324 6.094 0.127 0.128 15.407 0.21 15.407 0.083 0-0.07-0.234-0.288-0.519-0.483-0.285-0.196-0.747-0.603-1.027-0.905-0.417-0.449-1.328-1.375-2.859-2.906-0.095-0.095-0.693-0.694-1.33-1.33-0.637-0.637-1.235-1.236-1.33-1.33-0.095-0.095-0.679-0.677-1.298-1.293-1.246-1.24-1.708-1.701-2.909-2.902-0.448-0.448-1.061-1.061-1.362-1.361-0.301-0.301-0.884-0.9-1.297-1.331-0.413-0.43-0.985-0.943-1.27-1.139-0.403-0.276-0.519-0.602-0.519-1.463 0-0.609-0.1-1.21-0.221-1.337-0.122-0.126-0.275-0.883-0.341-1.681s-0.243-1.995-0.395-2.66c-0.151-0.665-0.354-1.644-0.45-2.176-0.134-0.743-0.216-0.864-0.352-0.523m37.591 84.924c-0.056 8.884-0.126 9.553-0.991 9.553-0.161 0-0.456 0.163-0.655 0.362-0.2 0.2-0.573 0.363-0.83 0.363-0.256 0-0.466 0.109-0.466 0.242s-0.163 0.242-0.363 0.242c-0.199 0-0.362 0.109-0.362 0.242s-0.194 0.242-0.431 0.242c-0.236 0-0.587 0.217-0.779 0.483-0.191 0.266-0.542 0.484-0.779 0.484-0.236 0-0.43 0.1-0.43 0.223 0 0.122-0.353 0.3-0.786 0.395-0.432 0.095-0.961 0.375-1.177 0.624-0.215 0.248-0.514 0.451-0.665 0.451s-0.274 0.109-0.274 0.242-0.218 0.241-0.484 0.241-0.483 0.109-0.483 0.242-0.194 0.242-0.431 0.242c-0.236 0-0.584 0.214-0.772 0.475s-0.675 0.548-1.081 0.637-0.915 0.365-1.13 0.613c-0.215 0.249-0.515 0.452-0.665 0.452-0.151 0-0.274 0.109-0.274 0.242s-0.218 0.241-0.484 0.241-0.484 0.109-0.484 0.242-0.217 0.242-0.483 0.242-0.484 0.107-0.484 0.237c0 0.131-0.272 0.306-0.605 0.389-0.332 0.084-0.604 0.249-0.604 0.368 0 0.118-0.218 0.215-0.484 0.215s-0.484 0.109-0.484 0.242-0.193 0.242-0.43 0.242-0.587 0.218-0.779 0.484c-0.191 0.266-0.488 0.483-0.658 0.483s-0.309 0.109-0.309 0.242-0.21 0.242-0.467 0.242c-0.256 0-0.629 0.163-0.829 0.363-0.199 0.199-0.479 0.362-0.622 0.362-0.142 0-0.259 0.109-0.259 0.242s-0.217 0.242-0.483 0.242-0.484 0.109-0.484 0.242-0.194 0.242-0.43 0.242c-0.237 0-0.587 0.217-0.778 0.482-0.192 0.266-0.705 0.55-1.142 0.632s-0.794 0.246-0.794 0.364-0.21 0.215-0.467 0.215-0.537 0.217-0.621 0.483c-0.085 0.266-0.364 0.484-0.621 0.484s-0.467 0.109-0.467 0.242-0.218 0.242-0.484 0.242-0.484 0.097-0.484 0.215c0 0.119-0.272 0.284-0.604 0.368-0.333 0.083-0.605 0.258-0.605 0.389 0 0.13-0.218 0.237-0.484 0.237s-0.483 0.109-0.483 0.242-0.211 0.242-0.468 0.242-0.536 0.217-0.621 0.483c-0.084 0.266-0.363 0.484-0.62 0.484-0.258 0-0.468 0.109-0.468 0.242s-0.218 0.242-0.484 0.242-0.483 0.108-0.483 0.241-0.221 0.242-0.491 0.242c-0.271 0-0.554 0.164-0.631 0.363-0.077 0.2-0.345 0.363-0.597 0.363s-0.458 0.109-0.458 0.242-0.217 0.241-0.483 0.241-0.484 0.109-0.484 0.242-0.139 0.242-0.309 0.242c-0.171 0-0.462 0.212-0.648 0.47-0.187 0.258-0.755 0.54-1.263 0.626s-0.924 0.255-0.924 0.376c0 0.122-0.139 0.221-0.309 0.221-0.171 0-0.467 0.218-0.658 0.484-0.192 0.266-0.543 0.483-0.779 0.483-0.237 0-0.431 0.109-0.431 0.242s-0.116 0.242-0.259 0.242c-0.142 0-0.422 0.163-0.622 0.363-0.199 0.199-0.572 0.363-0.829 0.363-0.256 0-0.466 0.108-0.466 0.241s-0.218 0.242-0.484 0.242-0.483 0.109-0.483 0.242-0.14 0.242-0.31 0.242-0.466 0.218-0.658 0.484-0.542 0.483-0.779 0.483c-0.236 0-0.43 0.1-0.43 0.223 0 0.122-0.354 0.3-0.786 0.395s-0.962 0.376-1.177 0.624-0.569 0.451-0.786 0.451-0.395 0.109-0.395 0.242-0.163 0.242-0.363 0.242c-0.199 0-0.362 0.109-0.362 0.242s-0.171 0.241-0.38 0.241-0.544 0.164-0.743 0.363c-0.2 0.2-0.573 0.363-0.829 0.363-0.257 0-0.467 0.109-0.467 0.242s-0.139 0.242-0.309 0.242-0.466 0.217-0.658 0.483-0.542 0.484-0.779 0.484-0.43 0.109-0.43 0.242-0.164 0.242-0.363 0.242c-0.2 0-0.363 0.109-0.363 0.242s-0.21 0.241-0.466 0.241c-0.257 0-0.63 0.164-0.829 0.363-0.2 0.2-0.534 0.363-0.743 0.363s-0.38 0.109-0.38 0.242-0.163 0.242-0.363 0.242c-0.199 0-0.363 0.108-0.363 0.241s-0.193 0.242-0.43 0.242-0.587 0.218-0.779 0.484-0.488 0.484-0.658 0.484-0.309 0.108-0.309 0.241-0.21 0.242-0.467 0.242c-0.256 0-0.629 0.163-0.829 0.363-0.199 0.2-0.534 0.363-0.743 0.363s-0.38 0.109-0.38 0.242-0.163 0.241-0.362 0.241c-0.2 0-0.363 0.109-0.363 0.242s-0.178 0.242-0.395 0.242-0.571 0.203-0.786 0.451c-0.215 0.249-0.745 0.529-1.177 0.624s-0.786 0.273-0.786 0.395c0 0.123-0.194 0.223-0.43 0.223-0.237 0-0.588 0.218-0.779 0.484-0.192 0.266-0.488 0.483-0.658 0.483s-0.31 0.109-0.31 0.242-0.217 0.242-0.483 0.242-0.484 0.109-0.484 0.242-0.21 0.242-0.466 0.242c-0.257 0-0.63 0.163-0.83 0.362-0.199 0.2-0.479 0.363-0.621 0.363-0.143 0-0.259 0.109-0.259 0.242s-0.194 0.242-0.431 0.242c-0.236 0-0.587 0.218-0.779 0.484-0.191 0.266-0.488 0.483-0.658 0.483s-0.309 0.099-0.309 0.221c0 0.121-0.416 0.291-0.924 0.376-0.508 0.086-1.076 0.368-1.263 0.626-0.186 0.259-0.477 0.47-0.648 0.47-0.17 0-0.309 0.109-0.309 0.242s-0.218 0.242-0.484 0.242-0.483 0.109-0.483 0.242-0.206 0.241-0.458 0.241-0.521 0.164-0.597 0.363c-0.077 0.2-0.36 0.363-0.631 0.363-0.27 0-0.491 0.109-0.491 0.242s-0.217 0.242-0.483 0.242c-0.267 0-0.484 0.108-0.484 0.241s-0.21 0.242-0.468 0.242c-0.257 0-0.536 0.218-0.62 0.484-0.085 0.266-0.364 0.484-0.621 0.484s-0.468 0.108-0.468 0.241c0 0.134-0.217 0.242-0.483 0.242s-0.484 0.107-0.484 0.238c0 0.13-0.272 0.305-0.605 0.389-0.332 0.083-0.604 0.248-0.604 0.367 0 0.118-0.218 0.216-0.484 0.216s-0.484 0.108-0.484 0.241-0.21 0.242-0.467 0.242-0.536 0.218-0.621 0.484c-0.084 0.266-0.364 0.484-0.621 0.484s-0.467 0.096-0.467 0.214c0 0.119-0.357 0.282-0.794 0.364s-0.95 0.366-1.142 0.632c-0.191 0.265-0.541 0.482-0.778 0.482-0.236 0-0.43 0.109-0.43 0.242s-0.218 0.242-0.484 0.242-0.483 0.109-0.483 0.242-0.117 0.242-0.26 0.242c-0.142 0-0.422 0.163-0.621 0.363-0.2 0.199-0.573 0.362-0.83 0.362-0.256 0-0.466 0.109-0.466 0.242s-0.139 0.242-0.309 0.242-0.467 0.218-0.658 0.484c-0.192 0.266-0.543 0.483-0.779 0.483-0.237 0-0.43 0.109-0.43 0.242s-0.218 0.242-0.484 0.242-0.484 0.097-0.484 0.216c0 0.118-0.272 0.284-0.604 0.367-0.333 0.083-0.605 0.258-0.605 0.389 0 0.13-0.218 0.237-0.484 0.237s-0.483 0.109-0.483 0.242-0.218 0.242-0.484 0.242-0.484 0.109-0.484 0.242-0.123 0.242-0.274 0.242c-0.15 0-0.45 0.203-0.665 0.451s-0.724 0.524-1.13 0.613c-0.406 0.09-0.893 0.376-1.081 0.637s-0.536 0.475-0.773 0.475c-0.236 0-0.43 0.109-0.43 0.242s-0.217 0.242-0.483 0.242-0.484 0.109-0.484 0.242-0.117 0.241-0.259 0.241c-0.143 0-0.423 0.164-0.622 0.363-0.2 0.2-0.573 0.363-0.829 0.363-0.257 0-0.467 0.109-0.467 0.242s-0.163 0.242-0.362 0.242c-0.2 0-0.363 0.108-0.363 0.241s-0.194 0.242-0.43 0.242c-0.237 0-0.588 0.218-0.779 0.484-0.192 0.266-0.543 0.484-0.779 0.484-0.237 0-0.431 0.108-0.431 0.241s-0.163 0.242-0.362 0.242c-0.2 0-0.363 0.109-0.363 0.242s-0.21 0.242-0.467 0.242c-0.256 0-0.629 0.163-0.829 0.363-0.199 0.199-0.533 0.363-0.742 0.363s-0.38 0.108-0.38 0.241-0.14 0.242-0.31 0.242-0.466 0.218-0.658 0.484-0.542 0.484-0.779 0.484c-0.236 0-0.43 0.1-0.43 0.222 0 0.123-0.354 0.3-0.786 0.395s-0.962 0.376-1.177 0.624-0.569 0.451-0.786 0.451-0.395 0.109-0.395 0.242-0.163 0.242-0.363 0.242c-0.199 0-0.362 0.109-0.362 0.242s-0.218 0.242-0.484 0.242-0.484 0.107-0.484 0.237-0.272 0.306-0.604 0.389c-0.333 0.083-0.605 0.249-0.605 0.367 0 0.119-0.218 0.216-0.484 0.216s-0.483 0.109-0.483 0.242-0.194 0.242-0.431 0.242c-0.236 0-0.587 0.217-0.779 0.483-0.191 0.266-0.487 0.484-0.657 0.484-0.171 0-0.31 0.109-0.31 0.242s-0.21 0.242-0.466 0.242c-0.257 0-0.63 0.163-0.829 0.362-0.2 0.2-0.48 0.363-0.622 0.363-0.143 0-0.259 0.109-0.259 0.242s-0.218 0.242-0.484 0.242-0.484 0.109-0.484 0.242-0.193 0.242-0.43 0.242-0.587 0.217-0.778 0.482c-0.191 0.266-0.705 0.55-1.142 0.632-0.436 0.082-0.794 0.245-0.794 0.363 0 0.119-0.193 0.215-0.43 0.215s-0.587 0.218-0.779 0.484-0.488 0.484-0.658 0.484-0.309 0.109-0.309 0.242-0.194 0.241-0.43 0.241c-0.237 0-0.587 0.218-0.779 0.483-0.191 0.265-0.705 0.55-1.141 0.632-0.437 0.081-0.794 0.245-0.794 0.363 0 0.119-0.194 0.215-0.43 0.215-0.237 0-0.588 0.218-0.779 0.484-0.192 0.266-0.488 0.484-0.658 0.484s-0.31 0.108-0.31 0.241-0.217 0.242-0.483 0.242-0.484 0.109-0.484 0.242-0.221 0.242-0.491 0.242-0.554 0.163-0.631 0.363c-0.076 0.199-0.345 0.362-0.597 0.362s-0.458 0.109-0.458 0.242-0.217 0.242-0.483 0.242-0.484 0.109-0.484 0.242-0.123 0.242-0.274 0.242c-0.15 0-0.45 0.203-0.665 0.451s-0.772 0.535-1.237 0.637c-0.466 0.102-1.023 0.389-1.238 0.637s-0.514 0.451-0.665 0.451-0.274 0.109-0.274 0.242-0.218 0.242-0.484 0.242-0.483 0.109-0.483 0.242-0.206 0.242-0.458 0.242-0.521 0.163-0.597 0.362c-0.077 0.2-0.36 0.363-0.631 0.363-0.462 0-0.491 0.149-0.491 2.518v2.518l40.689 0.142c22.379 0.078 57.35 0.206 77.712 0.285l37.022 0.142 0.16-7.458c0.191-8.892 0.155-52.984-0.068-83.395-0.087-11.971-0.184-17.847-0.215-13.059m-18.42 107.98c0 0.465-0.161 0.483-4.232 0.483s-4.232-0.018-4.232-0.483 0.161-0.484 4.232-0.484 4.232 0.019 4.232 0.484m17.896 0.152c0 0.601-0.05 0.628-0.906 0.487-0.499-0.083-2.458-0.151-4.354-0.153-3.284-2e-3 -3.446-0.025-3.446-0.486 0-0.466 0.162-0.484 4.353-0.484h4.353v0.636m-91.124-0.214c-1.237 0.044-3.196 0.044-4.353 0s-0.145-0.08 2.249-0.08 3.341 0.036 2.104 0.08m20.024 0.062c0 0.152-1.572 0.242-4.232 0.242s-4.232-0.09-4.232-0.242 1.572-0.242 4.232-0.242 4.232 0.09 4.232 0.242m17.654 0c0 0.152-1.572 0.242-4.232 0.242s-4.232-0.09-4.232-0.242 1.572-0.242 4.232-0.242 4.232 0.09 4.232 0.242m17.896 0.158c0 0.361-0.395 0.386-4.142 0.259-5.852-0.198-6.034-0.659-0.259-0.659 3.931 0 4.401 0.043 4.401 0.4"
            fill="#f5f5f6" />
        <path
            d="m162.82 18.561c11.273 0.035 29.719 0.035 40.992 0s2.05-0.063-20.496-0.063c-22.545 0-31.768 0.028-20.496 0.063m-43.072 88.331c-0.047 41.566-0.107 83.818-0.133 93.894l-0.048 18.319 54.668 0.014c30.067 8e-3 65.495 0.035 78.728 0.061l24.061 0.046-0.064-73.64c-0.063-72.26-0.1-75.854-0.802-77.203-0.12-0.231-0.218-0.586-0.218-0.789s-0.098-0.559-0.217-0.79-0.413-0.909-0.653-1.508c-1.502-3.746-4.708-6.421-9.045-7.546-0.466-0.121-1.228-0.327-1.693-0.457-2.593-0.726-9.919-1.55-16.929-1.902-3.126-0.157-6.064-0.305-6.529-0.329l-0.847-0.044-0.132-3.023c-0.147-3.353-0.225-3.133-0.301 0.847l-0.05 2.66 2.418 0.05c3.149 0.066 6.284 0.494 7.497 1.024 1.445 0.631 4.014 1.897 4.837 2.384 2.139 1.266 7.638 2.852 12.274 3.541 2.657 0.394 3.489 0.659 4.61 1.465 1.159 0.834 3.551 3.283 3.551 3.635 0 0.073 0.23 0.445 0.512 0.826 1.062 1.436 1.036-0.357 1.111 76.625l0.071 73.831-78.175-0.095-78.174-0.095-0.122-93.688-0.121-93.687-0.085 75.574"
            fill="#a1a9ad" />
        <path
            d="m225.51 18.38c0.082 0.133 0.497 0.231 0.921 0.217 0.737-0.023 0.745-0.032 0.167-0.217-0.868-0.278-1.26-0.278-1.088 0m-105.45 0.544c-0.063 0.166-0.087 9.77-0.052 21.342l0.064 21.04 0.059-21.221 0.059-21.22 36.941-0.062 36.941-0.062-36.948-0.06c-29.38-0.047-36.972 2e-3 -37.064 0.243m107.51-0.093c0.588 0.35 1.607 0.605 1.33 0.333-0.133-0.131-0.569-0.308-0.968-0.394-0.473-0.101-0.599-0.08-0.362 0.061m-3.422 0.707c0.285 0.402 0.519 0.904 0.519 1.116s0.109 0.386 0.242 0.386 0.242 0.144 0.242 0.321c0 0.176 0.272 0.576 0.605 0.888 0.332 0.312 0.604 0.705 0.604 0.872 0 0.168 0.218 0.374 0.484 0.458 0.309 0.098 0.484 0.366 0.484 0.743 0 0.367 0.41 1.023 1.087 1.737 0.597 0.631 1.087 1.244 1.088 1.361 1e-3 0.118 0.195 0.39 0.433 0.605 1.255 1.138 1.931 12.09 1.286 20.826-0.143 1.929-0.261 4.296-0.263 5.26-2e-3 0.965-0.102 1.754-0.222 1.754-0.272 0-0.749 1.331-0.749 2.091 0 0.313 0.109 0.569 0.242 0.569s0.242 0.598 0.242 1.33c0 1.114-0.07 1.33-0.431 1.33-0.236 0-0.584 0.214-0.772 0.475s-0.675 0.548-1.081 0.637-0.915 0.365-1.13 0.613c-0.216 0.248-0.515 0.452-0.666 0.452-0.15 0-0.273 0.108-0.273 0.241s-0.218 0.242-0.484 0.242-0.484 0.109-0.484 0.242-0.218 0.242-0.484 0.242-0.483 0.107-0.483 0.237c0 0.131-0.272 0.306-0.605 0.389-0.332 0.084-0.604 0.249-0.604 0.367 0 0.119-0.218 0.216-0.484 0.216s-0.484 0.109-0.484 0.242-0.21 0.242-0.467 0.242-0.537 0.217-0.621 0.483-0.364 0.484-0.621 0.484-0.467 0.097-0.467 0.215-0.358 0.282-0.794 0.364c-0.437 0.082-0.95 0.366-1.142 0.631-0.191 0.266-0.541 0.483-0.778 0.483s-0.43 0.109-0.43 0.242-0.211 0.242-0.468 0.242-0.533 0.209-0.614 0.464c-0.099 0.311-0.464 0.517-1.105 0.626-0.526 0.089-0.957 0.261-0.957 0.382s-0.21 0.221-0.467 0.221c-0.258 0-0.537 0.217-0.621 0.483-0.085 0.266-0.364 0.484-0.621 0.484s-0.468 0.109-0.468 0.242-0.217 0.242-0.483 0.242-0.484 0.108-0.484 0.241-0.117 0.242-0.259 0.242c-0.143 0-0.422 0.163-0.622 0.363-0.199 0.2-0.573 0.363-0.829 0.363-0.257 0-0.467 0.109-0.467 0.242s-0.21 0.241-0.467 0.241-0.536 0.218-0.621 0.484c-0.084 0.266-0.364 0.484-0.621 0.484s-0.467 0.109-0.467 0.242-0.218 0.241-0.484 0.241-0.483 0.097-0.483 0.216-0.272 0.284-0.605 0.367c-0.333 0.084-0.605 0.259-0.605 0.389 0 0.131-0.217 0.238-0.483 0.238s-0.484 0.108-0.484 0.241-0.218 0.242-0.484 0.242-0.483 0.109-0.483 0.242-0.124 0.242-0.274 0.242c-0.151 0-0.45 0.203-0.666 0.451-0.215 0.248-0.744 0.529-1.177 0.624-0.432 0.095-0.785 0.273-0.785 0.395 0 0.123-0.194 0.223-0.431 0.223-0.236 0-0.587 0.218-0.779 0.484-0.191 0.266-0.542 0.483-0.778 0.483-0.237 0-0.431 0.109-0.431 0.242s-0.116 0.242-0.259 0.242c-0.142 0-0.422 0.163-0.622 0.363-0.199 0.199-0.572 0.362-0.829 0.362-0.256 0-0.466 0.109-0.466 0.242s-0.218 0.242-0.484 0.242-0.484 0.109-0.484 0.242-0.139 0.242-0.309 0.242-0.466 0.217-0.658 0.483-0.542 0.484-0.779 0.484-0.43 0.1-0.43 0.223c0 0.122-0.354 0.3-0.786 0.395s-0.962 0.376-1.177 0.624-0.569 0.451-0.786 0.451-0.395 0.109-0.395 0.242-0.163 0.242-0.363 0.242c-0.199 0-0.363 0.108-0.363 0.241s-0.217 0.242-0.483 0.242-0.484 0.107-0.484 0.238c0 0.13-0.272 0.305-0.605 0.389-0.332 0.083-0.604 0.248-0.604 0.367 0 0.118-0.194 0.216-0.43 0.216-0.237 0-0.588 0.217-0.779 0.483-0.192 0.266-0.543 0.484-0.779 0.484-0.237 0-0.43 0.109-0.43 0.242s-0.164 0.242-0.363 0.242c-0.2 0-0.363 0.108-0.363 0.241s-0.171 0.242-0.38 0.242-0.543 0.163-0.743 0.363c-0.199 0.199-0.572 0.363-0.829 0.363s-0.466 0.109-0.466 0.242-0.164 0.241-0.363 0.241c-0.2 0-0.363 0.109-0.363 0.242s-0.194 0.242-0.43 0.242c-0.237 0-0.587 0.218-0.779 0.484s-0.488 0.483-0.658 0.483-0.309 0.1-0.309 0.221-0.416 0.291-0.924 0.377c-0.509 0.086-1.077 0.367-1.263 0.626-0.186 0.258-0.478 0.469-0.648 0.469s-0.309 0.109-0.309 0.242-0.194 0.242-0.431 0.242c-0.236 0-0.586 0.217-0.778 0.483-0.191 0.265-0.705 0.549-1.141 0.631-0.437 0.082-0.794 0.246-0.794 0.364s-0.194 0.215-0.431 0.215c-0.236 0-0.587 0.217-0.778 0.484-0.192 0.266-0.488 0.483-0.658 0.483-0.171 0-0.31 0.109-0.31 0.242s-0.217 0.242-0.483 0.242-0.484 0.109-0.484 0.242-0.221 0.242-0.491 0.242c-0.271 0-0.554 0.163-0.631 0.362-0.076 0.2-0.345 0.363-0.597 0.363s-0.458 0.109-0.458 0.242-0.193 0.242-0.43 0.242-0.587 0.217-0.779 0.483-0.488 0.484-0.658 0.484-0.309 0.099-0.309 0.221c0 0.121-0.416 0.29-0.924 0.376s-1.077 0.368-1.263 0.626c-0.186 0.259-0.478 0.47-0.648 0.47s-0.309 0.109-0.309 0.242-0.218 0.242-0.484 0.242-0.483 0.108-0.483 0.241-0.211 0.242-0.468 0.242-0.534 0.209-0.615 0.464c-0.098 0.311-0.463 0.518-1.104 0.626-0.527 0.089-0.957 0.261-0.957 0.383 0 0.121-0.14 0.22-0.31 0.22s-0.466 0.218-0.658 0.484c-0.191 0.266-0.542 0.484-0.779 0.484-0.236 0-0.43 0.108-0.43 0.241s-0.206 0.242-0.458 0.242c-0.251 0-0.52 0.163-0.597 0.363-0.076 0.199-0.36 0.363-0.63 0.363s-0.491 0.109-0.491 0.242-0.218 0.241-0.484 0.241-0.484 0.109-0.484 0.242-0.139 0.242-0.309 0.242-0.466 0.218-0.658 0.484-0.542 0.483-0.779 0.483-0.43 0.097-0.43 0.215c0 0.119-0.358 0.282-0.794 0.364-0.437 0.082-0.951 0.366-1.142 0.632-0.191 0.265-0.541 0.482-0.778 0.482s-0.43 0.109-0.43 0.242-0.218 0.242-0.484 0.242-0.484 0.109-0.484 0.242-0.116 0.242-0.259 0.242c-0.142 0-0.422 0.163-0.622 0.362-0.199 0.2-0.572 0.363-0.829 0.363-0.256 0-0.466 0.109-0.466 0.242s-0.139 0.242-0.309 0.242c-0.171 0-0.467 0.217-0.658 0.483-0.192 0.267-0.543 0.484-0.779 0.484-0.237 0-0.431 0.109-0.431 0.242s-0.217 0.242-0.483 0.242-0.484 0.097-0.484 0.215c0 0.119-0.272 0.284-0.605 0.368-0.332 0.083-0.604 0.258-0.604 0.389 0 0.13-0.218 0.237-0.484 0.237s-0.484 0.109-0.484 0.242-0.163 0.242-0.362 0.242c-0.2 0-0.363 0.109-0.363 0.242s-0.178 0.241-0.395 0.241-0.571 0.203-0.786 0.452c-0.215 0.248-0.745 0.529-1.177 0.623-0.432 0.095-0.786 0.273-0.786 0.396 0 0.122-0.194 0.222-0.43 0.222-0.237 0-0.587 0.218-0.779 0.484s-0.488 0.484-0.658 0.484-0.309 0.108-0.309 0.241-0.178 0.242-0.395 0.242c-0.218 0-0.571 0.203-0.787 0.452-0.215 0.248-0.744 0.528-1.177 0.623-0.432 0.095-0.785 0.273-0.785 0.396 0 0.122-0.194 0.222-0.431 0.222-0.236 0-0.587 0.218-0.779 0.484-0.191 0.266-0.542 0.483-0.778 0.483-0.237 0-0.431 0.109-0.431 0.242s-0.163 0.242-0.363 0.242c-0.199 0-0.362 0.109-0.362 0.242s-0.21 0.242-0.467 0.242c-0.256 0-0.629 0.163-0.829 0.363-0.199 0.199-0.479 0.362-0.622 0.362-0.142 0-0.259 0.109-0.259 0.242s-0.208 0.242-0.463 0.242-0.512 0.136-0.572 0.302c-0.307 0.862-0.386-1.157-0.592-15.175-0.181-12.336-0.232-3.351-0.266 47.207l-0.042 62.442 19.408-0.142c10.674-0.078 19.453-0.181 19.508-0.229 0.056-0.049-8.569-0.088-19.165-0.088h-19.267v-2.539c0-2.392 0.029-2.54 0.491-2.54 0.271 0 0.554-0.163 0.631-0.363 0.076-0.199 0.345-0.362 0.597-0.362s0.458-0.109 0.458-0.242 0.217-0.242 0.483-0.242 0.484-0.109 0.484-0.242 0.123-0.242 0.274-0.242 0.45-0.203 0.665-0.451 0.772-0.535 1.238-0.637c0.465-0.102 1.022-0.389 1.237-0.637s0.515-0.451 0.665-0.451c0.151 0 0.274-0.109 0.274-0.242s0.218-0.242 0.484-0.242 0.483-0.109 0.483-0.242 0.206-0.242 0.458-0.242 0.521-0.163 0.597-0.362c0.077-0.2 0.361-0.363 0.631-0.363s0.491-0.109 0.491-0.242 0.218-0.242 0.484-0.242 0.483-0.109 0.483-0.242 0.14-0.241 0.31-0.241 0.466-0.218 0.658-0.484c0.191-0.266 0.542-0.484 0.779-0.484 0.236 0 0.43-0.096 0.43-0.215 0-0.118 0.357-0.282 0.794-0.363 0.436-0.082 0.95-0.367 1.141-0.632 0.192-0.265 0.542-0.483 0.779-0.483 0.236 0 0.43-0.108 0.43-0.241s0.139-0.242 0.309-0.242 0.466-0.218 0.658-0.484 0.542-0.484 0.779-0.484 0.43-0.096 0.43-0.215c0-0.118 0.358-0.281 0.794-0.363 0.437-0.082 0.951-0.366 1.142-0.632 0.191-0.265 0.541-0.482 0.778-0.482s0.43-0.109 0.43-0.242 0.218-0.242 0.484-0.242 0.484-0.109 0.484-0.242 0.116-0.242 0.259-0.242c0.142 0 0.422-0.163 0.622-0.363 0.199-0.199 0.572-0.362 0.829-0.362 0.256 0 0.466-0.109 0.466-0.242s0.139-0.242 0.31-0.242c0.17 0 0.466-0.218 0.657-0.484 0.192-0.266 0.543-0.483 0.779-0.483 0.237 0 0.431-0.109 0.431-0.242s0.217-0.242 0.483-0.242 0.484-0.097 0.484-0.216c0-0.118 0.272-0.284 0.605-0.367 0.332-0.083 0.604-0.259 0.604-0.389s0.218-0.237 0.484-0.237 0.484-0.109 0.484-0.242 0.163-0.242 0.362-0.242c0.2 0 0.363-0.109 0.363-0.242s0.178-0.242 0.395-0.242 0.571-0.203 0.786-0.451 0.745-0.529 1.177-0.624 0.786-0.272 0.786-0.395c0-0.122 0.194-0.222 0.43-0.222 0.237 0 0.587-0.218 0.779-0.484s0.488-0.484 0.658-0.484 0.31-0.109 0.31-0.242 0.171-0.241 0.38-0.241 0.543-0.164 0.742-0.363c0.2-0.2 0.573-0.363 0.829-0.363 0.257 0 0.467-0.109 0.467-0.242s0.163-0.242 0.363-0.242c0.199 0 0.362-0.109 0.362-0.242s0.194-0.241 0.431-0.241c0.236 0 0.587-0.218 0.779-0.484 0.191-0.266 0.542-0.484 0.779-0.484 0.236 0 0.43-0.109 0.43-0.242s0.163-0.241 0.363-0.241c0.199 0 0.362-0.109 0.362-0.242s0.21-0.242 0.467-0.242c0.256 0 0.629-0.163 0.829-0.363 0.199-0.199 0.479-0.363 0.622-0.363 0.142 0 0.259-0.108 0.259-0.241s0.218-0.242 0.484-0.242 0.483-0.109 0.483-0.242 0.194-0.242 0.43-0.242c0.237 0 0.585-0.214 0.773-0.475s0.675-0.547 1.081-0.637c0.406-0.089 0.915-0.365 1.13-0.613s0.515-0.451 0.665-0.451c0.151 0 0.274-0.109 0.274-0.242s0.218-0.242 0.484-0.242 0.484-0.109 0.484-0.242 0.217-0.242 0.483-0.242 0.484-0.107 0.484-0.237c0-0.131 0.272-0.306 0.605-0.389 0.332-0.083 0.604-0.249 0.604-0.367 0-0.119 0.218-0.216 0.484-0.216s0.484-0.109 0.484-0.242 0.193-0.242 0.43-0.242c0.236 0 0.587-0.217 0.779-0.483 0.191-0.266 0.488-0.484 0.658-0.484s0.309-0.109 0.309-0.242 0.21-0.242 0.466-0.242c0.257 0 0.63-0.163 0.83-0.362 0.199-0.2 0.479-0.363 0.621-0.363 0.143 0 0.26-0.109 0.26-0.242s0.217-0.242 0.483-0.242 0.484-0.109 0.484-0.242 0.194-0.242 0.43-0.242c0.237 0 0.587-0.217 0.778-0.482 0.192-0.266 0.705-0.55 1.142-0.632s0.794-0.245 0.794-0.364c0-0.118 0.21-0.214 0.467-0.214s0.537-0.218 0.621-0.484c0.085-0.266 0.364-0.484 0.621-0.484s0.467-0.109 0.467-0.242 0.218-0.241 0.484-0.241 0.484-0.098 0.484-0.216c0-0.119 0.272-0.284 0.604-0.367 0.333-0.084 0.605-0.259 0.605-0.389 0-0.131 0.218-0.238 0.484-0.238s0.483-0.108 0.483-0.242c0-0.133 0.211-0.241 0.468-0.241s0.536-0.218 0.621-0.484c0.084-0.266 0.363-0.484 0.62-0.484 0.258 0 0.468-0.109 0.468-0.242s0.217-0.241 0.484-0.241c0.266 0 0.483-0.109 0.483-0.242s0.221-0.242 0.491-0.242c0.271 0 0.554-0.163 0.631-0.363 0.076-0.199 0.345-0.363 0.597-0.363s0.458-0.108 0.458-0.241 0.217-0.242 0.483-0.242 0.484-0.109 0.484-0.242 0.139-0.242 0.309-0.242c0.171 0 0.462-0.211 0.648-0.47 0.187-0.258 0.755-0.54 1.263-0.626 0.508-0.085 0.924-0.255 0.924-0.376 0-0.122 0.139-0.221 0.309-0.221s0.467-0.217 0.658-0.483c0.192-0.266 0.543-0.484 0.779-0.484 0.237 0 0.431-0.109 0.431-0.242s0.116-0.242 0.259-0.242c0.142 0 0.422-0.163 0.621-0.363 0.2-0.199 0.573-0.362 0.83-0.362 0.256 0 0.466-0.109 0.466-0.242s0.218-0.242 0.484-0.242 0.483-0.109 0.483-0.242 0.14-0.242 0.31-0.242 0.466-0.217 0.658-0.483c0.191-0.266 0.542-0.484 0.779-0.484 0.236 0 0.43-0.1 0.43-0.223 0-0.122 0.354-0.3 0.786-0.395s0.962-0.375 1.177-0.624c0.215-0.248 0.569-0.451 0.786-0.451s0.395-0.109 0.395-0.242 0.163-0.242 0.363-0.242c0.199 0 0.362-0.108 0.362-0.241s0.171-0.242 0.38-0.242 0.544-0.163 0.743-0.363c0.2-0.2 0.573-0.363 0.829-0.363 0.257 0 0.467-0.109 0.467-0.242s0.139-0.241 0.309-0.241 0.466-0.218 0.658-0.484 0.542-0.484 0.779-0.484 0.43-0.109 0.43-0.242 0.164-0.241 0.363-0.241c0.2 0 0.363-0.109 0.363-0.242s0.171-0.242 0.38-0.242 0.543-0.163 0.743-0.363c0.199-0.199 0.572-0.363 0.829-0.363 0.256 0 0.466-0.108 0.466-0.241s0.163-0.242 0.363-0.242c0.199 0 0.363-0.109 0.363-0.242s0.193-0.242 0.43-0.242 0.587-0.218 0.779-0.484 0.488-0.483 0.658-0.483 0.309-0.109 0.309-0.242 0.21-0.242 0.467-0.242c0.256 0 0.629-0.163 0.829-0.363 0.199-0.199 0.534-0.363 0.743-0.363s0.38-0.108 0.38-0.241 0.163-0.242 0.362-0.242c0.2 0 0.363-0.109 0.363-0.242s0.178-0.242 0.395-0.242 0.571-0.203 0.786-0.451 0.745-0.529 1.177-0.624 0.786-0.273 0.786-0.395c0-0.123 0.194-0.223 0.43-0.223 0.237 0 0.587-0.217 0.779-0.483s0.488-0.484 0.658-0.484 0.31-0.109 0.31-0.242 0.217-0.242 0.483-0.242 0.484-0.109 0.484-0.242 0.21-0.241 0.466-0.241c0.257 0 0.63-0.164 0.829-0.363 0.2-0.2 0.48-0.363 0.622-0.363 0.143 0 0.259-0.109 0.259-0.242s0.194-0.242 0.431-0.242c0.236 0 0.587-0.217 0.779-0.483 0.191-0.266 0.487-0.484 0.658-0.484 0.17 0 0.309-0.099 0.309-0.221 0-0.121 0.416-0.29 0.924-0.376s1.076-0.368 1.263-0.626c0.186-0.258 0.477-0.47 0.648-0.47 0.17 0 0.309-0.109 0.309-0.242s0.218-0.242 0.484-0.242 0.483-0.108 0.483-0.241 0.206-0.242 0.458-0.242 0.52-0.163 0.597-0.363c0.077-0.199 0.36-0.363 0.631-0.363 0.27 0 0.491-0.109 0.491-0.242s0.217-0.241 0.483-0.241 0.484-0.109 0.484-0.242 0.21-0.242 0.468-0.242c0.257 0 0.536-0.218 0.62-0.484 0.085-0.266 0.364-0.483 0.621-0.483s0.468-0.109 0.468-0.242 0.217-0.242 0.483-0.242 0.484-0.107 0.484-0.237c0-0.131 0.272-0.306 0.605-0.389 0.332-0.084 0.604-0.249 0.604-0.368 0-0.118 0.218-0.215 0.484-0.215s0.484-0.109 0.484-0.242 0.21-0.242 0.467-0.242 0.536-0.218 0.621-0.484c0.084-0.266 0.364-0.483 0.621-0.483s0.467-0.097 0.467-0.215 0.357-0.282 0.794-0.364 0.95-0.366 1.142-0.632c0.191-0.265 0.541-0.482 0.778-0.482 0.236 0 0.43-0.109 0.43-0.242s0.218-0.242 0.484-0.242 0.483-0.109 0.483-0.242 0.117-0.242 0.259-0.242c0.143 0 0.423-0.163 0.622-0.362 0.2-0.2 0.573-0.363 0.829-0.363 0.257 0 0.467-0.109 0.467-0.242s0.139-0.242 0.309-0.242 0.467-0.217 0.658-0.483c0.192-0.266 0.542-0.484 0.779-0.484s0.43-0.109 0.43-0.242 0.218-0.242 0.484-0.242 0.484-0.097 0.484-0.215c0-0.119 0.272-0.284 0.604-0.368 0.333-0.083 0.605-0.258 0.605-0.389 0-0.13 0.218-0.237 0.484-0.237s0.483-0.109 0.483-0.242 0.218-0.242 0.484-0.242 0.484-0.108 0.484-0.241 0.123-0.242 0.274-0.242c0.15 0 0.45-0.203 0.665-0.452 0.215-0.248 0.724-0.524 1.13-0.613s0.893-0.376 1.081-0.637 0.536-0.475 0.772-0.475c0.237 0 0.431-0.109 0.431-0.242s0.217-0.242 0.483-0.242 0.484-0.108 0.484-0.241 0.123-0.242 0.274-0.242 0.45-0.203 0.665-0.451c0.216-0.249 0.745-0.529 1.177-0.624 0.433-0.095 0.786-0.273 0.786-0.395 0-0.123 0.194-0.223 0.43-0.223 0.237 0 0.588-0.218 0.779-0.484 0.192-0.266 0.543-0.483 0.779-0.483 0.237 0 0.431-0.109 0.431-0.242s0.163-0.242 0.362-0.242c0.2 0 0.363-0.109 0.363-0.242s0.21-0.242 0.466-0.242c0.257 0 0.63-0.163 0.83-0.363 0.199-0.199 0.494-0.362 0.655-0.362 0.864 0 0.934-0.674 1.002-9.553 0.039-5.185 0.116-0.881 0.191 10.641l0.125 19.347 0.059-21.907c0.06-22.863-0.138-41.633-0.438-41.447-0.096 0.059-0.309-0.054-0.474-0.252-0.164-0.198-0.508-0.36-0.764-0.36-0.608 0-1.531-0.937-1.739-1.764-0.09-0.36-0.259-0.654-0.376-0.654-0.379 0-1.713-1.394-1.713-1.79 0-0.213-0.096-0.387-0.212-0.387s-0.276-0.32-0.354-0.71c-0.078-0.391-0.69-1.285-1.36-1.988-0.67-0.702-1.219-1.498-1.22-1.768 0-0.271-0.49-1.008-1.088-1.64-0.598-0.631-1.087-1.243-1.087-1.36 0-0.118-0.163-0.349-0.363-0.515-0.199-0.165-0.364-0.478-0.366-0.694-8e-3 -0.773-2.051-2.45-2.985-2.45-0.469 0-0.912-0.096-0.985-0.214-0.111-0.18-1.266-0.44-2.798-0.629-1.224-0.152-4.98-0.381-8.101-0.494-5.395-0.196-10.388-0.863-11.953-1.598-1.293-0.607-3.162-2.31-3.162-2.882 0-0.218-0.182-0.76-0.404-1.205-0.655-1.314-0.867-8.893-0.448-16.032 0.2-3.407 0.027-5.3-0.733-8.022-0.379-1.356-0.751-3.471-1.087-6.167-0.313-2.522-0.744-4.585-0.99-4.737-0.114-0.07-0.208-0.344-0.208-0.609 0-1.03-2.109-2.32-4.957-3.03-0.798-0.2-1.658-0.422-1.911-0.495-0.43-0.124-0.426-0.085 0.061 0.598m11.886 5.093c0 0.076 0.408 0.566 0.907 1.09s0.73 0.891 0.513 0.815c-0.421-0.147-0.416-0.106 0.288 2.424 0.272 0.978 0.676 1.374 0.741 0.726 0.016-0.167 0.12 0.133 0.23 0.665s0.324 1.511 0.475 2.176c0.152 0.665 0.329 1.862 0.395 2.66s0.219 1.555 0.341 1.681c0.121 0.127 0.221 0.728 0.221 1.337 0 0.861 0.116 1.187 0.519 1.463 0.285 0.196 0.885 0.737 1.333 1.203 0.447 0.465 1.003 1.035 1.234 1.267 0.232 0.231 0.83 0.829 1.33 1.33 1.233 1.232 1.569 1.568 2.874 2.866 0.618 0.615 1.232 1.227 1.365 1.36l1.295 1.295 1.33 1.33c1.595 1.595 2.467 2.481 2.894 2.941 0.28 0.302 0.742 0.709 1.027 0.905 0.285 0.195 0.519 0.415 0.519 0.487 0 0.073-3.401 0.092-7.558 0.042-4.156-0.049-7.503-0.038-7.436 0.025 0.066 0.063 3.603 0.176 7.859 0.251 4.257 0.075 8.583 0.253 9.613 0.395 5.862 0.807 7.675 1.103 8.256 1.35 1.026 0.436-0.291-0.945-13.913-14.587-12.252-12.272-15.136-15.284-14.633-15.284 0.055 0 7.377 7.264 16.27 16.143 8.894 8.878 15.271 15.163 14.173 13.966-2.395-2.609-2.137-2.349-6.896-6.941-2.1-2.026-3.876-3.917-3.948-4.201-0.071-0.285-0.53-0.743-1.019-1.018s-2.496-2.168-4.459-4.207c-1.964-2.038-3.814-3.944-4.112-4.235-0.596-0.583-7.682-7.672-8.831-8.834-1.284-1.299-3.197-3.026-3.197-2.886m2.135 4.027c-0.022 0.649-0.036 0.662-0.133 0.121-0.06-0.333-0.208-0.708-0.33-0.835-0.122-0.126-0.217-0.452-0.213-0.725 8e-3 -0.452 0.04-0.442 0.355 0.109 0.19 0.332 0.334 0.931 0.321 1.33m0.075 2.176c0 0.266 0.094 0.702 0.208 0.968l0.208 0.483v-0.483c0-0.266-0.093-0.702-0.208-0.968l-0.208-0.483v0.483m0.594 3.386c0.201 1.2 0.341 1.393 0.336 0.464-2e-3 -0.388-0.115-0.869-0.251-1.069-0.177-0.259-0.201-0.088-0.085 0.605m0.496 3.628c0.081 0.665 0.188 1.254 0.237 1.31 0.19 0.212 0.046-1.576-0.164-2.036-0.148-0.325-0.172-0.088-0.073 0.726m0.501 6.046c0.073 1.064 0.173 1.98 0.222 2.035 0.169 0.193 0.059-2.041-0.148-3.003-0.149-0.694-0.17-0.422-0.074 0.968m0.346 9.129c-0.02 1.031 0.046 1.874 0.145 1.874 0.1 0 0.151-0.571 0.113-1.269-0.125-2.287-0.221-2.513-0.258-0.605m34.61 11.104c0.431 0.886 0.82 1.575 0.864 1.531 0.122-0.121-0.82-2.11-1.26-2.659-0.213-0.266-0.035 0.241 0.396 1.128m2.214 20.274c0 2.461 0.036 3.468 0.08 2.237 0.044-1.23 0.044-3.243 0-4.474-0.044-1.23-0.08-0.223-0.08 2.237m-7e-3 16.566c1e-3 1.729 0.039 2.405 0.086 1.502 0.047-0.904 0.046-2.318-1e-3 -3.144s-0.085-0.087-0.085 1.642m0.148 12.455v1.935h0.847c0.685 0 0.846-0.092 0.846-0.484 0-0.269-0.161-0.484-0.363-0.484-0.199 0-0.362-0.163-0.362-0.362 0-0.2-0.109-0.363-0.242-0.363s-0.242-0.49-0.242-1.088c0-0.599-0.109-1.089-0.242-1.089-0.141 0-0.242 0.806-0.242 1.935m0 15.447v4.384h1.33c1.317 0 1.331-8e-3 1.331-0.726 0-0.399-0.109-0.725-0.242-0.725-0.136 0-0.242-0.679-0.242-1.552 0-1.005-0.107-1.602-0.302-1.693-0.242-0.113-0.242-0.169 0-0.282 0.447-0.209 0.418-3.487-0.031-3.487-0.183 0-0.672-0.068-1.088-0.151l-0.756-0.151v4.383m0 17.86v4.585l1.149-0.189c0.632-0.104 1.339-0.196 1.572-0.204 0.483-0.016 0.651-3.956 0.181-4.246-0.133-0.082-0.241-1.068-0.241-2.191v-2.041l-0.786-4e-3c-0.433-2e-3 -1.031-0.069-1.331-0.149l-0.544-0.146v4.585m0.118 13.654c0.741 3.066 0.985 8.42 0.384 8.42-0.49 0-0.502 0.106-0.502 4.48v4.48l0.726 0.145c0.711 0.142 0.725 0.174 0.726 1.626 1e-3 0.815 0.072 2.706 0.158 4.202l0.157 2.72-0.769 0.269-0.769 0.268 0.135 2.211c0.39 6.367 0.352 6.119 0.986 6.408 0.557 0.254 0.585 0.372 0.586 2.509 1e-3 1.233 0.071 3.127 0.155 4.21 0.145 1.865 0.126 1.977-0.364 2.132-0.595 0.189-0.633 0.81-0.36 5.893 0.138 2.563 0.215 2.954 0.605 3.078 0.574 0.182 0.665 5.172 0.117 6.465-0.643 1.519-2.881 2.487-3.61 1.56-0.536-0.681-8.507-0.861-8.919-0.2-0.509 0.814-8.423 0.781-8.967-0.038-0.551-0.83-8.599-1.018-8.811-0.206-0.129 0.493-0.267 0.509-4.453 0.509h-4.321l-0.151-0.605c-0.152-0.603-0.159-0.605-3.088-0.607-1.615-1e-3 -3.504-0.07-4.197-0.153-1.191-0.143-1.276-0.117-1.55 0.486l-0.29 0.637h-8.412l-0.241-0.69c-0.238-0.682-0.266-0.691-2.708-0.842-1.357-0.084-3.237-0.223-4.177-0.309l-1.709-0.157-0.234 0.818-0.235 0.817-4.271 0.066-4.272 0.066-0.16-0.852-0.16-0.852h-8.614l-0.159 0.726-0.159 0.725-2.581-2e-3c-4.415-3e-3 -5.829-0.21-5.997-0.88l-0.143-0.569h-4.47c-4.339 0-4.474 0.015-4.603 0.508-0.125 0.478-0.243 0.5-1.973 0.358-1.012-0.084-2.764-0.209-3.895-0.279-1.131-0.069-2.278-0.237-2.55-0.371-0.272-0.135-1.089-0.204-1.814-0.154l-1.319 0.09 1.39 0.045c1.344 0.043 1.391 0.067 1.394 0.71 9e-3 1.828-0.187 1.753 4.589 1.753h4.294l0.15-0.94 0.151-0.941 4.173 0.126c4.741 0.143 4.301 0.038 4.513 1.078l0.163 0.798 4.288 0.066 4.288 0.066 0.146-0.731 0.146-0.731h8.608l0.159 0.726 0.159 0.725h8.616l0.151-0.605 0.152-0.604h3.881c3.875 0 4.816 0.167 4.816 0.855 0 0.64 8.71 0.513 8.878-0.13 0.121-0.46 0.33-0.483 4.423-0.483s4.303 0.023 4.423 0.483c0.17 0.65 8.786 0.765 9.033 0.121 0.116-0.303 0.826-0.362 4.319-0.362s4.204 0.059 4.32 0.362c0.168 0.437 9.102 0.556 9.102 0.121 0-0.152 1.613-0.242 4.353-0.242 3.004 0 4.353 0.083 4.353 0.266 0 0.18 0.703 0.239 2.171 0.182 3.121-0.122 3.097-0.087 3.301-4.828l0.163-3.775-0.883-0.165-0.882-0.166-0.036-3.979c-0.02-2.189-0.048-4.116-0.061-4.282s0.33-0.406 0.762-0.534l0.786-0.231v-8.35l-0.783-0.203c-1.006-0.261-1.192-1.225-1.098-5.675l0.067-3.188 0.907-0.214 0.907-0.214v-8.353l-0.997-0.133c-1.398-0.188-1.366-0.089-1.557-4.694l-0.172-4.159 1.273-0.169 1.273-0.169-0.152-1.451c-0.084-0.798-0.152-2.679-0.152-4.18 0-3.051 0.143-2.829-2.004-3.121-1.119-0.152-1.153-0.139-1.022 0.403m-0.983 53.281c1e-3 2.793 0.036 3.903 0.079 2.466 0.042-1.438 0.042-3.723-1e-3 -5.079s-0.078-0.18-0.078 2.613m-110.12 4.563c0.055 0.049 9.949 0.141 21.987 0.204 12.282 0.064 17.854 0.04 12.696-0.055-10.031-0.186-34.845-0.292-34.683-0.149m-45.952 1.301c0.111 1.139 1.788 2.434 3.187 2.462l0.907 0.017v-2.66h-2.056c-1.13 0-2.048 0.082-2.038 0.181m13.132 0.575c0.084 0.415 0.152 1.017 0.152 1.335v0.58l4.292-0.066 4.293-0.066 0.127-1.269 0.128-1.27h-9.143l0.151 0.756m17.707 0.03c0.347 2.085-0.164 1.874 4.546 1.874h4.196l0.15-0.907c0.313-1.898 0.68-1.753-4.434-1.753h-4.589l0.131 0.786m98.043 2.6c0 0.465 0.161 0.483 4.232 0.483s4.232-0.018 4.232-0.483-0.161-0.484-4.232-0.484-4.232 0.019-4.232 0.484m17.654 0c0 0.461 0.162 0.484 3.446 0.486 1.896 2e-3 3.855 0.07 4.354 0.153 0.856 0.141 0.906 0.114 0.906-0.487v-0.636h-4.353c-4.191 0-4.353 0.018-4.353 0.484m-86.771-0.062c1.157 0.044 3.116 0.044 4.353 0s0.29-0.08-2.104-0.08-3.406 0.036-2.249 0.08m15.913 0.062c0 0.152 1.572 0.242 4.232 0.242s4.232-0.09 4.232-0.242-1.572-0.242-4.232-0.242-4.232 0.09-4.232 0.242m17.654 0c0 0.152 1.572 0.242 4.232 0.242s4.232-0.09 4.232-0.242-1.572-0.242-4.232-0.242-4.232 0.09-4.232 0.242m17.817 0.017c0.484 0.485 8.543 0.617 8.543 0.141 0-0.357-0.47-0.4-4.401-0.4-3.134 0-4.327 0.075-4.142 0.259"
            fill="#e4e4ea" />
        <path
            d="m119.57 18.36c-0.155 0.154-0.061 7.552 0.134 10.54 0.127 1.94 0.168 0.892 0.151-3.87l-0.023-6.529 11.306 0.065c6.899 0.039 11.306-0.023 11.306-0.161 0-0.219-22.656-0.264-22.874-0.045m33.709-0.042c1.37 0.044 3.547 0.043 4.836 0 1.29-0.043 0.169-0.079-2.491-0.079-2.66 1e-3 -3.716 0.036-2.345 0.079m39.662 1e-3c18.101 0.036 31.215 0.153 31.139 0.277-0.175 0.283 1.369 0.566 1.926 0.352 0.284-0.109 0.378-0.075 0.272 0.096-0.099 0.16 0.146 0.33 0.625 0.432 1.368 0.292 3.883 1.605 5.262 2.748 2.387 1.976 2.357 1.916 2.37 4.832 0.013 2.87 0.524 5.529 1.261 6.563 0.264 0.372 0.481 0.774 0.481 0.893 0 0.12 0.268 0.756 0.595 1.414 0.975 1.958 1.361 5.085 0.938 7.591-1.467 8.682 0.858 14.506 6.931 17.364 2.137 1.006 2.078 0.992 5.274 1.285 3.075 0.282 11.647 1.35 12.622 1.573 4.575 1.046 5.684 1.777 8.227 5.427 0.51 0.731 1.425 1.928 2.033 2.658 0.609 0.731 1.106 1.417 1.106 1.525s0.326 0.544 0.725 0.969c0.398 0.425 0.725 0.854 0.725 0.954 1e-3 0.1 0.16 0.181 0.354 0.181 0.274 0 0.373 0.448 0.441 1.996 0.048 1.097 0.07 0.145 0.049-2.116-0.042-4.426-0.255-5.823-1.056-6.906-0.282-0.381-0.512-0.753-0.512-0.826 0-0.352-2.392-2.801-3.551-3.635-1.121-0.806-1.953-1.071-4.61-1.465-4.636-0.689-10.135-2.275-12.274-3.541-0.823-0.487-3.392-1.753-4.837-2.384-1.213-0.53-4.348-0.958-7.497-1.024l-2.418-0.05 0.038-2.56c0.021-1.408 0.11-3.15 0.199-3.87 0.274-2.226-0.53-12.059-1.343-16.424-0.597-3.206-0.872-4.218-1.462-5.377-0.117-0.231-0.214-0.64-0.214-0.909 0-0.581-1.394-2.57-1.734-2.475-0.13 0.037-0.176-0.03-0.103-0.149 0.073-0.118-0.071-0.4-0.32-0.625-0.353-0.319-0.481-0.34-0.58-0.093-0.074 0.187-0.136 0.119-0.149-0.166-0.025-0.561-1.442-1.563-2.249-1.591-0.307-0.011-0.405-0.076-0.222-0.149 0.227-0.091 0.124-0.263-0.337-0.565-0.364-0.239-0.828-0.371-1.03-0.294-0.22 0.085-0.306 0.04-0.213-0.11 0.194-0.313-1.447-0.94-4.578-1.75-0.685-0.177-10.76-0.239-32.285-0.198l-31.29 0.06 31.271 0.062m-73.353 90.629c0 40.568 0.028 57.128 0.062 36.8s0.034-53.52 0-73.76-0.062-3.608-0.062 36.96m120.42-56.59l0.013 2.66 1.209 0.051c11.675 0.496 17.359 1.017 22.249 2.039 2.221 0.464 5.396 1.573 6.893 2.408l0.846 0.473-0.725-0.624c-0.399-0.342-1.007-0.889-1.35-1.215-1.905-1.806-13.325-3.166-27.239-3.243l-1.746-0.01-0.082-2.6-0.082-2.599 0.014 2.66m32.072 8.483c0.457 0.542 0.88 0.947 0.94 0.899s-0.314-0.492-0.831-0.986l-0.94-0.899 0.831 0.986m4.379 8.808c0.012 0.629 0.393 1.661 0.401 1.089 4e-3 -0.266-0.086-0.702-0.2-0.968-0.128-0.296-0.205-0.343-0.201-0.121m-156.39 84.462l1e-3 64.631 10.399 4e-3 10.399 4e-3 -10.339-0.067-10.338-0.067-0.061-64.568-0.062-64.568 1e-3 64.631m156.93-25.211c0 2.46 0.036 3.467 0.08 2.237 0.044-1.231 0.044-3.244 0-4.474-0.044-1.231-0.08-0.224-0.08 2.237m1e-3 17.896c0 2.593 0.035 3.654 0.079 2.358 0.043-1.297 0.043-3.419 0-4.716-0.044-1.297-0.079-0.236-0.079 2.358m1e-3 40.749l0.018 31.681-74.486-0.015c-40.967-9e-3 -53.33 0.018-27.472 0.061 26.866 0.043 47.127 0.168 47.279 0.291 0.553 0.446 8.521 0.605 8.687 0.173 0.17-0.444 8.87-0.605 8.87-0.164 0 0.835 0.732 0.984 4.828 0.984h4.068l0.15-0.599 0.15-0.598 2.718 0.124c4.914 0.226 5.719 0.34 5.993 0.851 0.354 0.663 8.528 0.72 8.896 0.063 0.336-0.6 8.462-0.316 8.921 0.311 0.397 0.543 2.081 0.084 2.593-0.706 0.689-1.062 0.632-6.438-0.07-6.621-0.392-0.103-0.467-0.47-0.601-2.94-0.084-1.553-0.225-3.503-0.312-4.335-0.127-1.205-0.092-1.512 0.177-1.515 0.873-9e-3 0.912-0.262 0.686-4.474-0.172-3.194-0.302-4.167-0.586-4.375-0.319-0.234-0.375-2.761-0.445-20.072-0.044-10.893-0.072-5.549-0.062 11.875m-157.44 3.507c0 2.594 0.036 3.655 0.079 2.358 0.044-1.297 0.044-3.419 0-4.716-0.043-1.297-0.079-0.236-0.079 2.358m-1e-3 17.896c0 2.461 0.036 3.467 0.08 2.237s0.044-3.244 0-4.474-0.08-0.224-0.08 2.237m35.752 9.613c3.958 0.037 10.433 0.037 14.39 0s0.719-0.068-7.195-0.068-11.152 0.031-7.195 0.068m56.005 0.242c12.015 0.035 31.604 0.035 43.531 0s2.097-0.063-21.845-0.063-33.701 0.028-21.686 0.063m-90.466 0.48c0.698 0.049 1.841 0.049 2.539 0 0.698-0.048 0.127-0.088-1.27-0.088-1.396 0-1.968 0.04-1.269 0.088"
            fill="#c9cecf" />
        <path
            d="m126.66 18.318c1.23 0.044 3.243 0.044 4.474 0 1.23-0.044 0.223-0.08-2.237-0.08-2.461 0-3.468 0.036-2.237 0.08m17.762 0c1.158 0.044 3.116 0.044 4.354 0 1.237-0.044 0.29-0.08-2.104-0.08s-3.407 0.035-2.25 0.08m16.216-0.013c0.233 0.06 0.614 0.06 0.846 0 0.233-0.061 0.043-0.111-0.423-0.111-0.465 0-0.656 0.05-0.423 0.111m40.75 0.498c4.156 0.037 10.958 0.037 15.114 0 4.157-0.037 0.756-0.068-7.557-0.068s-11.714 0.031-7.557 0.068m26.638 1.279c0.585 0.266 1.114 0.433 1.175 0.372 0.128-0.129-1.561-0.868-1.966-0.86-0.15 3e-3 0.206 0.223 0.791 0.488m2.147 1.186c0.429 0.392 0.779 0.929 0.779 1.195s0.094 0.541 0.208 0.611c0.246 0.152 0.677 2.215 0.99 4.737 0.336 2.696 0.708 4.811 1.087 6.167 0.76 2.722 0.933 4.615 0.733 8.022-0.419 7.139-0.207 14.718 0.448 16.032 0.222 0.445 0.404 0.987 0.404 1.205 0 0.572 1.869 2.275 3.162 2.882 1.565 0.735 6.558 1.402 11.953 1.598 3.121 0.113 6.877 0.342 8.101 0.494 1.532 0.189 2.687 0.449 2.798 0.629 0.073 0.118 0.516 0.214 0.985 0.214 0.934 0 2.977 1.677 2.985 2.45 2e-3 0.216 0.167 0.529 0.366 0.694 0.2 0.166 0.363 0.397 0.363 0.515 0 0.117 0.489 0.729 1.087 1.36 0.598 0.632 1.088 1.369 1.088 1.64 1e-3 0.27 0.55 1.066 1.22 1.768 0.67 0.703 1.282 1.597 1.36 1.988 0.078 0.39 0.238 0.71 0.354 0.71s0.212 0.174 0.212 0.387c0 0.396 1.334 1.79 1.713 1.79 0.117 0 0.286 0.294 0.376 0.654 0.208 0.827 1.131 1.764 1.739 1.764 0.256 0 0.6 0.162 0.764 0.36 0.165 0.198 0.396 0.3 0.514 0.228 0.122-0.076 0.238 2.708 0.27 6.471l0.055 6.605 0.081-5.563c0.112-7.676-0.137-13.422-0.581-13.422-0.185 0-0.337-0.081-0.338-0.181 0-0.1-0.327-0.529-0.725-0.954-0.399-0.425-0.725-0.861-0.725-0.969s-0.497-0.794-1.106-1.525c-0.608-0.73-1.523-1.927-2.033-2.658-2.543-3.65-3.652-4.381-8.227-5.427-0.975-0.223-9.547-1.291-12.622-1.573-3.196-0.293-3.137-0.279-5.274-1.285-6.073-2.858-8.398-8.682-6.931-17.364 0.423-2.506 0.037-5.633-0.938-7.591-0.327-0.658-0.595-1.294-0.595-1.414 0-0.119-0.217-0.521-0.481-0.893-0.737-1.034-1.248-3.693-1.261-6.563-0.013-2.92 7e-3 -2.879-2.37-4.813-2.021-1.645-3.533-2.386-1.988-0.975m6.183 4.084c0.22 0.243 0.4 0.726 0.4 1.074 0 0.347 0.126 0.709 0.28 0.804 0.191 0.118 0.238 0.012 0.149-0.33-0.102-0.389-0.042-0.472 0.264-0.364 0.218 0.076 0.021-0.258-0.438-0.744-0.837-0.887-1.404-1.268-0.655-0.44m-116.79 5.724c0 2.394 0.036 3.341 0.08 2.104s0.044-3.196 0-4.353-0.08-0.145-0.08 2.249m118.66-3.688c0.155 0.299 6.659 6.932 14.454 14.74 13.622 13.642 14.939 15.023 13.913 14.587-0.251-0.107-0.946-0.273-1.545-0.37-0.598-0.097-1.876-0.307-2.839-0.467-0.963-0.161-1.942-0.248-2.176-0.193-0.234 0.054 0.227 0.176 1.025 0.271s1.886 0.272 2.418 0.394c3.924 0.899 5.124 1.258 5.445 1.63 0.201 0.233 0.582 0.583 0.847 0.778 0.838 0.618-3.077-3.36-17.542-17.827-14.382-14.384-14.485-14.483-14-13.543m-0.471 2.116c0 0.2 0.093 0.581 0.208 0.847 0.131 0.305 0.207 0.349 0.207 0.121 0-0.2-0.093-0.581-0.207-0.847-0.131-0.305-0.208-0.349-0.208-0.121m0.608 2.781c0.081 0.532 0.187 1.013 0.236 1.068 0.183 0.208 0.046-1.087-0.164-1.551-0.153-0.337-0.175-0.191-0.072 0.483m0.628 3.87c3e-3 0.532 0.052 0.721 0.11 0.42s0.056-0.736-5e-3 -0.967c-0.06-0.231-0.108 0.015-0.105 0.547m0.495 4.232c0 0.732 0.045 1.031 0.101 0.665 0.055-0.366 0.055-0.964 0-1.33-0.056-0.366-0.101-0.067-0.101 0.665m0.239 4.232c1e-3 0.665 0.048 0.909 0.104 0.541s0.054-0.912-3e-3 -1.209c-0.058-0.298-0.103 3e-3 -0.101 0.668m0.257 3.265c0 1.131 0.041 1.593 0.092 1.028 0.051-0.566 0.051-1.491 0-2.056s-0.092-0.103-0.092 1.028m6.379 7.188c0.429 0.053 1.191 0.054 1.693 2e-3 0.502-0.053 0.15-0.096-0.781-0.097s-1.341 0.041-0.912 0.095m3.386 0c0.429 0.053 1.191 0.054 1.693 2e-3 0.501-0.053 0.15-0.096-0.781-0.097s-1.342 0.041-0.912 0.095m3.713 0.158c0.056 0.05 1.353 0.151 2.882 0.224 1.858 0.088 2.42 0.064 1.693-0.073-1.078-0.204-4.768-0.326-4.575-0.151m-133.4 20.103c0 7.847 0.031 11.023 0.068 7.056s0.037-10.387 0-14.268c-0.037-3.882-0.068-0.636-0.068 7.212m156.94 0.241c1e-3 2.528 0.036 3.529 0.08 2.225 0.043-1.304 0.043-3.372-1e-3 -4.595-0.043-1.224-0.079-0.157-0.079 2.37m1e-3 17.775c0 2.594 0.035 3.655 0.079 2.358 0.043-1.296 0.043-3.419 0-4.715-0.044-1.297-0.079-0.236-0.079 2.357m9e-3 20.919c0 5.72 0.032 8.025 0.071 5.123 0.038-2.902 0.038-7.581 0-10.399-0.039-2.817-0.071-0.443-0.071 5.276m-0.01 23.459c1e-3 2.527 0.036 3.528 0.08 2.224 0.043-1.304 0.043-3.371-1e-3 -4.595-0.043-1.223-0.079-0.156-0.079 2.371m-0.013 15.84c0 1.264 0.04 1.781 0.09 1.149s0.05-1.666 0-2.298c-0.05-0.631-0.09-0.114-0.09 1.149m0.173 10.943c-0.018 4.19-7e-3 4.293 0.483 4.293 0.564 0 0.563-1.288-4e-3 -5.925-0.399-3.26-0.458-3.059-0.479 1.632m-0.019 22.158c0 7.443 0.057 8.949 0.34 9.058 0.341 0.131 0.423 0.836 0.737 6.386l0.127 2.233-0.633 0.159c-0.619 0.155-0.629 0.191-0.477 1.636 0.086 0.813 0.225 2.748 0.309 4.301 0.134 2.47 0.209 2.837 0.601 2.94 0.702 0.183 0.759 5.559 0.07 6.621-0.512 0.79-2.196 1.249-2.593 0.706-0.459-0.627-8.585-0.911-8.921-0.311-0.368 0.657-8.542 0.6-8.896-0.063-0.274-0.511-1.079-0.625-5.993-0.851l-2.718-0.124-0.15 0.598-0.15 0.599h-4.068c-4.096 0-4.828-0.149-4.828-0.984 0-0.439-8.651-0.28-8.899 0.163-0.241 0.43-8.381 0.263-8.653-0.177-0.072-0.116-1.566-0.195-3.321-0.175-3.352 0.037-2.335 0.362 1.321 0.421 1.561 0.026 1.616 0.048 1.862 0.752l0.253 0.726h8.412l0.29-0.637c0.274-0.603 0.359-0.629 1.55-0.486 0.693 0.083 2.582 0.152 4.197 0.153 2.929 2e-3 2.936 4e-3 3.088 0.607l0.151 0.605h4.321c4.186 0 4.324-0.016 4.453-0.509 0.212-0.812 8.26-0.624 8.811 0.206 0.544 0.819 8.458 0.852 8.967 0.038 0.412-0.661 8.383-0.481 8.919 0.2 0.729 0.927 2.967-0.041 3.61-1.56 0.548-1.293 0.457-6.283-0.117-6.465-0.39-0.124-0.467-0.515-0.605-3.078-0.273-5.083-0.235-5.704 0.36-5.893 0.49-0.155 0.509-0.267 0.364-2.132-0.084-1.083-0.154-2.977-0.155-4.21-1e-3 -2.137-0.029-2.255-0.586-2.509-0.634-0.289-0.596-0.041-0.986-6.408l-0.135-2.211 0.752-0.262 0.752-0.263-0.172-4.177c-0.094-2.298-0.185-4.189-0.201-4.204-0.016-0.014-0.329-0.098-0.695-0.186l-0.665-0.159v8.926m-116.25 31.65c1.037 0.045 2.669 0.045 3.627-1e-3 0.959-0.046 0.11-0.083-1.885-0.082-1.995 0-2.779 0.037-1.742 0.083m-25.404 0.243c2.361 0.039 6.224 0.039 8.585 0 2.361-0.04 0.429-0.072-4.293-0.072s-6.653 0.032-4.292 0.072m44.982 0c2.095 0.04 5.523 0.04 7.617 0 2.095-0.041 0.381-0.074-3.808-0.074-4.19 0-5.904 0.033-3.809 0.074m-55.139 0.72c0.498 0.053 1.315 0.053 1.813 0 0.499-0.052 0.091-0.094-0.907-0.094-0.997 0-1.405 0.042-0.906 0.094m43.845 0.286c0.126 0.121 1.209 0.282 2.406 0.356 1.197 0.075 3.004 0.205 4.016 0.288 1.73 0.144 1.848 0.122 1.973-0.356 0.131-0.502 0.084-0.508-4.246-0.508-2.64 0-4.288 0.087-4.149 0.22m17.525 0.082c0.01 0.87 0.376 0.958 4.561 1.09 2.377 0.074 4.142 0.038 4.144-0.087 2e-3 -0.119 0.069-0.462 0.15-0.761l0.145-0.544h-4.502c-3.442 0-4.501 0.071-4.498 0.302m17.653 0c0.016 1.412-0.053 1.391 4.505 1.391h4.21l0.236-0.62c0.13-0.342 0.236-0.723 0.236-0.847 0-0.132-1.906-0.226-4.595-0.226-3.516 0-4.594 0.071-4.592 0.302"
            fill="#d9dcdc" />
    </g>
</svg>