<?xml version="1.0" encoding="UTF-8"?>
<svg width="32" height="32" version="1.0" viewBox="0, 0, 400,400" xmlns="http://www.w3.org/2000/svg">
    <g fill-rule="evenodd">
        <path
            d="m72.564 44.549c-0.316 0.824 0.25 1.52 2.392 2.939 0.922 0.612 11.726 9.122 24.008 18.912s24.695 19.65 27.583 21.912c2.889 2.261 6.693 5.269 8.453 6.683s4.64 3.704 6.4 5.088c2.561 2.014 3.44 2.997 4.4 4.917l1.2 2.4-0.127 85.6c-0.07 47.08-0.223 86.112-0.34 86.738-0.172 0.919-3.219 6.74-4.953 9.462-1.043 1.638-1.146 3.4-1.201 20.478l-0.057 18.122 22.739 7e-3 22.739 6e-3 -22.326-0.206-22.326-0.207 0.042-16.2c0.04-15.698 0.149-17.411 1.291-20.4 0.492-1.287 0.855-1.972 2.231-4.2 0.272-0.44 0.71-1.25 0.975-1.8s0.803-1.429 1.197-1.954c0.678-0.904 0.716-3.386 0.716-47.2 0-60.784 0.457-130.14 0.848-128.69 0.171 0.633 0.437 12.783 0.592 27 0.154 14.216 0.312 26.568 0.349 27.448 0.038 0.88 0.101 7.585 0.14 14.9 0.069 13.01 0.088 13.3 0.871 13.3 0.533 0 0.8 0.267 0.8 0.8s0.267 0.8 0.8 0.8 0.8 0.267 0.8 0.8 0.267 0.8 0.8 0.8c0.733 0 0.8 0.267 0.8 3.2s0.067 3.2 0.8 3.2c0.667 0 0.8 0.267 0.8 1.6s0.133 1.6 0.8 1.6c0.778 0 0.8 0.267 0.8 9.6s0.022 9.6 0.8 9.6c0.711 0 0.8 0.267 0.8 2.4s0.089 2.4 0.8 2.4 0.8 0.267 0.8 2.4 0.089 2.4 0.8 2.4 0.8 0.267 0.8 2.4 0.089 2.4 0.8 2.4c0.533 0 0.8 0.267 0.8 0.8s0.267 0.8 0.8 0.8c0.667 0 0.8 0.267 0.8 1.6 0 1.384-0.119 1.6-0.883 1.6-0.787 0-0.699 0.188 0.8 1.715l1.683 1.715v4.685c0 4.418 0.046 4.685 0.8 4.685 0.667 0 0.8 0.267 0.8 1.6 0 1.376-0.122 1.6-0.87 1.6h-0.869l0.869 0.926c0.843 0.896 0.87 1.224 0.87 10.372 0 9.357 8e-3 9.448 0.859 9.574 1.251 0.186 1.859 1.327 1.238 2.321-0.273 0.438-0.497 1.159-0.497 1.602 0 0.538-0.265 0.805-0.8 0.805-0.533 0-0.8 0.267-0.8 0.8s0.267 0.8 0.8 0.8c0.667 0 0.8 0.267 0.8 1.6s-0.133 1.6-0.8 1.6c-0.533 0-0.8 0.267-0.8 0.8s0.267 0.8 0.8 0.8c0.667 0 0.8 0.267 0.8 1.6s-0.133 1.6-0.8 1.6c-0.711 0-0.8 0.267-0.8 2.4s0.089 2.4 0.8 2.4c0.767 0 0.8 0.267 0.8 6.4s0.033 6.4 0.8 6.4c0.667 0 0.8 0.267 0.8 1.6s-0.133 1.6-0.8 1.6c-0.533 0-0.8 0.267-0.8 0.8s0.267 0.8 0.8 0.8c0.667 0 0.8 0.267 0.8 1.6s-0.133 1.6-0.8 1.6c-0.746 0-0.8 0.267-0.8 3.948v3.948l14.3 0.277c7.865 0.152 20.87 0.442 28.9 0.644s18.29 0.414 22.8 0.471-3.68 0.197-18.2 0.312c-22.606 0.179-19.38 0.222 22.446 0.304 48.314 0.095 48.857 0.087 49.863-0.704 0.56-0.44 1.199-0.8 1.421-0.8 0.223 0 0.824-0.675 1.337-1.5l0.932-1.5-0.135-42.8-0.135-42.8-1.043-1.376c-0.573-0.756-4.202-4.553-8.064-8.438-8.222-8.269-8.025-8.039-8.463-9.923-0.187-0.805-0.344-38.75-0.349-84.322l-0.01-82.859-0.939-1.654c-2.298-4.044 1.807-3.8-71.061-4.223-131.84-0.763-131.16-0.763-131.44-0.056m49.636 1.119l8 0.071-10 0.279c-16.771 0.469-28.541 0.859-34 1.127l-5.2 0.255 1.487 1.5c0.817 0.825 1.852 1.5 2.3 1.5 0.447 0 0.813 0.18 0.813 0.4s0.36 0.4 0.8 0.4 0.8 0.18 0.8 0.4 0.36 0.4 0.8 0.4c0.592 0 0.8 0.267 0.8 1.025 0 1.047 4.395 5.775 5.369 5.775 0.249 0 0.745 0.315 1.101 0.7s1.386 1.23 2.289 1.877c0.902 0.647 1.641 1.296 1.641 1.441 0 0.521 1.891 2.294 2.732 2.56 0.471 0.15 1.366 0.781 1.988 1.404 0.622 0.622 1.46 1.195 1.863 1.274 0.799 0.157 1.732 1.362 1.35 1.744-0.423 0.423-2.333-0.268-2.333-0.843 0-0.307-0.354-0.557-0.786-0.557s-0.972-0.348-1.2-0.773c-0.227-0.425-0.773-0.887-1.214-1.027-0.44-0.14-0.8-0.497-0.8-0.795s-0.54-0.66-1.2-0.805-1.2-0.434-1.2-0.642-0.45-0.549-1-0.758-1-0.655-1-0.99c0-0.336-0.264-0.61-0.586-0.61s-0.779-0.36-1.014-0.8-0.685-0.8-1-0.8-0.763-0.358-0.997-0.795c-0.235-0.438-0.871-0.907-1.415-1.044-0.543-0.136-0.988-0.498-0.988-0.804 0-0.307-0.377-0.557-0.837-0.557-0.501 0-0.922-0.321-1.047-0.8-0.115-0.44-0.452-0.8-0.749-0.8-0.296 0-0.732-0.36-0.967-0.8s-0.697-0.8-1.027-0.8c-0.329 0-0.695-0.254-0.814-0.563-0.119-0.31-0.744-0.782-1.388-1.049s-1.171-0.648-1.171-0.846c0-0.199-0.45-0.533-1-0.742s-1-0.655-1-0.99c0-0.336-0.276-0.61-0.613-0.61-0.336 0-0.714-0.266-0.839-0.59-0.124-0.325-0.748-0.865-1.387-1.2-0.639-0.336-1.701-0.893-2.361-1.239s-1.2-0.735-1.2-0.864 9.045-0.117 20.1 0.028c11.055 0.144 23.7 0.294 28.1 0.333m-46.745 12.632c-0.484 1.706-0.455 264.46 0.03 264.94 1.311 1.311 1.411-1.335 1.164-30.845-0.133-15.95-0.243-75.305-0.245-131.9-4e-3 -94.646-0.102-105.18-0.949-102.2m4.765 4.6c-0.122 0.392-0.788 208.53-0.814 254.14-5e-3 8.049 0.106 10.173 0.557 10.717 1.283 1.545 1.439 0.075 1.346-12.677-0.05-6.864-0.095-66.524-0.1-132.58-8e-3 -112.86-0.088-122.5-0.989-119.6m28.363 7.872c0.409 0.662-0.442 0.82-1.224 0.228-0.734-0.556-0.73-0.575 0.117-0.587 0.482-7e-3 0.98 0.155 1.107 0.359m42.617 129.23c0 0.533 0.267 0.8 0.8 0.8s0.8-0.267 0.8-0.8-0.267-0.8-0.8-0.8-0.8 0.267-0.8 0.8m-79.858 72.6c-1e-3 1.98 0.066 2.84 0.15 1.912s0.085-2.548 3e-3 -3.6c-0.083-1.052-0.152-0.292-0.153 1.688m-0.049 6.6c0 0.77 0.082 1.085 0.183 0.7 0.1-0.385 0.1-1.015 0-1.4-0.101-0.385-0.183-0.07-0.183 0.7m-0.093 25.533c0 14.508 0.142 22.867 0.388 22.867 0.364 0 0.127-45.159-0.238-45.567-0.083-0.091-0.15 10.124-0.15 22.7m64-4.761c0 1.361 0.131 1.628 0.8 1.628 0.533 0 0.8 0.267 0.8 0.8s-0.267 0.8-0.8 0.8c-0.667 0-0.8 0.267-0.8 1.6s-0.133 1.6-0.8 1.6-0.8 0.267-0.8 1.6-0.133 1.6-0.8 1.6c-0.733 0-0.8 0.267-0.8 3.2s-0.067 3.2-0.8 3.2c-0.667 0-0.8 0.267-0.8 1.6s-0.133 1.6-0.8 1.6-0.8 0.267-0.8 1.6-0.133 1.6-0.8 1.6c-0.533 0-0.8 0.267-0.8 0.8s-0.267 0.8-0.8 0.8c-0.667 0-0.8 0.267-0.8 1.6s-0.133 1.6-0.8 1.6-0.8 0.267-0.8 1.6-0.133 1.6-0.8 1.6c-0.533 0-0.8 0.267-0.8 0.8 0 0.667-0.267 0.8-1.6 0.8h-1.6v3.2c0 2.933-0.067 3.2-0.8 3.2-0.667 0-0.8 0.267-0.8 1.6s-0.133 1.6-0.8 1.6-0.8 0.267-0.8 1.6v1.6h-2.4-2.4v1.6c0 1.333 0.133 1.6 0.8 1.6 0.533 0 0.8 0.267 0.8 0.8s-0.267 0.8-0.8 0.8c-0.667 0-0.8 0.267-0.8 1.6s-0.133 1.6-0.8 1.6c-0.533 0-0.8 0.267-0.8 0.8s-0.267 0.8-0.8 0.8c-0.444 0-0.8-0.267-0.8-0.6s-0.356-0.6-0.8-0.6c-0.44 0-0.8-0.263-0.8-0.585 0-0.34-0.648-0.759-1.553-1.002-0.855-0.231-1.777-0.687-2.049-1.016-0.273-0.328-0.725-0.597-1.004-0.597-0.28 0-0.609-0.261-0.731-0.581-0.123-0.319-1.042-0.954-2.043-1.41s-1.82-1.094-1.82-1.419c0-0.324-0.199-0.59-0.443-0.59-0.243 0-0.333 0.285-0.2 0.633 0.134 0.348 0.243 0.798 0.243 1s0.338 0.367 0.751 0.367c0.815 0 1.794 0.922 1.398 1.317-0.134 0.134 0.233 0.364 0.814 0.51 0.582 0.146 1.24 0.604 1.462 1.019s0.667 0.754 0.989 0.754 0.586 0.27 0.586 0.6 0.238 0.6 0.528 0.6 0.896 0.405 1.345 0.9c0.45 0.495 1.407 1.35 2.127 1.9s1.595 1.315 1.944 1.7c0.348 0.385 0.857 0.7 1.131 0.7 0.273 0 0.69 0.36 0.925 0.8s0.587 0.8 0.781 0.8c0.195 0 1.081 0.675 1.97 1.5s2.79 2.395 4.224 3.488 2.695 2.218 2.803 2.5 0.473 0.512 0.809 0.512c0.337 0 0.613 0.165 0.613 0.366s0.945 1.055 2.1 1.898 2.691 2.119 3.413 2.834c0.723 0.716 1.481 1.302 1.686 1.302s0.566 0.36 0.801 0.8 0.683 0.8 0.994 0.8c0.312 0 0.71 0.229 0.886 0.51 0.176 0.28 0.787 0.806 1.358 1.168 0.57 0.362 1.591 1.213 2.269 1.89 1.545 1.546 2.955 1.607 3.896 0.171 0.844-1.288 0.574-51.358-0.284-52.747-0.137-0.222-0.382-6.068-0.545-12.991-0.317-13.55-0.53-14.838-2.506-15.129-0.769-0.113-0.868 0.057-0.868 1.5m-44.8 42.837c0 0.164 0.45 0.384 1 0.489s1 0.057 1-0.107-0.45-0.384-1-0.489-1-0.057-1 0.107"
            fill="#f8d978" />
        <path
            d="m70.88 43.68c-0.372 0.372-0.48 32.628-0.48 142.75v142.27l1.9 1.44c1.045 0.791 2.17 1.685 2.5 1.985 0.71 0.646 25.526 20.561 44.2 35.47 7.26 5.797 14.222 11.357 15.47 12.356 3.746 2.997 6.308 2.401 6.343-1.475 8e-3 -0.808 0.053-12.359 0.1-25.669l0.087-24.2 74.8-0.2 74.8-0.2 1.509-0.938c0.829-0.516 1.985-1.563 2.568-2.328l1.061-1.39-0.1-42.849c-0.118-50.537 1.144-43.129-9.02-52.928-4.089-3.942-7.926-7.977-8.527-8.967l-1.091-1.8-0.105-84.111-0.104-84.111-1.296-1.833c-0.736-1.043-2.069-2.246-3.089-2.789l-1.794-0.956h-99.626c-76.954 0-99.735 0.109-100.11 0.48m133.12 0.925c72.868 0.423 68.763 0.179 71.061 4.223l0.939 1.654 0.01 82.859c5e-3 45.572 0.162 83.517 0.349 84.322 0.438 1.884 0.241 1.654 8.463 9.923 3.862 3.885 7.491 7.682 8.064 8.438l1.043 1.376 0.135 42.8 0.135 42.8-0.932 1.5c-0.513 0.825-1.105 1.5-1.316 1.5s-0.871 0.342-1.467 0.761c-1.054 0.74-3.126 0.765-75.623 0.9l-74.538 0.139 0.057-18.122c0.054-17.078 0.157-18.84 1.2-20.478 1.734-2.722 4.781-8.543 4.953-9.462 0.117-0.626 0.27-39.658 0.34-86.738l0.127-85.6-1.2-2.4c-0.96-1.92-1.839-2.903-4.4-4.917-1.76-1.384-4.64-3.674-6.4-5.088s-5.564-4.422-8.453-6.683c-2.888-2.262-15.301-12.122-27.583-21.912s-23.086-18.3-24.008-18.912c-2.142-1.419-2.708-2.115-2.392-2.939 0.271-0.707-0.401-0.707 131.44 0.056m-127.6 115.9c2e-3 56.595 0.112 115.95 0.245 131.9 0.247 29.51 0.147 32.156-1.164 30.845-0.485-0.485-0.514-263.24-0.03-264.94 0.847-2.985 0.945 7.554 0.949 102.2m4.805 22c5e-3 66.055 0.05 125.72 0.1 132.58 0.093 12.752-0.063 14.222-1.346 12.677-0.451-0.544-0.562-2.668-0.557-10.717 0.026-45.609 0.692-253.75 0.814-254.14 0.901-2.905 0.981 6.739 0.989 119.6m-9.717 92.012c-0.084 0.928-0.151 0.068-0.15-1.912s0.07-2.74 0.153-1.688c0.082 1.052 0.081 2.672-3e-3 3.6m-0.016 5.388c-0.101 0.385-0.183 0.07-0.183-0.7s0.082-1.085 0.183-0.7c0.1 0.385 0.1 1.015 0 1.4m0.262 25c0.153 14.564 0.099 22.7-0.15 22.7-0.246 0-0.388-8.359-0.388-22.867 0-12.576 0.067-22.791 0.15-22.7 0.082 0.092 0.257 10.382 0.388 22.867m65.87-5.093c0.569 1.022 0.717 3.127 0.966 13.794 0.163 6.923 0.408 12.769 0.545 12.991 0.858 1.389 1.128 51.459 0.284 52.747-0.941 1.436-2.351 1.375-3.896-0.171-0.678-0.677-1.699-1.528-2.269-1.89-0.571-0.362-1.182-0.888-1.358-1.168-0.176-0.281-0.574-0.51-0.886-0.51-0.311 0-0.759-0.36-0.994-0.8s-0.596-0.8-0.801-0.8-0.963-0.586-1.686-1.302c-0.722-0.715-2.258-1.991-3.413-2.834s-2.1-1.697-2.1-1.898-0.276-0.366-0.613-0.366c-0.336 0-0.701-0.23-0.809-0.512s-1.369-1.407-2.803-2.5-3.335-2.663-4.224-3.488-1.775-1.5-1.97-1.5c-0.194 0-0.546-0.36-0.781-0.8s-0.652-0.8-0.925-0.8c-0.274 0-0.783-0.315-1.131-0.7-0.349-0.385-1.224-1.15-1.944-1.7s-1.677-1.405-2.127-1.9c-0.449-0.495-1.055-0.9-1.345-0.9s-0.528-0.27-0.528-0.6-0.264-0.6-0.586-0.6-0.767-0.339-0.989-0.754-0.88-0.873-1.462-1.019c-0.581-0.146-0.948-0.376-0.814-0.51 0.396-0.395-0.583-1.317-1.398-1.317-0.413 0-0.751-0.165-0.751-0.367s-0.109-0.652-0.243-1c-0.133-0.348-0.043-0.633 0.2-0.633 0.244 0 0.443 0.266 0.443 0.59 0 0.325 0.819 0.963 1.82 1.419s1.92 1.091 2.043 1.41c0.122 0.32 0.451 0.581 0.731 0.581 0.279 0 0.731 0.269 1.004 0.597 0.272 0.329 1.194 0.785 2.049 1.016 0.905 0.243 1.553 0.662 1.553 1.002 0 0.322 0.36 0.585 0.8 0.585 0.444 0 0.8 0.267 0.8 0.6s0.356 0.6 0.8 0.6c0.533 0 0.8-0.267 0.8-0.8s0.267-0.8 0.8-0.8c0.667 0 0.8-0.267 0.8-1.6s0.133-1.6 0.8-1.6c0.533 0 0.8-0.267 0.8-0.8s-0.267-0.8-0.8-0.8c-0.667 0-0.8-0.267-0.8-1.6v-1.6h2.4 2.4v-1.6c0-1.333 0.133-1.6 0.8-1.6s0.8-0.267 0.8-1.6 0.133-1.6 0.8-1.6c0.733 0 0.8-0.267 0.8-3.2v-3.2h1.6c1.333 0 1.6-0.133 1.6-0.8 0-0.533 0.267-0.8 0.8-0.8 0.667 0 0.8-0.267 0.8-1.6s0.133-1.6 0.8-1.6 0.8-0.267 0.8-1.6 0.133-1.6 0.8-1.6c0.533 0 0.8-0.267 0.8-0.8s0.267-0.8 0.8-0.8c0.667 0 0.8-0.267 0.8-1.6s0.133-1.6 0.8-1.6 0.8-0.267 0.8-1.6 0.133-1.6 0.8-1.6c0.733 0 0.8-0.267 0.8-3.2s0.067-3.2 0.8-3.2c0.667 0 0.8-0.267 0.8-1.6s0.133-1.6 0.8-1.6 0.8-0.267 0.8-1.6 0.133-1.6 0.8-1.6c0.533 0 0.8-0.267 0.8-0.8s-0.267-0.8-0.8-0.8c-0.669 0-0.8-0.267-0.8-1.628 0-2.022 1.323-2.113 2.408-0.165m-45.208 43.384c0 0.164-0.45 0.212-1 0.107s-1-0.325-1-0.489 0.45-0.212 1-0.107 1 0.325 1 0.489"
            fill="#fbe8a1" />
        <path
            d="m0 200v200h200 200v-200-200h-200-200v200m273.84-156.1c0.761 0.603 1.825 1.73 2.364 2.504l0.981 1.407 0.11 83.993c0.101 77.183 0.163 84.074 0.768 84.993 0.362 0.55 0.777 1.398 0.922 1.883 0.241 0.809 4.188 4.89 7.075 7.317 2.417 2.031 8.573 8.433 9.445 9.822l0.9 1.433 0.023 34.673c0.024 35.997 0.109 38.56 1.222 36.972 0.629-0.899 0.632-0.899 1.355-0.1 0.505 0.558 1.232 0.8 2.4 0.8s1.895 0.242 2.4 0.8 1.232 0.8 2.4 0.8 1.895 0.242 2.4 0.8c0.579 0.64 1.232 0.8 3.262 0.8 2.271 0 2.538 0.084 2.538 0.8 0 0.711 0.267 0.8 2.4 0.8 2.28 0 2.4 0.049 2.4 0.98 0 0.933-2.114 3.02-3.06 3.02-0.212 0-0.995 0.45-1.741 1-0.802 0.592-1.804 0.967-2.454 0.917-0.604-0.046-1.424 0.208-1.821 0.565-0.398 0.357-1.714 1.002-2.924 1.433-3.654 1.304-4.925 1.794-6.626 2.556-0.895 0.401-1.994 0.729-2.443 0.729-0.45 0-2.058 0.675-3.574 1.5l-2.757 1.5-75.3 0.106-75.3 0.106 2e-3 12.694c2e-3 16.536 0.302 22.284 1.068 20.462l0.544-1.294 0.919 0.863c0.627 0.589 1.43 0.863 2.531 0.863 1.104 0 1.84 0.252 2.336 0.8 0.505 0.558 1.232 0.8 2.4 0.8s1.895 0.242 2.4 0.8c0.586 0.647 1.232 0.8 3.382 0.8 1.462 0 2.829 0.162 3.038 0.359 0.472 0.446 3.354 0.902 5.9 0.934 2.117 0.027 2.766 1.553 0.78 1.835-0.554 0.079-0.9 0.405-0.9 0.851 0 0.942-0.539 1.347-3.2 2.401-2.178 0.863-4.089 1.711-6.8 3.017-0.77 0.371-3.009 1.211-4.975 1.867s-4.072 1.45-4.68 1.765c-0.608 0.314-1.552 0.571-2.098 0.571-0.652 0-1.7 0.688-3.047 2-1.129 1.1-2.21 2-2.401 2-0.602 0-2.574-0.836-2.791-1.183-0.114-0.183-1.828-1.604-3.808-3.158-1.98-1.553-3.885-3.102-4.234-3.442-0.348-0.339-0.843-0.617-1.1-0.617-0.256 0-0.466-0.175-0.466-0.39 0-0.214-0.495-0.649-1.1-0.967s-1.73-1.217-2.5-1.998-1.585-1.425-1.811-1.432-0.71-0.328-1.075-0.713-1.08-1.014-1.589-1.398c-3.683-2.78-4.725-3.652-4.725-3.956 0-0.19-0.21-0.346-0.466-0.346-0.257 0-0.752-0.267-1.1-0.593-0.349-0.327-1.804-1.532-3.234-2.678-1.43-1.147-2.744-2.32-2.92-2.607s-0.574-0.522-0.886-0.522c-0.311 0-0.759-0.36-0.994-0.8s-0.683-0.8-0.994-0.8c-0.312 0-0.71-0.229-0.886-0.51-0.176-0.28-0.77-0.807-1.32-1.17-0.875-0.578-2.799-2.221-4.834-4.127-0.348-0.326-0.843-0.593-1.1-0.593-0.256 0-0.466-0.143-0.466-0.318s-0.945-1.027-2.1-1.894c-1.155-0.868-2.19-1.697-2.3-1.844-0.11-0.146-1.288-1.139-2.617-2.205-1.33-1.067-2.68-2.165-3-2.442-0.321-0.277-1.753-1.418-3.183-2.536s-2.744-2.287-2.92-2.597-0.483-0.564-0.682-0.564-0.801-0.405-1.337-0.9-2.075-1.701-3.419-2.679l-2.443-1.779 0.1-143.22 0.101-143.22 1.4-0.2c0.77-0.11 46.276-0.154 101.12-0.097l99.726 0.103 1.384 1.097"
            fill="#fcfcfc" />
        <path
            d="m74 45.307c0 0.129 0.54 0.518 1.2 0.864s1.722 0.903 2.361 1.239c0.639 0.335 1.263 0.875 1.387 1.2 0.125 0.324 0.503 0.59 0.839 0.59 0.337 0 0.613 0.274 0.613 0.61 0 0.335 0.45 0.781 1 0.99s1 0.543 1 0.742c0 0.198 0.527 0.579 1.171 0.846s1.269 0.739 1.388 1.049c0.119 0.309 0.485 0.563 0.814 0.563 0.33 0 0.792 0.36 1.027 0.8s0.671 0.8 0.967 0.8c0.297 0 0.634 0.36 0.749 0.8 0.125 0.479 0.546 0.8 1.047 0.8 0.46 0 0.837 0.25 0.837 0.557 0 0.306 0.445 0.668 0.988 0.804 0.544 0.137 1.18 0.606 1.415 1.044 0.234 0.437 0.682 0.795 0.997 0.795s0.765 0.36 1 0.8 0.692 0.8 1.014 0.8 0.586 0.274 0.586 0.61c0 0.335 0.45 0.781 1 0.99s1 0.55 1 0.758 0.54 0.497 1.2 0.642 1.2 0.507 1.2 0.805 0.36 0.655 0.8 0.795c0.441 0.14 0.987 0.602 1.214 1.027 0.228 0.425 0.768 0.773 1.2 0.773s0.786 0.25 0.786 0.557c0 0.575 1.91 1.266 2.333 0.843 0.382-0.382-0.551-1.587-1.35-1.744-0.403-0.079-1.241-0.652-1.863-1.274-0.622-0.623-1.517-1.254-1.988-1.404-0.841-0.266-2.732-2.039-2.732-2.56 0-0.145-0.739-0.794-1.641-1.441-0.903-0.647-1.933-1.492-2.289-1.877s-0.852-0.7-1.101-0.7c-0.974 0-5.369-4.728-5.369-5.775 0-0.758-0.208-1.025-0.8-1.025-0.44 0-0.8-0.18-0.8-0.4s-0.36-0.4-0.8-0.4-0.8-0.18-0.8-0.4-0.366-0.4-0.813-0.4c-0.448 0-1.483-0.675-2.3-1.5l-1.487-1.5 5.2-0.255c5.459-0.268 17.229-0.658 34-1.127l10-0.279-8-0.071c-4.4-0.039-17.045-0.189-28.1-0.333-11.055-0.145-20.1-0.157-20.1-0.028m33.359 25.693c0.417 0.316 0.915 0.478 1.106 0.36 0.578-0.357-0.053-0.961-0.989-0.947-0.847 0.012-0.851 0.031-0.117 0.587m40.51 76.6c-0.148 22.99-0.269 62.611-0.269 88.046 0 43.814-0.038 46.296-0.716 47.2-0.394 0.525-0.937 1.404-1.208 1.954-0.27 0.55-0.93 1.72-1.465 2.6s-1.085 1.87-1.221 2.2c-0.137 0.33-0.55 1.23-0.919 2-0.698 1.457-1.45 34.908-0.803 35.748 0.151 0.196 22.635 0.2 51.8 9e-3 41.517-0.273 48.733-0.392 37.132-0.614-7.92-0.152-23-0.471-33.511-0.71-10.511-0.238-20.726-0.433-22.7-0.433h-3.589v-4c0-3.733 0.053-4 0.8-4 0.667 0 0.8-0.267 0.8-1.6s-0.133-1.6-0.8-1.6c-0.533 0-0.8-0.267-0.8-0.8s0.267-0.8 0.8-0.8c0.667 0 0.8-0.267 0.8-1.6s-0.133-1.6-0.8-1.6c-0.767 0-0.8-0.267-0.8-6.4s-0.033-6.4-0.8-6.4c-0.711 0-0.8-0.267-0.8-2.4s0.089-2.4 0.8-2.4c0.667 0 0.8-0.267 0.8-1.6s-0.133-1.6-0.8-1.6c-0.533 0-0.8-0.267-0.8-0.8s0.267-0.8 0.8-0.8c0.667 0 0.8-0.267 0.8-1.6s-0.133-1.6-0.8-1.6c-0.533 0-0.8-0.267-0.8-0.8s0.267-0.8 0.8-0.8c0.535 0 0.8-0.267 0.8-0.805 0-0.443 0.224-1.164 0.497-1.602 0.621-0.994 0.013-2.135-1.238-2.321-0.851-0.126-0.859-0.217-0.859-9.574 0-9.148-0.027-9.476-0.87-10.372l-0.869-0.926h0.869c0.748 0 0.87-0.224 0.87-1.6 0-1.333-0.133-1.6-0.8-1.6-0.754 0-0.8-0.267-0.8-4.685v-4.685l-1.683-1.715c-1.499-1.527-1.587-1.715-0.8-1.715 0.764 0 0.883-0.216 0.883-1.6 0-1.333-0.133-1.6-0.8-1.6-0.533 0-0.8-0.267-0.8-0.8s-0.267-0.8-0.8-0.8c-0.711 0-0.8-0.267-0.8-2.4s-0.089-2.4-0.8-2.4-0.8-0.267-0.8-2.4-0.089-2.4-0.8-2.4-0.8-0.267-0.8-2.4-0.089-2.4-0.8-2.4c-0.778 0-0.8-0.267-0.8-9.6s-0.022-9.6-0.8-9.6c-0.667 0-0.8-0.267-0.8-1.6s-0.133-1.6-0.8-1.6c-0.733 0-0.8-0.267-0.8-3.2s-0.067-3.2-0.8-3.2c-0.533 0-0.8-0.267-0.8-0.8s-0.267-0.8-0.8-0.8-0.8-0.267-0.8-0.8-0.267-0.8-0.8-0.8c-0.783 0-0.802-0.29-0.871-13.3-0.039-7.315-0.102-14.02-0.14-14.9-0.037-0.88-0.195-13.232-0.349-27.448-0.155-14.217-0.421-26.367-0.592-27-0.171-0.634-0.431 17.658-0.579 40.648m4.931 52.4c0 0.533-0.267 0.8-0.8 0.8s-0.8-0.267-0.8-0.8 0.267-0.8 0.8-0.8 0.8 0.267 0.8 0.8"
            fill="#eec44d" />
        <path
            d="m71.6 42.8l-1.4 0.2-0.101 143.22-0.1 143.22 2.443 1.779c1.344 0.978 2.883 2.184 3.419 2.679s1.138 0.9 1.337 0.9 0.506 0.254 0.682 0.564 1.49 1.479 2.92 2.597 2.862 2.259 3.183 2.536c0.32 0.277 1.67 1.375 3 2.442 1.329 1.066 2.507 2.059 2.617 2.205 0.11 0.147 1.145 0.976 2.3 1.844 1.155 0.867 2.1 1.719 2.1 1.894s0.21 0.318 0.466 0.318c0.257 0 0.752 0.267 1.1 0.593 2.035 1.906 3.959 3.549 4.834 4.127 0.55 0.363 1.144 0.89 1.32 1.17 0.176 0.281 0.574 0.51 0.886 0.51 0.311 0 0.759 0.36 0.994 0.8s0.683 0.8 0.994 0.8c0.312 0 0.71 0.235 0.886 0.522s1.49 1.46 2.92 2.607c1.43 1.146 2.885 2.351 3.234 2.678 0.348 0.326 0.843 0.593 1.1 0.593 0.256 0 0.466 0.156 0.466 0.346 0 0.304 1.042 1.176 4.725 3.956 0.509 0.384 1.224 1.013 1.589 1.398s0.849 0.706 1.075 0.713 1.041 0.651 1.811 1.432 1.895 1.68 2.5 1.998 1.1 0.753 1.1 0.967c0 0.215 0.21 0.39 0.466 0.39 0.257 0 0.752 0.278 1.1 0.617 0.349 0.34 2.254 1.889 4.234 3.442 1.98 1.554 3.694 2.975 3.808 3.158 0.217 0.347 2.189 1.183 2.791 1.183 0.191 0 1.272-0.9 2.401-2 1.347-1.312 2.395-2 3.047-2 0.546 0 1.49-0.257 2.098-0.571 0.608-0.315 2.714-1.109 4.68-1.765s4.205-1.496 4.975-1.867c2.711-1.306 4.622-2.154 6.8-3.017 2.661-1.054 3.2-1.459 3.2-2.401 0-0.446 0.346-0.772 0.9-0.851 1.986-0.282 1.337-1.808-0.78-1.835-2.546-0.032-5.428-0.488-5.9-0.934-0.209-0.197-1.576-0.359-3.038-0.359-2.15 0-2.796-0.153-3.382-0.8-0.505-0.558-1.232-0.8-2.4-0.8s-1.895-0.242-2.4-0.8c-0.496-0.548-1.232-0.8-2.336-0.8-1.101 0-1.904-0.274-2.531-0.863l-0.919-0.863-0.544 1.294c-0.766 1.822-1.066-3.926-1.068-20.462l-2e-3 -12.694 75.3-0.106 75.3-0.106 2.757-1.5c1.516-0.825 3.124-1.5 3.574-1.5 0.449 0 1.548-0.328 2.443-0.729 1.701-0.762 2.972-1.252 6.626-2.556 1.21-0.431 2.526-1.076 2.924-1.433 0.397-0.357 1.217-0.611 1.821-0.565 0.65 0.05 1.652-0.325 2.454-0.917 0.746-0.55 1.529-1 1.741-1 0.946 0 3.06-2.087 3.06-3.02 0-0.931-0.12-0.98-2.4-0.98-2.133 0-2.4-0.089-2.4-0.8 0-0.716-0.267-0.8-2.538-0.8-2.03 0-2.683-0.16-3.262-0.8-0.505-0.558-1.232-0.8-2.4-0.8s-1.895-0.242-2.4-0.8-1.232-0.8-2.4-0.8-1.895-0.242-2.4-0.8c-0.723-0.799-0.726-0.799-1.355 0.1-1.113 1.588-1.198-0.975-1.222-36.972l-0.023-34.673-0.9-1.433c-0.872-1.389-7.028-7.791-9.445-9.822-2.887-2.427-6.834-6.508-7.075-7.317-0.145-0.485-0.56-1.333-0.922-1.883-0.605-0.919-0.667-7.81-0.768-84.993l-0.11-83.993-0.981-1.407c-0.539-0.774-1.603-1.901-2.364-2.504l-1.384-1.097-99.726-0.103c-54.849-0.057-100.36-0.013-101.12 0.097m200.81 1.356c1.02 0.543 2.353 1.746 3.089 2.789l1.296 1.833 0.104 84.111 0.105 84.111 1.091 1.8c0.601 0.99 4.438 5.025 8.527 8.967 10.164 9.799 8.902 2.391 9.02 52.928l0.1 42.849-1.061 1.39c-0.583 0.765-1.739 1.812-2.568 2.328l-1.509 0.938-74.8 0.2-74.8 0.2-0.087 24.2c-0.047 13.31-0.092 24.861-0.1 25.669-0.035 3.876-2.597 4.472-6.343 1.475-1.248-0.999-8.21-6.559-15.47-12.356-18.674-14.909-43.49-34.824-44.2-35.47-0.33-0.3-1.455-1.194-2.5-1.985l-1.9-1.44v-142.27c0-110.12 0.108-142.37 0.48-142.75 0.371-0.371 23.152-0.48 100.11-0.48h99.626l1.794 0.956"
            fill="#f4f4f4" />
    </g>
</svg>