<?xml version="1.0" encoding="UTF-8"?>
<svg xmlns="http://www.w3.org/2000/svg" xmlns:xlink="http://www.w3.org/1999/xlink" width="32pt" height="32pt" viewBox="0 0 32 32" version="1.0">
    <g id="surface1">
        <path style=" stroke:none;fill-rule:evenodd;fill:rgb(82.745098%,92.941176%,96.470588%);fill-opacity:1;" d="M 5.757812 30.527344 C 5.761719 30.613281 5.722656 30.632812 5.65625 30.585938 C 5.515625 30.488281 5.363281 30.402344 5.25 30.277344 C 4.6875 29.660156 4.28125 28.949219 4.089844 28.128906 C 4.011719 27.792969 4.003906 27.460938 4.03125 27.113281 C 4.078125 26.449219 4.03125 25.789062 3.851562 25.144531 C 3.839844 25.101562 3.8125 25.0625 3.765625 24.964844 L 3.425781 25.378906 L 3.386719 25.355469 C 3.394531 24.402344 3.363281 23.449219 3.191406 22.496094 L 2.816406 23.382812 L 2.753906 23.375 C 2.726562 23.230469 2.695312 23.089844 2.671875 22.945312 C 2.527344 22.109375 2.503906 21.261719 2.550781 20.421875 C 2.625 19.117188 2.839844 17.839844 3.445312 16.660156 C 3.617188 16.332031 3.824219 16.019531 4.097656 15.738281 C 3.957031 15.78125 3.816406 15.816406 3.675781 15.867188 C 3.53125 15.917969 3.390625 15.984375 3.21875 16.054688 C 3.398438 15.582031 3.640625 15.164062 3.953125 14.792969 C 4.261719 14.429688 4.589844 14.078125 4.921875 13.710938 L 4.152344 13.421875 L 4.097656 13.371094 C 4.148438 13.34375 4.207031 13.320312 4.253906 13.285156 C 5.007812 12.714844 5.871094 12.386719 6.777344 12.160156 C 7.066406 12.089844 7.015625 12.144531 7.035156 11.839844 C 7.070312 11.355469 7.121094 10.867188 7.167969 10.378906 L 7.210938 10.375 L 7.875 11.636719 C 7.800781 9.703125 7.941406 7.800781 8.472656 5.941406 L 8.519531 5.9375 C 8.523438 6 8.53125 6.0625 8.527344 6.125 C 8.511719 6.535156 8.554688 6.933594 8.714844 7.3125 C 8.828125 7.574219 8.996094 7.792969 9.265625 7.957031 C 9.378906 6.816406 9.683594 5.738281 10.042969 4.640625 L 10.582031 5.246094 C 12.179688 9.117188 10.898438 13.585938 7.488281 16.019531 C 4.078125 18.453125 -0.5625 18.210938 -3.703125 15.4375 C -6.847656 12.664062 -7.660156 8.089844 -5.667969 4.402344 C -3.675781 0.71875 0.597656 -1.109375 4.640625 0 L 5.40625 0.976562 L 5.859375 -1.171875 L 6.183594 -0.464844 C 6.160156 0.65625 6.707031 1.519531 7.480469 2.300781 L 6.625 2.730469 C 7.519531 2.660156 8.164062 2.351562 8.621094 1.78125 C 8.753906 1.570312 8.910156 1.367188 9.019531 1.144531 C 9.183594 0.808594 9.171875 0.796875 8.863281 0.589844 C 8.042969 0.0390625 7.484375 -0.707031 7.191406 -1.652344 C 7.542969 -2.101562 8.03125 -2.339844 8.539062 -2.519531 L 8.601562 -1.507812 C 8.738281 -1.582031 8.835938 -1.628906 8.933594 -1.683594 C 9.777344 -2.148438 10.675781 -2.460938 11.621094 -2.648438 C 11.804688 -2.683594 11.988281 -2.707031 12.171875 -2.734375 C 12.191406 -2.738281 12.214844 -2.71875 12.238281 -2.710938 L 17.8125 1.046875 C 17.492188 1.304688 17.234375 1.621094 17.011719 1.964844 L 16.980469 1.996094 L 16.980469 2.027344 C 16.949219 2.058594 16.90625 2.085938 16.886719 2.125 C 16.71875 2.441406 16.542969 2.753906 16.390625 3.074219 C 16.300781 3.261719 16.25 3.464844 16.175781 3.671875 L 17.597656 3.808594 L 17.621094 3.859375 C 16.601562 4.777344 15.578125 5.695312 14.632812 6.726562 L 15.648438 6.867188 C 15.359375 6.984375 15.101562 7.074219 14.855469 7.195312 C 14.144531 7.542969 13.480469 7.953125 13 8.609375 C 12.628906 9.117188 12.242188 9.613281 11.859375 10.117188 C 11.5625 9.816406 11.265625 9.519531 10.96875 9.21875 L 10.742188 10.261719 L 11.375 10.832031 C 11.339844 10.894531 11.304688 10.960938 11.273438 11.023438 C 11.074219 11.441406 10.859375 11.847656 10.6875 12.273438 C 10.503906 12.71875 10.464844 13.195312 10.429688 13.667969 C 10.390625 14.214844 10.328125 14.761719 10.3125 15.304688 C 10.292969 15.96875 10.289062 16.632812 10.398438 17.289062 C 10.5 17.867188 10.574219 18.453125 10.6875 19.027344 C 10.761719 19.382812 10.886719 19.726562 10.988281 20.074219 L 11.03125 20.066406 L 11.453125 19.21875 L 11.496094 19.230469 C 11.648438 19.960938 11.867188 20.671875 12.179688 21.351562 C 12.488281 22.027344 12.84375 22.675781 13.40625 23.199219 L 13.40625 22.304688 L 13.46875 22.304688 C 13.582031 22.363281 13.699219 22.425781 13.8125 22.488281 C 6.59375 26.863281 -2.605469 26.164062 -9.078125 20.746094 C -15.546875 15.332031 -17.855469 6.398438 -14.816406 -1.476562 C -11.78125 -9.351562 -4.070312 -14.417969 4.363281 -14.085938 C 12.796875 -13.75 20.082031 -8.089844 22.488281 0 C 23.507812 0.40625 24.523438 0.828125 25.496094 1.347656 C 25.796875 1.507812 26.097656 1.679688 26.359375 1.894531 C 26.953125 2.382812 27.527344 2.898438 28.105469 3.40625 L 28.058594 3.519531 C 27.867188 3.898438 27.675781 4.277344 27.488281 4.660156 C 27.320312 4.996094 27.164062 5.335938 27 5.675781 L 26.957031 5.671875 L 26.957031 4.496094 C 26.890625 4.644531 26.867188 4.796875 26.824219 4.945312 C -5.726562 89.734375 -100.5625 132.40625 -185.605469 100.53125 C -270.652344 68.65625 -314.074219 -25.839844 -282.878906 -111.132812 C -251.679688 -196.429688 -157.535156 -240.605469 -71.996094 -210.085938 C 13.546875 -179.570312 58.46875 -85.78125 28.632812 0 C 28.582031 0.179688 28.453125 0.285156 28.273438 0.355469 C 28.066406 0.441406 27.871094 0.414062 27.667969 0.351562 L 27.671875 0.351562 L 27.613281 0.324219 C 27.308594 0.0976562 27.003906 -0.128906 26.699219 -0.355469 C 26.621094 -0.414062 26.539062 -0.464844 26.460938 -0.519531 L 26.574219 0.605469 L 26.515625 0.636719 C 25.269531 -0.378906 23.746094 -0.882812 22.367188 -1.648438 C 21.917969 -1.933594 21.464844 -2.21875 21.019531 -2.507812 C 20.902344 -2.582031 20.792969 -2.675781 20.652344 -2.78125 L 20.71875 -2.230469 L 20.683594 -2.203125 L 19.40625 -3.078125 C 19.429688 -3.253906 19.460938 -3.425781 19.472656 -3.601562 C 19.488281 -3.917969 19.527344 -4.242188 19.492188 -4.554688 C 19.402344 -5.3125 19.011719 -5.894531 18.382812 -6.324219 C 20.234375 -9.953125 24.398438 -11.757812 28.3125 -10.628906 C 32.226562 -9.5 34.789062 -5.753906 34.425781 -1.699219 C 34.0625 2.359375 30.871094 5.589844 26.820312 6.003906 C 22.769531 6.417969 18.992188 3.898438 17.816406 0 C 17.6875 -0.109375 17.585938 -0.257812 17.558594 -0.417969 L 18.289062 -0.351562 C 18.070312 -0.757812 17.855469 -1.117188 17.683594 -1.5 C 17.511719 -1.878906 17.347656 -2.273438 17.367188 -2.753906 C 17.496094 -2.578125 17.578125 -2.417969 17.769531 -2.339844 C 17.703125 -2.984375 17.796875 -3.589844 17.902344 -4.195312 C 18.007812 -4.796875 18.152344 -5.394531 18.277344 -5.992188 C 17.835938 -5.214844 17.382812 -4.441406 17.246094 -3.503906 L 16.878906 -3.890625 C 16.863281 -3.65625 16.832031 -3.445312 16.835938 -3.234375 C 16.847656 -2.765625 16.863281 -2.292969 16.898438 -1.824219 C 16.9375 -1.289062 17.082031 -0.777344 17.292969 -0.285156 C 17.535156 0.277344 17.949219 0.714844 18.328125 1.179688 C 18.574219 1.472656 18.78125 1.789062 18.835938 2.175781 C 18.898438 2.59375 18.9375 3.015625 18.984375 3.4375 L 19.082031 4.859375 C 18.804688 4.914062 18.027344 4.726562 17.863281 4.550781 L 17.992188 4.480469 C 17.855469 4.359375 17.699219 4.253906 17.582031 4.117188 C 17.402344 3.910156 17.367188 3.640625 17.328125 3.378906 C 17.316406 3.3125 17.261719 3.25 17.226562 3.1875 C 17.160156 3.246094 17.078125 3.292969 17.039062 3.367188 C 17.007812 3.429688 17.015625 3.523438 17.03125 3.59375 C 17.0625 3.730469 17.105469 3.867188 17.160156 3.992188 C 17.332031 4.378906 17.515625 4.753906 17.683594 5.140625 C 17.890625 5.609375 18.058594 6.09375 18.046875 6.621094 C 18.042969 6.773438 18.011719 6.804688 17.871094 6.746094 C 16.445312 9.46875 13.367188 10.894531 10.367188 10.21875 C 7.367188 9.542969 5.199219 6.933594 5.078125 3.863281 C 4.960938 0.789062 6.921875 -1.980469 9.859375 -2.882812 C 12.800781 -3.789062 15.980469 -2.605469 17.609375 0 C 17.464844 -0.0742188 17.328125 -0.164062 17.171875 -0.257812 L 17.171875 -0.0898438 L 17.160156 -0.078125 C 17.113281 -0.101562 17.0625 -0.117188 17.023438 -0.148438 C 16.863281 -0.28125 16.703125 -0.417969 16.542969 -0.554688 L 16.511719 -0.617188 L 16.226562 -1.332031 L 16.199219 -1.226562 L 16.152344 -1.128906 C 15.9375 -1.523438 15.824219 -1.921875 15.765625 -2.335938 C 15.660156 -1.980469 15.773438 -1.640625 15.820312 -1.277344 L 15.914062 -1.378906 C 15.996094 -1.214844 16.066406 -1.054688 16.152344 -0.902344 C 16.238281 -0.75 16.335938 -0.601562 16.4375 -0.460938 C 16.488281 -0.390625 16.566406 -0.335938 16.632812 -0.273438 C 16.78125 0.109375 16.9375 0.488281 17.015625 0.933594 L 16.195312 0.691406 C 15.863281 0.542969 15.527344 0.410156 15.261719 0.148438 C 15.246094 0.136719 15.222656 0.136719 15.203125 0.132812 L 15.191406 0.0898438 L 15.179688 0.0976562 L 15.203125 0.132812 L 15.476562 0.699219 L 15.457031 0.738281 L 15.03125 0.589844 L 14.765625 0.507812 L 14.753906 0.5 L 14.765625 0.507812 Z M 6.089844 30.015625 L 5.769531 29.242188 L 5.664062 29.3125 L 5.449219 28.304688 C 5.242188 28.699219 5.648438 29.824219 6.089844 30.015625 Z M 9.613281 17.4375 L 9.609375 17.421875 L 9.597656 17.425781 L 9.605469 17.441406 Z M 9.613281 17.4375 " />
        <path style=" stroke:none;fill-rule:evenodd;fill:rgb(91.372549%,96.078431%,98.039216%);fill-opacity:1;" d="M 21.878906 27.074219 C 21.296875 26.570312 20.726562 26.054688 20.132812 25.566406 C 19.871094 25.351562 19.566406 25.179688 19.269531 25.015625 C 18.296875 24.496094 17.28125 24.078125 16.261719 23.671875 C 11.507812 30.699219 2.789062 33.898438 -5.382812 31.617188 C -13.554688 29.335938 -19.351562 22.078125 -19.777344 13.605469 C -20.199219 5.128906 -15.152344 -2.667969 -7.246094 -5.753906 C 0.65625 -8.839844 9.648438 -6.519531 15.082031 0 C 14.96875 -0.0625 14.851562 -0.125 14.738281 -0.183594 L 14.675781 -0.183594 L 14.675781 0.710938 C 14.113281 0.1875 13.757812 -0.460938 13.445312 -1.136719 C 13.136719 -1.816406 12.917969 -2.527344 12.765625 -3.257812 L 12.722656 -3.269531 L 12.300781 -2.421875 L 12.257812 -2.414062 C 12.15625 -2.761719 12.027344 -3.105469 11.957031 -3.460938 C 11.84375 -4.035156 11.765625 -4.621094 11.667969 -5.199219 C 11.558594 -5.855469 11.5625 -6.519531 11.582031 -7.183594 C 11.597656 -7.726562 11.660156 -8.273438 11.699219 -8.820312 C 11.734375 -9.292969 11.773438 -9.769531 11.957031 -10.214844 C 12.128906 -10.640625 12.34375 -11.046875 12.542969 -11.464844 C 12.574219 -11.53125 12.609375 -11.59375 12.644531 -11.65625 L 12.707031 -11.609375 C 13.101562 -11.285156 13.503906 -10.964844 13.890625 -10.628906 C 13.964844 -10.5625 14.019531 -10.449219 14.035156 -10.351562 C 14.066406 -10.164062 14.0625 -9.96875 14.070312 -9.777344 C 14.082031 -9.457031 14.164062 -9.320312 14.46875 -9.222656 C 15.503906 -8.890625 16.5625 -8.703125 17.65625 -8.832031 C 17.960938 -8.867188 18.21875 -8.980469 18.394531 -9.238281 C 26.96875 -3.96875 29.949219 7.066406 25.195312 15.933594 C 20.4375 24.796875 9.597656 28.421875 0.46875 24.199219 C -8.664062 19.972656 -12.917969 9.363281 -9.238281 0 C -9.070312 -0.265625 -9.023438 -0.285156 -8.714844 -0.238281 C -8.578125 -0.214844 -8.535156 -0.152344 -8.535156 -0.0234375 C -8.542969 0.175781 -8.539062 0.371094 -8.539062 0.566406 C -8.542969 1.007812 -8.304688 1.257812 -7.902344 1.351562 C -7.558594 1.429688 -7.210938 1.488281 -6.859375 1.519531 C -6.417969 1.5625 -5.96875 1.601562 -5.535156 1.4375 C -5.640625 1.710938 -5.746094 1.984375 -5.851562 2.257812 C -5.898438 2.378906 -5.941406 2.503906 -6.003906 2.617188 C -6.089844 2.78125 -6.121094 2.929688 -5.941406 3.054688 L -5.910156 3.089844 L -5.824219 3.25 C -5.625 3.660156 -5.402344 4.058594 -5.230469 4.480469 C -4.957031 5.140625 -4.863281 5.84375 -4.84375 6.558594 C -4.8125 7.394531 -4.972656 8.199219 -5.289062 8.96875 C -5.378906 9.195312 -5.460938 9.441406 -5.617188 9.621094 C -6.3125 10.421875 -7.195312 10.785156 -8.261719 10.675781 L -8.570312 10.636719 C -11.507812 5.324219 -9.582031 -1.363281 -4.265625 -4.304688 C 1.046875 -7.242188 7.738281 -5.3125 10.675781 0 C 11.390625 0.417969 12.109375 0.835938 12.828125 1.25 C 12.867188 1.273438 12.910156 1.285156 12.953125 1.300781 C 13.085938 1.417969 13.222656 1.535156 13.355469 1.652344 L 13.988281 2.226562 L 14.039062 2.257812 C 14.253906 2.074219 14.460938 1.886719 14.675781 1.710938 C 15.3125 1.191406 16.015625 0.78125 16.765625 0.441406 C 17.3125 0.195312 17.839844 -0.09375 18.375 -0.367188 C 18.40625 -0.382812 18.441406 -0.398438 18.515625 -0.394531 L 18.324219 0.339844 L 18.285156 0.488281 L 18.269531 0.492188 L 18.277344 0.5 L 18.285156 0.488281 C 18.53125 0.367188 18.789062 0.265625 19.027344 0.128906 C 19.226562 0.015625 19.402344 -0.132812 19.589844 -0.261719 C 19.554688 -0.183594 19.527344 -0.0976562 19.484375 -0.0234375 C 19.160156 0.539062 18.726562 1.015625 18.253906 1.457031 C 18.121094 1.582031 17.976562 1.695312 17.816406 1.832031 L 17.859375 1.117188 C 17.167969 1.695312 16.585938 2.3125 16.027344 2.949219 L 15.984375 2.933594 L 15.925781 2.097656 C 15.316406 2.648438 14.714844 3.164062 14.234375 3.800781 Z M 13.667969 14.355469 C 13.675781 14.441406 13.675781 14.503906 13.691406 14.5625 C 13.773438 14.992188 14.019531 15.320312 14.355469 15.582031 C 15.050781 16.125 15.863281 16.382812 16.714844 16.523438 C 17.484375 16.652344 18.261719 16.597656 19.035156 16.578125 C 19.070312 16.578125 19.101562 16.566406 19.171875 16.554688 L 18.992188 16.183594 C 18.902344 16 18.8125 15.820312 18.726562 15.636719 C 18.667969 15.503906 18.707031 15.414062 18.835938 15.324219 C 19.101562 15.140625 19.351562 14.9375 19.621094 14.734375 C 15.550781 14.804688 12.195312 11.5625 12.125 7.496094 C 12.054688 3.425781 15.292969 0.0703125 19.359375 0 C 18.699219 -0.0507812 18.035156 -0.101562 17.371094 -0.113281 C 16.277344 -0.132812 15.179688 -0.117188 14.058594 -0.117188 Z M 17.152344 18.871094 L 17.214844 18.859375 C 17.304688 18.679688 17.402344 18.503906 17.476562 18.320312 C 17.570312 18.089844 17.65625 17.875 17.910156 17.773438 C 18.050781 17.71875 18.175781 17.632812 18.308594 17.5625 L 18.296875 17.511719 C 17.144531 17.585938 16.019531 17.457031 14.886719 17.09375 C 14.914062 17.578125 15.039062 17.988281 15.242188 18.402344 L 15.679688 17.917969 C 15.816406 18.289062 15.910156 18.648438 16.1875 18.964844 L 16.722656 18.171875 Z M 18.179688 23.1875 L 18.175781 23.179688 L 18.164062 23.175781 L 18.167969 23.191406 Z M 11.863281 10.117188 C 12.242188 9.613281 12.628906 9.117188 13 8.609375 C 13.480469 7.953125 14.144531 7.542969 14.855469 7.195312 C 15.101562 7.074219 15.359375 6.984375 15.648438 6.867188 L 14.632812 6.726562 C 15.582031 5.695312 16.601562 4.78125 17.621094 3.863281 L 17.597656 3.808594 L 16.175781 3.671875 C 16.25 3.464844 16.304688 3.261719 16.390625 3.074219 C 16.546875 2.753906 16.71875 2.441406 16.886719 2.125 C 16.90625 2.089844 16.949219 2.058594 16.980469 2.027344 C 17.035156 2.046875 17.085938 2.078125 17.140625 2.089844 C 17.910156 2.253906 18.679688 2.417969 19.449219 2.585938 C 19.660156 2.632812 19.664062 2.632812 19.664062 2.40625 L 19.664062 1.25 C 19.917969 1.179688 20.167969 1.097656 20.425781 1.042969 C 49.808594 7.675781 69.214844 35.707031 65.074219 65.546875 C 60.933594 95.382812 34.628906 117.074219 4.550781 115.457031 C -25.527344 113.839844 -49.355469 89.449219 -50.269531 59.339844 C -51.183594 29.234375 -28.882812 3.441406 1.042969 0 C 1.339844 -0.0546875 1.644531 -0.0703125 1.972656 -0.109375 L 1.339844 0.984375 L 1.375 1.007812 C 1.644531 0.929688 1.910156 0.835938 2.183594 0.773438 C 2.457031 0.714844 2.738281 0.6875 3.042969 0.640625 L 3.042969 1.085938 C 3.792969 0.992188 4.515625 1.007812 5.257812 1.148438 C 5.210938 1.246094 5.171875 1.324219 5.132812 1.402344 C 5.007812 1.675781 4.882812 1.949219 4.753906 2.21875 C 4.703125 2.335938 4.726562 2.398438 4.855469 2.4375 C 5.160156 2.523438 5.460938 2.621094 5.761719 2.714844 C 5.820312 2.734375 5.875 2.757812 5.957031 2.789062 C 5.824219 2.949219 5.703125 3.089844 5.589844 3.242188 C 5.269531 3.664062 4.953125 4.09375 4.636719 4.519531 C 4.617188 4.542969 4.613281 4.578125 4.605469 4.605469 L 3.96875 5.601562 C 3.773438 5.929688 3.578125 6.261719 3.386719 6.59375 C 3.371094 6.617188 3.382812 6.65625 3.378906 6.6875 C 3.285156 6.824219 3.175781 6.957031 3.097656 7.105469 C 2.726562 7.800781 2.351562 8.496094 2.003906 9.199219 C 1.660156 9.890625 1.34375 10.597656 1.015625 11.296875 C 0.996094 11.335938 0.992188 11.382812 0.980469 11.429688 L -0.601562 11.105469 C -0.773438 10.871094 -1.03125 10.847656 -1.226562 11.054688 C -1.667969 11.070312 -2.105469 11.089844 -2.546875 11.09375 C -2.773438 11.09375 -3.003906 11.089844 -3.226562 11.042969 C -3.902344 10.894531 -4.574219 10.722656 -5.25 10.558594 C -5.359375 10.289062 -5.746094 10.246094 -5.9375 10.417969 L -5.984375 10.414062 C -6.820312 10.273438 -7.660156 10.175781 -8.511719 10.210938 C -8.550781 10.210938 -8.601562 10.183594 -8.628906 10.15625 C -8.859375 9.914062 -9.082031 9.671875 -9.308594 9.425781 Z M 14.738281 10.601562 L 14.820312 10.566406 C 15.179688 10.378906 15.550781 10.265625 15.964844 10.347656 C 16.042969 10.363281 16.125 10.371094 16.222656 10.378906 C 15.980469 10.011719 15.371094 9.980469 15.035156 10.199219 C 14.886719 10.292969 14.746094 10.402344 14.738281 10.601562 L 14.730469 10.617188 Z M 16.285156 9.777344 C 16.140625 9.429688 15.683594 9.257812 15.273438 9.367188 C 14.929688 9.464844 14.605469 9.832031 14.640625 10.117188 C 15.101562 9.597656 15.65625 9.554688 16.285156 9.777344 Z M 20.804688 10.4375 C 21.25 10.480469 21.636719 10.628906 21.914062 11.019531 C 21.933594 10.695312 21.808594 10.503906 21.542969 10.359375 C 21.296875 10.226562 21 10.265625 20.804688 10.4375 Z M 21.589844 11.683594 C 21.554688 11.324219 21.441406 11.03125 21.078125 10.929688 C 20.894531 10.875 20.707031 10.90625 20.550781 11.054688 C 21.023438 11.183594 21.1875 11.199219 21.589844 11.683594 Z M 21.589844 11.683594 " />
        <path style=" stroke:none;fill-rule:evenodd;fill:rgb(70.196078%,87.843137%,93.333333%);fill-opacity:1;" d="M 21.976562 19.121094 C 21.957031 18.410156 21.863281 17.707031 21.589844 17.042969 C 21.417969 16.625 21.195312 16.222656 20.996094 15.816406 L 20.910156 15.652344 C 21.0625 15.699219 21.214844 15.75 21.371094 15.789062 C 21.59375 15.851562 21.816406 15.917969 22.046875 15.953125 C 22.167969 15.972656 22.300781 15.929688 22.425781 15.910156 C 22.476562 15.902344 22.523438 15.886719 22.601562 15.867188 L 22.539062 16.171875 C 23.046875 15.933594 23.417969 15.570312 23.71875 15.140625 C 24.015625 14.714844 24.269531 14.261719 24.535156 13.828125 L 24.65625 14.027344 C 24.871094 13.691406 24.722656 12.695312 24.367188 12.101562 C 24.457031 12.101562 24.53125 12.097656 24.605469 12.101562 C 25.074219 12.140625 25.550781 12.136719 25.976562 12.386719 C 26.3125 12.585938 26.550781 12.867188 26.710938 13.238281 L 26.355469 13.21875 C 26.710938 13.796875 26.847656 14.394531 26.792969 15.082031 L 26.515625 14.863281 C 26.503906 14.925781 26.492188 14.996094 26.476562 15.058594 C 26.421875 15.253906 26.359375 15.445312 26.304688 15.640625 C 26.292969 15.695312 26.296875 15.75 26.292969 15.804688 C 26.347656 15.804688 26.414062 15.824219 26.464844 15.804688 C 26.757812 15.703125 27.046875 15.589844 27.335938 15.480469 C 27.460938 15.433594 27.582031 15.394531 27.703125 15.34375 C 27.828125 15.292969 27.875 15.339844 27.867188 15.464844 C 27.539062 15.582031 27.207031 15.695312 26.878906 15.8125 C 26.835938 15.828125 26.796875 15.851562 26.757812 15.871094 C 27.175781 15.828125 27.339844 15.847656 27.554688 15.996094 C 27.707031 16.105469 27.730469 16.242188 27.59375 16.371094 C 27.484375 16.472656 27.359375 16.554688 27.234375 16.636719 C 27.160156 16.6875 27.074219 16.722656 26.972656 16.777344 L 27.117188 16.832031 C 26.886719 16.980469 26.671875 17.109375 26.46875 17.257812 C 26.21875 17.445312 25.96875 17.640625 25.746094 17.859375 C 25.566406 18.035156 25.621094 18.15625 25.871094 18.175781 C 26.171875 18.199219 26.480469 18.199219 26.785156 18.210938 L 26.980469 18.210938 L 26.835938 18.398438 L 26.828125 18.410156 L 26.835938 18.398438 C 26.949219 18.398438 27.066406 18.410156 27.175781 18.394531 C 27.246094 18.382812 27.347656 18.351562 27.371094 18.296875 C 27.429688 18.183594 27.523438 18.167969 27.625 18.148438 C 27.820312 18.113281 28.019531 18.078125 28.214844 18.035156 C 28.371094 18 28.527344 17.949219 28.679688 17.90625 L 28.703125 17.9375 L 28.355469 18.261719 L 28.304688 18.070312 C 27.753906 18.324219 27.210938 18.554688 26.6875 18.824219 C 26.433594 18.953125 26.222656 19.160156 25.992188 19.332031 L 25.980469 19.347656 L 25.992188 19.335938 L 26.140625 19.34375 L 25.5625 19.832031 C 25.65625 19.914062 25.730469 20.019531 25.828125 20.054688 C 26.015625 20.121094 26.214844 20.175781 26.414062 20.191406 C 26.710938 20.210938 27.011719 20.195312 27.308594 20.191406 L 27.316406 20.128906 L 27.082031 20.03125 L 28.277344 19.886719 C 27.460938 20.386719 26.523438 20.335938 25.621094 20.488281 C 25.625 20.730469 25.828125 20.84375 25.957031 21.011719 L 25.863281 21.09375 L 26.144531 21.328125 C 26.199219 21.414062 26.148438 21.421875 26.078125 21.421875 C 25.558594 21.449219 25.054688 21.363281 24.574219 21.175781 C 24.28125 21.0625 24 20.917969 23.710938 20.785156 C 23.683594 20.773438 23.652344 20.773438 23.625 20.765625 L 23.617188 20.753906 L 23.609375 20.753906 L 23.621094 20.769531 L 23.746094 21.046875 C 23.582031 21.015625 23.417969 20.96875 23.25 20.957031 C 22.863281 20.933594 22.496094 21.039062 22.136719 21.167969 L 22.007812 21.207031 C 22.015625 21.074219 22.035156 20.941406 22.035156 20.808594 C 22.035156 20.265625 22.03125 19.722656 22.027344 19.183594 C 22.027344 19.164062 21.996094 19.140625 21.976562 19.121094 Z M 21.976562 19.121094 " />
        <path style=" stroke:none;fill-rule:evenodd;fill:rgb(39.607843%,75.686275%,86.666667%);fill-opacity:1;" d="M 21.878906 27.074219 C 22.363281 26.4375 22.964844 25.921875 23.574219 25.375 L 23.632812 26.210938 L 23.671875 26.222656 C 24.234375 25.585938 24.8125 24.96875 25.503906 24.394531 L 25.464844 25.105469 C 25.621094 24.972656 25.765625 24.859375 25.902344 24.730469 C 26.375 24.289062 26.804688 23.816406 27.128906 23.25 C 27.171875 23.175781 27.203125 23.09375 27.238281 23.011719 L 27.269531 23.011719 L 27.273438 23.015625 C 27.167969 23.355469 27.078125 23.699219 26.957031 24.035156 C 26.699219 24.769531 26.210938 25.367188 25.792969 26.007812 C 25.371094 26.652344 24.984375 27.324219 24.585938 27.984375 C 24.554688 28.035156 24.542969 28.097656 24.527344 28.15625 L 24.511719 28.175781 L 24.53125 28.160156 C 24.714844 28.066406 24.894531 27.96875 25.078125 27.875 C 25.25 27.789062 25.417969 27.707031 25.617188 27.648438 L 25.492188 27.882812 C 25.054688 28.726562 24.621094 29.570312 24.175781 30.410156 C 24 30.746094 23.804688 31.070312 23.601562 31.390625 C 23.566406 31.445312 23.472656 31.492188 23.40625 31.492188 C 22.515625 31.5 21.628906 31.480469 20.742188 31.5 C 20.097656 31.511719 19.609375 31.210938 19.152344 30.816406 L 19.132812 30.777344 C 19.332031 30.839844 19.527344 30.867188 19.734375 30.785156 C 19.914062 30.714844 20.042969 30.609375 20.097656 30.425781 C -15.53125 108.726562 -106.300781 145.328125 -186.277344 113.644531 C -266.253906 81.964844 -307.332031 -6.867188 -279.675781 -88.324219 C -252.019531 -169.777344 -165.34375 -215.234375 -82.609375 -191.671875 C 0.121094 -168.105469 49.839844 -83.804688 30.425781 0 C 30.46875 -0.148438 30.496094 -0.300781 30.5625 -0.453125 L 30.5625 0.722656 L 30.601562 0.730469 C 30.765625 0.390625 30.925781 0.0507812 31.089844 -0.289062 C 31.277344 -0.667969 31.472656 -1.046875 31.660156 -1.429688 L 31.710938 -1.542969 Z M 21.878906 27.074219 " />
        <path style=" stroke:none;fill-rule:evenodd;fill:rgb(39.607843%,76.078431%,86.666667%);fill-opacity:1;" d="M 10.871094 27.347656 L 12.144531 28.222656 L 12.183594 28.199219 L 12.113281 27.644531 C 12.253906 27.75 12.363281 27.84375 12.480469 27.921875 C 12.929688 28.210938 13.378906 28.492188 13.828125 28.777344 L 12.875 29.039062 C 13.988281 29.515625 14.988281 30.1875 15.472656 31.457031 C 15.144531 31.480469 14.847656 31.503906 14.546875 31.519531 C 13.902344 31.546875 13.261719 31.574219 12.617188 31.589844 C 11.6875 31.617188 10.757812 31.632812 9.828125 31.65625 C 9.558594 31.664062 9.289062 31.667969 9.019531 31.679688 C 8.589844 31.695312 8.253906 31.53125 8.007812 31.179688 C 7.976562 31.136719 7.941406 31.097656 7.902344 31.046875 L 7.605469 31.253906 C 7.429688 31.105469 7.277344 30.933594 7.1875 30.714844 L 8.003906 30.957031 C 7.929688 30.511719 7.773438 30.132812 7.621094 29.75 L 7.535156 29.46875 C 7.695312 29.601562 7.851562 29.742188 8.015625 29.875 C 8.054688 29.90625 8.105469 29.921875 8.148438 29.941406 L 8.171875 29.976562 L 8.164062 29.933594 L 8.164062 29.765625 C 8.320312 29.859375 8.457031 29.949219 8.601562 30.023438 C 0.3125 24.105469 -1.613281 12.589844 4.300781 4.300781 C 10.214844 -3.988281 21.730469 -5.914062 30.023438 0 C 30.164062 0.0585938 30.195312 0.0273438 30.199219 -0.125 C 30.210938 -0.652344 30.039062 -1.136719 29.835938 -1.605469 C 29.664062 -1.992188 29.480469 -2.367188 29.3125 -2.753906 C 30.015625 -3.445312 31.085938 -3.613281 31.964844 -3.167969 C 32.847656 -2.722656 33.347656 -1.765625 33.207031 -0.785156 C 33.066406 0.191406 32.316406 0.972656 31.34375 1.148438 C 30.371094 1.328125 29.394531 0.863281 28.914062 0 C 28.898438 -0.0742188 28.890625 -0.167969 28.921875 -0.226562 C 28.960938 -0.300781 29.046875 -0.347656 29.109375 -0.40625 C 29.144531 -0.34375 29.199219 -0.285156 29.210938 -0.214844 C 29.25 0.046875 29.285156 0.3125 29.464844 0.523438 C 29.582031 0.660156 29.738281 0.765625 29.878906 0.882812 L 29.746094 0.953125 C 29.910156 1.132812 30.6875 1.320312 30.964844 1.261719 L 30.867188 -0.160156 L 30.960938 -0.109375 C 31.128906 -0.00390625 31.292969 0.105469 31.460938 0.214844 Z M 10.871094 27.347656 " />
        <path style=" stroke:none;fill-rule:evenodd;fill:rgb(92.156863%,96.862745%,99.607843%);fill-opacity:1;" d="M 26.144531 21.328125 L 25.863281 21.09375 L 25.960938 21.011719 C 25.828125 20.84375 25.625 20.730469 25.625 20.488281 C 26.523438 20.335938 27.464844 20.386719 28.277344 19.886719 L 27.085938 20.03125 L 27.320312 20.128906 L 27.3125 20.191406 C 27.011719 20.195312 26.710938 20.210938 26.414062 20.191406 C 26.214844 20.175781 26.015625 20.121094 25.828125 20.054688 C 25.730469 20.019531 25.65625 19.914062 25.5625 19.832031 L 26.140625 19.34375 L 25.996094 19.335938 L 25.992188 19.332031 C 26.222656 19.160156 26.4375 18.953125 26.6875 18.824219 C 27.210938 18.554688 27.753906 18.324219 28.304688 18.070312 L 28.359375 18.261719 L 28.703125 17.9375 L 28.683594 17.90625 C 28.527344 17.949219 28.371094 18 28.214844 18.035156 C 28.019531 18.078125 27.820312 18.113281 27.625 18.148438 C 27.523438 18.167969 27.429688 18.183594 27.375 18.296875 C 27.347656 18.351562 27.246094 18.382812 27.175781 18.394531 C 27.066406 18.410156 26.949219 18.398438 26.835938 18.398438 L 26.980469 18.210938 L 26.785156 18.210938 C 26.480469 18.199219 26.175781 18.199219 25.871094 18.175781 C 25.625 18.15625 25.570312 18.035156 25.746094 17.859375 C 25.96875 17.640625 26.21875 17.445312 26.46875 17.257812 C 26.671875 17.109375 26.890625 16.980469 27.117188 16.832031 L 26.972656 16.777344 C 27.078125 16.722656 27.160156 16.6875 27.234375 16.636719 C 27.359375 16.554688 27.488281 16.472656 27.59375 16.371094 C 27.730469 16.242188 27.710938 16.105469 27.554688 15.996094 C 27.339844 15.847656 27.175781 15.828125 26.757812 15.871094 C 26.800781 15.851562 26.839844 15.828125 26.878906 15.8125 C 27.207031 15.695312 27.539062 15.582031 27.867188 15.464844 C 28.136719 15.476562 28.410156 15.464844 28.671875 15.503906 C 29.039062 15.554688 29.230469 15.839844 29.433594 16.101562 L 29.410156 16.144531 L 29.042969 16.023438 C 29.261719 16.394531 29.457031 16.746094 29.46875 17.175781 C 29.441406 17.160156 29.417969 17.152344 29.40625 17.136719 C 29.390625 17.117188 29.386719 17.089844 29.367188 17.039062 C 29.265625 17.28125 29.21875 17.488281 29.101562 17.648438 C 28.910156 17.921875 28.917969 18.160156 29.0625 18.453125 C 29.164062 18.664062 29.167969 18.921875 29.21875 19.160156 L 29.15625 19.183594 L 29.003906 18.992188 C 28.984375 19.320312 28.980469 19.613281 28.820312 19.878906 L 28.75 19.71875 C 28.632812 19.824219 28.519531 19.917969 28.417969 20.027344 C 28.390625 20.058594 28.390625 20.128906 28.402344 20.175781 C 28.453125 20.445312 28.542969 20.714844 28.441406 21.003906 L 28.320312 20.949219 C 28.15625 21.3125 27.855469 21.5 27.480469 21.539062 C 27.074219 21.585938 26.675781 21.515625 26.292969 21.371094 C 26.246094 21.351562 26.195312 21.34375 26.144531 21.328125 Z M 26.144531 21.328125 " />
        <path style=" stroke:none;fill-rule:evenodd;fill:rgb(31.764706%,31.372549%,32.54902%);fill-opacity:1;" d="M 20.570312 11.796875 L 22.148438 12.117188 L 22.28125 12.160156 C 22.390625 12.195312 22.429688 12.273438 22.398438 12.378906 C 22.355469 12.511719 22.320312 12.648438 22.257812 12.773438 C 22.222656 12.839844 22.152344 12.90625 22.085938 12.933594 C 21.964844 12.984375 21.894531 13.0625 21.84375 13.179688 C 21.769531 13.339844 21.695312 13.5 21.597656 13.644531 C 21.511719 13.773438 21.390625 13.882812 21.285156 14.003906 C 20.851562 14.167969 20.402344 14.125 19.960938 14.085938 C 16.640625 15.871094 12.519531 15.074219 10.101562 12.179688 C 7.683594 9.285156 7.632812 5.09375 9.980469 2.140625 C 12.328125 -0.808594 16.425781 -1.703125 19.789062 0 C 19.390625 -0.09375 19.148438 -0.34375 19.152344 -0.78125 C 19.15625 -0.980469 19.152344 -1.175781 19.15625 -1.375 C 19.160156 -1.503906 19.113281 -1.566406 18.976562 -1.589844 C 18.667969 -1.632812 18.625 -1.617188 18.457031 -1.351562 C 14.136719 -10.753906 18.132812 -21.882812 27.449219 -26.386719 C 36.765625 -30.894531 47.972656 -27.117188 52.660156 -17.894531 C 57.351562 -8.671875 53.800781 2.609375 44.671875 7.480469 C 35.542969 12.355469 24.195312 9.027344 19.140625 0 C 18.964844 0.257812 18.710938 0.371094 18.402344 0.40625 C 17.308594 0.535156 16.253906 0.347656 15.214844 0.015625 C 14.910156 -0.0820312 14.828125 -0.21875 14.816406 -0.539062 C 14.808594 -0.730469 14.8125 -0.925781 14.78125 -1.113281 C 14.765625 -1.210938 14.710938 -1.324219 14.636719 -1.390625 C 14.25 -1.726562 13.847656 -2.046875 13.453125 -2.375 L 13.390625 -2.417969 L 12.757812 -2.988281 L 12.984375 -4.03125 L 13.878906 -3.136719 C 14.101562 -2.890625 14.328125 -2.648438 14.558594 -2.40625 C 14.585938 -2.378906 14.636719 -2.351562 14.675781 -2.351562 C 15.527344 -2.386719 16.367188 -2.289062 17.203125 -2.148438 L 17.25 -2.144531 L 17.9375 -2.003906 C 18.609375 -1.839844 19.285156 -1.667969 19.960938 -1.519531 C 20.179688 -1.472656 20.414062 -1.46875 20.640625 -1.46875 C 21.078125 -1.472656 21.519531 -1.492188 21.960938 -1.507812 L 22.585938 -1.457031 Z M 14.894531 11.375 C 14.433594 11.347656 13.976562 11.3125 13.515625 11.296875 C 13.328125 11.292969 13.226562 11.398438 13.203125 11.582031 C 12.199219 7.722656 12.542969 3.636719 14.179688 0 C 14.160156 0.332031 14.191406 0.371094 14.511719 0.480469 C 15.398438 0.78125 16.3125 0.875 17.242188 0.859375 C 17.582031 0.855469 17.832031 0.703125 18.003906 0.425781 C 18.144531 0.195312 18.261719 -0.046875 18.378906 -0.289062 C 18.480469 -0.5 18.449219 -0.597656 18.222656 -0.671875 C 17.878906 -0.785156 17.527344 -0.867188 17.179688 -0.964844 L 15.960938 -1.183594 Z M 20.019531 12.039062 L 20.015625 12.070312 C 19.839844 12.070312 19.664062 12.066406 19.484375 12.074219 C 19.332031 12.082031 19.175781 12.105469 19.023438 12.132812 C 18.824219 12.164062 18.695312 12.285156 18.675781 12.492188 C 18.652344 12.707031 18.636719 12.925781 18.636719 13.144531 C 18.636719 13.519531 18.707031 13.605469 19.070312 13.691406 C 19.585938 13.816406 20.113281 13.867188 20.644531 13.839844 C 20.773438 13.835938 20.902344 13.804688 21.027344 13.78125 C 21.199219 13.75 21.320312 13.660156 21.386719 13.496094 C 21.511719 13.199219 21.652344 12.910156 21.773438 12.613281 C 21.875 12.363281 21.847656 12.300781 21.589844 12.257812 C 21.070312 12.171875 20.542969 12.109375 20.019531 12.039062 Z M 20.019531 12.039062 " />
        <path style=" stroke:none;fill-rule:evenodd;fill:rgb(30.980392%,30.588235%,31.764706%);fill-opacity:1;" d="M 15.082031 4.835938 C 14.621094 5.40625 13.980469 5.714844 13.085938 5.785156 L 13.9375 5.355469 C 13.167969 4.574219 12.621094 3.710938 12.640625 2.589844 C 12.679688 1.898438 12.890625 1.269531 13.292969 0.703125 C 13.332031 0.648438 13.378906 0.601562 13.421875 0.550781 L 13.449219 0.5625 L 13.449219 0.625 C 13.421875 0.667969 13.378906 0.710938 13.367188 0.761719 C 13.210938 1.445312 13.214844 2.125 13.4375 2.796875 C 13.679688 3.519531 14.136719 4.089844 14.738281 4.554688 C 14.855469 4.644531 14.964844 4.742188 15.082031 4.835938 Z M 15.082031 4.835938 " />
        <path style=" stroke:none;fill-rule:evenodd;fill:rgb(40%,76.078431%,86.666667%);fill-opacity:1;" d="M 21.976562 19.121094 C 21.996094 19.140625 22.027344 19.164062 22.027344 19.183594 C 22.035156 19.722656 22.039062 20.265625 22.035156 20.808594 C 22.035156 20.941406 22.015625 21.074219 22.007812 21.207031 C 21.890625 21.679688 21.800781 22.160156 21.65625 22.621094 C 21.433594 23.335938 21.0625 23.984375 20.601562 24.574219 C 20.558594 24.558594 20.511719 24.546875 20.472656 24.527344 C 19.757812 24.109375 19.039062 23.691406 18.320312 23.273438 C 11.894531 23.292969 6.667969 18.101562 6.648438 11.671875 C 6.628906 5.246094 11.824219 0.0195312 18.25 0 C 18.351562 0.0117188 18.453125 0.0234375 18.558594 0.0351562 C 19.625 0.144531 20.507812 -0.21875 21.203125 -1.019531 C 21.359375 -1.195312 21.4375 -1.445312 21.53125 -1.667969 C 21.847656 -2.441406 22.007812 -3.246094 21.976562 -4.082031 Z M 21.976562 19.121094 " />
        <path style=" stroke:none;fill-rule:evenodd;fill:rgb(92.156863%,96.862745%,99.215686%);fill-opacity:1;" d="M 19.664062 1.25 L 19.664062 2.40625 C 19.664062 2.632812 19.660156 2.632812 19.449219 2.585938 C 18.679688 2.417969 17.910156 2.253906 17.140625 2.089844 C 17.085938 2.078125 17.035156 2.046875 16.980469 2.027344 L 16.980469 1.996094 L 17.011719 1.964844 C 17.234375 1.621094 17.492188 1.304688 17.816406 1.046875 L 18.699219 0.34375 C 18.695312 0.394531 18.707031 0.453125 18.691406 0.5 C 18.621094 0.71875 18.546875 0.9375 18.460938 1.203125 C 18.886719 1.042969 19.261719 0.847656 19.664062 0.777344 Z M 19.664062 1.25 " />
        <path style=" stroke:none;fill-rule:evenodd;fill:rgb(45.098039%,49.803922%,51.764706%);fill-opacity:1;" d="M 15.082031 4.835938 C 14.964844 4.742188 14.855469 4.644531 14.738281 4.554688 C 14.140625 4.089844 13.679688 3.519531 13.4375 2.796875 C 13.214844 2.125 13.210938 1.445312 13.371094 0.761719 C 13.378906 0.710938 13.421875 0.667969 13.449219 0.625 L 13.648438 1.402344 C 13.945312 2.347656 14.503906 3.09375 15.324219 3.644531 C 15.632812 3.851562 15.644531 3.859375 15.480469 4.199219 C 15.371094 4.421875 15.214844 4.625 15.082031 4.835938 Z M 15.082031 4.835938 " />
        <path style=" stroke:none;fill-rule:evenodd;fill:rgb(30.980392%,30.588235%,31.764706%);fill-opacity:1;" d="M 24.550781 7.375 C 24.550781 7.34375 24.542969 7.304688 24.554688 7.28125 C 24.75 6.949219 24.945312 6.621094 25.136719 6.289062 C 25.476562 6.21875 25.820312 6.171875 26.152344 6.078125 C 26.886719 5.867188 27.539062 5.507812 28.0625 4.933594 C 28.121094 4.863281 28.1875 4.800781 28.25 4.734375 C 27.988281 5.484375 27.589844 6.152344 27.015625 6.707031 C 26.46875 7.234375 25.792969 7.421875 25.046875 7.40625 C 24.882812 7.402344 24.714844 7.386719 24.550781 7.375 Z M 24.550781 7.375 " />
        <path style=" stroke:none;fill-rule:evenodd;fill:rgb(45.098039%,49.803922%,51.764706%);fill-opacity:1;" d="M 28.25 4.734375 C 28.1875 4.800781 28.121094 4.863281 28.0625 4.933594 C 27.539062 5.507812 26.890625 5.867188 26.152344 6.078125 C 25.820312 6.171875 25.476562 6.21875 25.136719 6.289062 L 25.773438 5.296875 C 26.675781 5.441406 27.46875 5.164062 28.203125 4.664062 L 28.304688 4.597656 Z M 28.25 4.734375 " />
        <path style=" stroke:none;fill-rule:evenodd;fill:rgb(39.607843%,75.686275%,86.666667%);fill-opacity:1;" d="M 27.269531 23.011719 L 27.277344 22.96875 L 27.289062 22.972656 L 27.273438 23.015625 Z M 19.074219 30.75 L 19.132812 30.777344 Z M 19.074219 30.75 " />
        <path style=" stroke:none;fill-rule:evenodd;fill:rgb(70.196078%,87.843137%,93.333333%);fill-opacity:1;" d="M 23.746094 21.046875 L 23.761719 21.054688 Z M 20.910156 15.652344 L 20.878906 15.621094 Z M 20.910156 15.652344 " />
        <path style=" stroke:none;fill-rule:evenodd;fill:rgb(45.098039%,49.803922%,51.764706%);fill-opacity:1;" d="M 13.421875 0.550781 L 13.4375 0.535156 L 13.449219 0.5625 Z M 13.421875 0.550781 " />
        <path style=" stroke:none;fill-rule:evenodd;fill:rgb(70.196078%,87.843137%,93.333333%);fill-opacity:1;" d="M 10.871094 27.347656 L 10.371094 27.019531 L 10.277344 26.972656 C 10.230469 26.550781 10.191406 26.132812 10.128906 25.710938 C 10.074219 25.328125 9.867188 25.007812 9.621094 24.714844 C 9.242188 24.253906 8.828125 23.8125 8.585938 23.25 C 8.375 22.757812 8.230469 22.246094 8.191406 21.710938 C 3.835938 35.1875 -9.480469 43.671875 -23.535156 41.921875 C -37.589844 40.171875 -48.421875 28.683594 -49.339844 14.546875 C -50.257812 0.414062 -41.007812 -12.378906 -27.296875 -15.933594 C -13.585938 -19.488281 0.714844 -12.800781 6.78125 0 C 6.773438 -0.210938 6.804688 -0.421875 6.820312 -0.652344 L 7.1875 -0.265625 C 7.324219 -1.207031 7.777344 -1.976562 8.222656 -2.757812 C 8.09375 -2.15625 7.949219 -1.5625 7.847656 -0.960938 C 7.742188 -0.355469 7.648438 0.253906 7.710938 0.894531 C 7.523438 0.816406 7.4375 0.65625 7.308594 0.480469 C 7.289062 0.964844 7.453125 1.355469 7.625 1.738281 C 7.796875 2.117188 8.015625 2.476562 8.234375 2.882812 L 8.851562 23.117188 C 8.878906 23.277344 8.980469 23.425781 9.109375 23.535156 C 2.609375 19.550781 0.570312 11.054688 4.554688 4.554688 C 8.539062 -1.945312 17.035156 -3.984375 23.535156 0 C 24.164062 0.429688 24.558594 1.011719 24.644531 1.769531 C 24.679688 2.082031 24.640625 2.40625 24.625 2.722656 C 24.617188 2.898438 24.582031 3.070312 24.5625 3.246094 Z M 7.535156 29.464844 L 7.621094 29.75 C 7.554688 29.6875 7.480469 29.632812 7.429688 29.5625 C -0.734375 29.683594 -7.453125 23.164062 -7.574219 15 C -7.695312 6.839844 -1.175781 0.121094 6.984375 0 C 6.898438 -0.152344 6.828125 -0.3125 6.746094 -0.476562 L 6.652344 -0.375 C 6.605469 -0.738281 6.492188 -1.078125 6.597656 -1.433594 C 6.65625 -1.015625 6.769531 -0.621094 6.984375 -0.226562 L 7.03125 -0.324219 L 7.058594 -0.429688 L 7.34375 0.285156 L 7.378906 0.351562 L 7.375 0.347656 Z M 7.535156 29.464844 " />
        <path style=" stroke:none;fill-rule:evenodd;fill:rgb(70.588235%,88.235294%,93.333333%);fill-opacity:1;" d="M 6.089844 30.015625 C 5.648438 29.824219 5.242188 28.699219 5.449219 28.304688 L 5.664062 29.3125 L 5.769531 29.242188 Z M 6.089844 30.015625 " />
        <path style=" stroke:none;fill-rule:evenodd;fill:rgb(70.196078%,87.843137%,93.333333%);fill-opacity:1;" d="M 9.613281 17.4375 L 9.605469 17.441406 L 9.597656 17.425781 L 9.609375 17.421875 Z M 9.613281 17.4375 " />
        <path style=" stroke:none;fill-rule:evenodd;fill:rgb(39.607843%,76.078431%,86.666667%);fill-opacity:1;" d="M 7.535156 29.46875 L 7.503906 29.402344 Z M 7.535156 29.46875 " />
        <path style=" stroke:none;fill-rule:evenodd;fill:rgb(91.372549%,96.078431%,98.039216%);fill-opacity:1;" d="M 17.011719 1.964844 L 16.980469 1.996094 Z M 17.011719 1.964844 " />
        <path style=" stroke:none;fill-rule:evenodd;fill:rgb(30.980392%,30.588235%,31.764706%);fill-opacity:1;" d="M 13.667969 14.355469 C 14.792969 14.355469 15.886719 14.339844 16.984375 14.359375 C 17.648438 14.371094 18.308594 14.421875 18.972656 14.472656 C 14.976562 15.714844 10.726562 13.484375 9.484375 9.484375 C 8.242188 5.488281 10.476562 1.242188 14.472656 0 C 14.203125 0.203125 13.953125 0.410156 13.6875 0.59375 C 13.5625 0.679688 13.519531 0.773438 13.582031 0.90625 C 13.664062 1.089844 13.757812 1.269531 13.84375 1.449219 L 14.023438 1.820312 C 13.957031 1.832031 13.921875 1.84375 13.886719 1.84375 C 13.113281 1.867188 12.335938 1.917969 11.570312 1.789062 C 10.71875 1.648438 9.902344 1.390625 9.210938 0.851562 C 8.871094 0.589844 8.628906 0.257812 8.542969 -0.171875 C 8.53125 -0.230469 8.527344 -0.292969 8.519531 -0.378906 Z M 13.667969 14.355469 " />
        <path style=" stroke:none;fill-rule:evenodd;fill:rgb(82.745098%,92.941176%,96.470588%);fill-opacity:1;" d="M 17.152344 18.871094 L 16.722656 18.171875 L 16.1875 18.964844 C 15.910156 18.648438 15.816406 18.289062 15.679688 17.917969 L 15.242188 18.402344 C 15.039062 17.988281 14.914062 17.578125 14.882812 17.09375 C 16.019531 17.457031 17.144531 17.585938 18.296875 17.511719 L 18.308594 17.5625 C 18.175781 17.632812 18.050781 17.71875 17.910156 17.773438 C 17.65625 17.871094 17.570312 18.089844 17.476562 18.320312 C 17.402344 18.503906 17.304688 18.679688 17.214844 18.859375 Z M 17.152344 18.871094 " />
        <path style=" stroke:none;fill-rule:evenodd;fill:rgb(40%,76.078431%,86.666667%);fill-opacity:1;" d="M 18.179688 23.1875 L 18.167969 23.191406 L 18.164062 23.175781 L 18.175781 23.179688 Z M 18.179688 23.1875 " />
        <path style=" stroke:none;fill-rule:evenodd;fill:rgb(83.137255%,92.941176%,96.470588%);fill-opacity:1;" d="M 16.285156 9.777344 C 15.65625 9.554688 15.101562 9.601562 14.640625 10.117188 C 14.605469 9.832031 14.929688 9.464844 15.273438 9.367188 C 15.683594 9.253906 16.140625 9.429688 16.285156 9.777344 Z M 14.738281 10.601562 C 14.746094 10.402344 14.886719 10.292969 15.035156 10.199219 C 15.371094 9.980469 15.980469 10.011719 16.222656 10.378906 C 16.125 10.371094 16.042969 10.363281 15.964844 10.347656 C 15.550781 10.265625 15.179688 10.378906 14.820312 10.566406 Z M 20.804688 10.4375 C 21 10.265625 21.296875 10.226562 21.542969 10.359375 C 21.808594 10.503906 21.933594 10.695312 21.914062 11.019531 C 21.636719 10.628906 21.25 10.480469 20.804688 10.4375 Z M 20.804688 10.4375 " />
        <path style=" stroke:none;fill-rule:evenodd;fill:rgb(80.392157%,92.156863%,95.686275%);fill-opacity:1;" d="M 21.589844 11.683594 C 21.1875 11.199219 21.023438 11.183594 20.550781 11.054688 C 20.707031 10.90625 20.894531 10.875 21.078125 10.929688 C 21.441406 11.03125 21.554688 11.324219 21.589844 11.683594 Z M 21.589844 11.683594 " />
        <path style=" stroke:none;fill-rule:evenodd;fill:rgb(83.137255%,92.941176%,96.470588%);fill-opacity:1;" d="M 14.738281 10.601562 L 14.730469 10.617188 Z M 14.738281 10.601562 " />
        <path style=" stroke:none;fill-rule:evenodd;fill:rgb(92.156863%,96.862745%,99.607843%);fill-opacity:1;" d="M 26.835938 18.398438 L 26.828125 18.410156 Z M 25.996094 19.335938 L 25.980469 19.347656 L 25.992188 19.332031 Z M 25.996094 19.335938 " />
        <path style=" stroke:none;fill-rule:evenodd;fill:rgb(82.745098%,92.941176%,96.470588%);fill-opacity:1;" d="M 8.160156 29.929688 L 8.171875 29.976562 L 8.148438 29.941406 Z M 8.160156 29.929688 " />
        <path style=" stroke:none;fill-rule:evenodd;fill:rgb(90.980392%,95.686275%,97.254902%);fill-opacity:1;" d="M 16.113281 11.589844 C 16.460938 11.6875 16.8125 11.773438 17.15625 11.886719 C 17.382812 11.960938 17.414062 12.058594 17.3125 12.269531 C 17.195312 12.511719 17.078125 12.753906 16.9375 12.984375 C 16.765625 13.261719 16.515625 13.414062 16.175781 13.417969 C 15.246094 13.433594 14.332031 13.339844 13.445312 13.039062 C 13.125 12.929688 13.089844 12.890625 13.113281 12.558594 C 13.132812 12.230469 13.164062 11.90625 13.203125 11.582031 C 13.226562 11.398438 13.328125 11.292969 13.515625 11.296875 C 13.976562 11.3125 14.433594 11.347656 14.894531 11.375 L 14.769531 11.769531 C 11.519531 11.523438 9.085938 8.6875 9.332031 5.4375 C 9.578125 2.1875 12.414062 -0.246094 15.664062 0 C 15.746094 0.324219 16.027344 0.496094 16.320312 0.417969 C 16.585938 0.347656 16.878906 -0.00390625 16.90625 -0.285156 C 17.042969 -0.53125 17.0625 -0.800781 17.066406 -1.074219 Z M 16.113281 11.589844 " />
        <path style=" stroke:none;fill-rule:evenodd;fill:rgb(92.54902%,96.078431%,97.647059%);fill-opacity:1;" d="M 20.019531 12.039062 C 20.542969 12.109375 21.070312 12.167969 21.589844 12.257812 C 21.847656 12.300781 21.875 12.363281 21.773438 12.613281 C 21.652344 12.910156 21.511719 13.199219 21.386719 13.496094 C 21.320312 13.660156 21.199219 13.75 21.027344 13.78125 C 20.902344 13.804688 20.773438 13.835938 20.644531 13.839844 C 16.824219 13.882812 13.691406 10.816406 13.652344 6.996094 C 13.609375 3.171875 16.675781 0.0429688 20.496094 0 C 20.132812 -0.0859375 20.0625 -0.171875 20.0625 -0.550781 C 20.0625 -0.765625 20.082031 -0.984375 20.101562 -1.199219 C 20.121094 -1.40625 20.25 -1.527344 20.449219 -1.558594 C 20.601562 -1.585938 20.757812 -1.609375 20.914062 -1.617188 C 21.089844 -1.628906 21.265625 -1.621094 21.441406 -1.621094 L 21.449219 -1.652344 Z M 20.714844 12.691406 C 20.6875 12.746094 20.675781 12.785156 20.65625 12.816406 C 20.558594 12.953125 20.476562 13.113281 20.351562 13.226562 C 20.089844 13.472656 19.765625 13.398438 19.617188 13.070312 C 19.558594 12.941406 19.527344 12.796875 19.480469 12.65625 C 19.449219 13.03125 19.484375 13.292969 19.59375 13.480469 C 19.707031 13.664062 19.859375 13.738281 20.066406 13.699219 C 20.433594 13.628906 20.742188 13.15625 20.714844 12.691406 Z M 19.691406 12.621094 L 19.660156 12.648438 C 19.722656 12.726562 19.769531 12.835938 19.847656 12.871094 C 19.960938 12.921875 20.03125 12.8125 20.085938 12.71875 C 16.570312 14.753906 12.074219 13.554688 10.042969 10.042969 C 8.007812 6.53125 9.207031 2.035156 12.71875 0 C 12.746094 -0.148438 12.679688 -0.304688 12.582031 -0.332031 C 12.472656 -0.359375 12.347656 -0.25 12.304688 -0.0898438 L 12.28125 0.03125 Z M 19.691406 12.621094 " />
        <path style=" stroke:none;fill-rule:evenodd;fill:rgb(46.666667%,50.980392%,52.941176%);fill-opacity:1;" d="M 14.769531 11.769531 C 14.78125 11.949219 14.777344 12.132812 14.808594 12.308594 C 14.851562 12.519531 14.957031 12.699219 15.1875 12.761719 C 15.414062 12.824219 15.601562 12.742188 15.765625 12.585938 C 15.832031 12.523438 15.890625 12.449219 15.953125 12.382812 C 15.925781 12.664062 15.632812 13.015625 15.367188 13.085938 C 15.074219 13.164062 14.792969 12.992188 14.710938 12.667969 C 11.210938 13.230469 7.917969 10.851562 7.355469 7.355469 C 6.789062 3.855469 9.167969 0.5625 12.667969 0 Z M 20.714844 12.691406 C 20.742188 13.15625 20.433594 13.628906 20.066406 13.699219 C 19.859375 13.738281 19.707031 13.664062 19.59375 13.480469 C 19.484375 13.292969 19.449219 13.03125 19.484375 12.652344 C 19.527344 12.796875 19.558594 12.941406 19.617188 13.070312 C 19.765625 13.398438 20.089844 13.472656 20.351562 13.226562 C 20.476562 13.113281 20.558594 12.953125 20.65625 12.816406 C 20.675781 12.785156 20.6875 12.746094 20.714844 12.691406 Z M 20.714844 12.691406 " />
        <path style=" stroke:none;fill-rule:evenodd;fill:rgb(10.980392%,10.980392%,10.980392%);fill-opacity:1;" d="M 19.691406 12.621094 L 19.710938 12.5 C 19.757812 12.339844 19.882812 12.230469 19.992188 12.257812 C 20.085938 12.285156 20.15625 12.441406 20.128906 12.589844 C 16.652344 12.554688 13.863281 9.707031 13.898438 6.230469 C 13.9375 2.753906 16.785156 -0.0351562 20.261719 0 C 20.207031 0.0898438 20.136719 0.203125 20.023438 0.152344 C 19.945312 0.117188 19.898438 0.0078125 19.835938 -0.0703125 L 19.867188 -0.101562 Z M 14.976562 12.023438 C 14.984375 11.847656 15.101562 11.703125 15.234375 11.703125 C 15.34375 11.703125 15.4375 11.835938 15.429688 11.992188 C 15.421875 12.160156 15.289062 12.320312 15.160156 12.316406 C 15.039062 12.3125 14.96875 12.199219 14.976562 12.023438 Z M 14.976562 12.023438 " />
    </g>
</svg>