<?xml version="1.0" encoding="UTF-8"?>
<svg width="32pt" height="32pt" version="1.0" viewBox="0 0 32 32" xmlns="http://www.w3.org/2000/svg">
    <g>
        <path d="m3.9258 16l12.098-12.102-16.023-3.8984z" fill="#f5b213" />
        <path d="m16 3.9258l12.102 12.098 3.8984-16.023z" fill="#f17220" />
        <path d="m28.074 16l-12.098 12.102 16.023 3.8984z" fill="#ee5d20" />
        <path d="m16 28.074l-12.102-12.098-3.8984 16.023z" fill="#f5b213" />
        <path d="m3.8984 15.977l12.102-12.051 12.074 12.074-12.074 12.074z" fill="#ea8120" />
        <path d="m3.8984 15.977l-3.8984-7.9766v-8zm-3.8984 16.023v-8l3.8984-8.0234z" fill="#f8ee22" />
        <path d="m0 0h8l8 3.9258zm32 0l-16 3.9258 8-3.9258z" fill="#f8c712" />
        <path d="m28.074 16l3.9258-16v8zm3.9258 16v-8l-3.9258-8z" fill="#ec4721" />
        <path d="m0 32l16-3.9258-8 3.9258z" fill="#ee5d20" />
        <path d="m32 32h-8l-8-3.9258z" fill="#ea8120" />
    </g>
</svg>