<?xml version="1.0" encoding="UTF-8"?>
<svg width="32pt" height="32pt" version="1.0" viewBox="0 0 32 32" xmlns="http://www.w3.org/2000/svg">
    <g>
        <path d="m4.7578 28.469l-2.5-28.055h27.484l-2.5039 28.051-11.254 3.1211z" fill="#e44c26" />
        <path d="m16 29.199l9.0938-2.5195 2.1406-23.969h-11.234z" fill="#f16428" />
        <path
            d="m16 13.113h-4.5547l-0.3125-3.5234h4.8672v-3.4414h-8.6289l0.082031 0.92578 0.84766 9.4805h7.6992zm0 8.9375l-0.015625 0.003907-3.832-1.0352-0.24219-2.7461h-3.457l0.48438 5.4023 7.0469 1.957 0.015625-0.003906z"
            fill="#ebebeb" />
        <path
            d="m15.988 13.113v3.4414h4.2383l-0.40234 4.4609-3.8359 1.0352v3.582l7.0547-1.957 0.050781-0.57812 0.80859-9.0586 0.082031-0.92578zm0-6.9648v3.4414h8.3125l0.066407-0.77344 0.15625-1.7422 0.082031-0.92578z"
            fill="#fff" />
    </g>
</svg>