<?xml version="1.0" encoding="UTF-8"?>
<svg xmlns="http://www.w3.org/2000/svg" xmlns:xlink="http://www.w3.org/1999/xlink" width="32pt" height="32pt" viewBox="0 0 32 32" version="1.0">
    <g id="surface1">
        <path style=" stroke:none;fill-rule:nonzero;fill:rgb(89.411765%,30.196078%,14.901961%);fill-opacity:1;" d="M 4.757812 28.46875 L 2.257812 0.414062 L 29.742188 0.414062 L 27.238281 28.464844 L 15.984375 31.585938 Z M 4.757812 28.46875 " />
        <path style=" stroke:none;fill-rule:nonzero;fill:rgb(94.509804%,39.607843%,16.078431%);fill-opacity:1;" d="M 16 29.199219 L 25.09375 26.679688 L 27.234375 2.710938 L 16 2.710938 Z M 16 29.199219 " />
        <path style=" stroke:none;fill-rule:nonzero;fill:rgb(92.156863%,92.156863%,92.156863%);fill-opacity:1;" d="M 16 13.113281 L 11.445312 13.113281 L 11.132812 9.589844 L 16 9.589844 L 16 6.148438 L 7.371094 6.148438 L 7.453125 7.074219 L 8.300781 16.554688 L 16 16.554688 Z M 16 22.050781 L 15.984375 22.054688 L 12.152344 21.019531 L 11.910156 18.273438 L 8.453125 18.273438 L 8.9375 23.675781 L 15.984375 25.632812 L 16 25.628906 Z M 16 22.050781 " />
        <path style=" stroke:none;fill-rule:nonzero;fill:rgb(100%,100%,100%);fill-opacity:1;" d="M 15.988281 13.113281 L 15.988281 16.554688 L 20.226562 16.554688 L 19.824219 21.015625 L 15.988281 22.050781 L 15.988281 25.632812 L 23.042969 23.675781 L 23.09375 23.097656 L 23.902344 14.039062 L 23.984375 13.113281 Z M 15.988281 6.148438 L 15.988281 9.589844 L 24.300781 9.589844 L 24.367188 8.816406 L 24.523438 7.074219 L 24.605469 6.148438 Z M 15.988281 6.148438 " />
    </g>
</svg>