<?xml version="1.0" encoding="UTF-8"?>
<svg xmlns="http://www.w3.org/2000/svg" xmlns:xlink="http://www.w3.org/1999/xlink" width="32pt" height="32pt" viewBox="0 0 32 32" version="1.1">
    <g id="surface1">
        <path style=" stroke:none;fill-rule:nonzero;fill:rgb(3.137255%,40.784314%,67.45098%);fill-opacity:1;" d="M 2.40625 8.046875 C -0.351562 12.007812 -0.0078125 17.164062 2.097656 21.375 C 2.148438 21.476562 2.199219 21.574219 2.253906 21.675781 L 2.351562 21.863281 L 2.414062 21.972656 L 2.523438 22.171875 C 2.589844 22.285156 2.65625 22.398438 2.722656 22.515625 L 2.839844 22.703125 C 2.914062 22.828125 2.992188 22.949219 3.070312 23.070312 L 3.171875 23.222656 C 3.28125 23.386719 3.394531 23.550781 3.507812 23.710938 L 3.519531 23.722656 L 3.574219 23.800781 C 3.675781 23.9375 3.777344 24.074219 3.882812 24.210938 L 4 24.355469 C 4.09375 24.472656 4.1875 24.589844 4.285156 24.707031 L 4.394531 24.835938 C -4.777344 23.585938 -11.679688 15.847656 -11.875 6.59375 C -12.074219 -2.660156 -5.511719 -10.683594 3.597656 -12.328125 C 12.710938 -13.96875 21.660156 -8.742188 24.707031 0 L 24.730469 0.0234375 C 32.289062 8.160156 31.824219 20.878906 23.691406 28.441406 C 15.5625 36 2.839844 35.542969 -4.722656 27.414062 C -12.289062 19.285156 -11.832031 6.566406 -3.710938 -1 C 4.414062 -8.570312 17.136719 -8.121094 24.707031 0 L 24.835938 0.128906 C 24.941406 0.238281 25.050781 0.339844 25.15625 0.445312 L 25.289062 0.570312 C 25.433594 0.707031 25.582031 0.839844 25.730469 0.972656 L 25.738281 0.976562 L 25.8125 1.042969 C 25.945312 1.15625 26.078125 1.269531 26.214844 1.382812 L 26.382812 1.515625 C 26.492188 1.601562 26.601562 1.691406 26.714844 1.773438 L 26.894531 1.910156 C 27.015625 2.003906 27.140625 2.089844 27.269531 2.179688 L 27.40625 2.277344 L 27.441406 2.304688 C 27.5625 2.386719 27.683594 2.464844 27.804688 2.542969 L 27.964844 2.648438 C 28.152344 2.765625 28.339844 2.882812 28.535156 2.996094 L 28.691406 3.085938 C 28.832031 3.167969 28.972656 3.246094 29.117188 3.328125 C 29.195312 3.367188 29.277344 3.40625 29.355469 3.449219 C 29.457031 3.5 29.558594 3.554688 29.660156 3.605469 L 29.855469 3.703125 C 30.015625 3.777344 30.179688 3.855469 30.34375 3.925781 L 30.445312 3.972656 C 34.519531 11.566406 32.160156 21.011719 24.992188 25.796875 C 17.824219 30.582031 8.195312 29.140625 2.746094 22.464844 C -2.707031 15.789062 -2.195312 6.066406 3.925781 0 L 4.0625 0.0546875 C 4.238281 0.121094 4.417969 0.1875 4.597656 0.253906 L 4.664062 0.273438 C 4.863281 0.34375 5.058594 0.40625 5.261719 0.46875 L 5.402344 0.511719 C 5.605469 0.574219 5.808594 0.648438 6.019531 0.6875 C 19.351562 3.117188 23.226562 -7.328125 23.226562 -7.328125 C 19.972656 -3.089844 14.199219 -1.972656 8.726562 -3.214844 C 8.519531 -3.261719 8.320312 -3.328125 8.117188 -3.386719 L 7.964844 -3.433594 C 9.417969 -13 18.125 -19.738281 27.75 -18.742188 C 37.375 -17.746094 44.519531 -9.363281 43.980469 0.296875 C 43.441406 9.957031 35.410156 17.488281 25.734375 17.410156 C 16.0625 17.332031 8.152344 9.667969 7.773438 0 L 7.691406 -0.0273438 C 17.542969 -1.472656 26.707031 5.324219 28.175781 15.171875 C 29.648438 25.019531 22.871094 34.199219 13.03125 35.695312 C 3.1875 37.195312 -6.011719 30.445312 -7.535156 20.605469 C -9.058594 10.765625 -2.335938 1.550781 7.5 0 L 7.355469 -0.0585938 C 7.167969 -0.132812 6.980469 -0.210938 6.796875 -0.289062 L 6.683594 -0.339844 C 13.722656 -11.007812 28.058594 -13.980469 38.761719 -6.988281 C 49.460938 0.00390625 52.496094 14.328125 45.550781 25.058594 C 38.605469 35.789062 24.292969 38.886719 13.53125 31.988281 C 2.773438 25.089844 -0.386719 10.789062 6.464844 0 L 6.328125 -0.0664062 C 6.203125 -0.125 6.082031 -0.1875 5.960938 -0.25 C 5.882812 -0.292969 5.796875 -0.335938 5.71875 -0.378906 C 10.199219 -7.0625 19.230469 -8.882812 25.945312 -4.453125 C 32.664062 -0.0234375 34.554688 8.992188 30.175781 15.742188 C 25.800781 22.496094 16.796875 24.453125 10.011719 20.128906 C 3.226562 15.804688 1.199219 6.816406 5.472656 0 L 5.324219 -0.0820312 C 16.226562 -2.554688 27.078125 4.246094 29.601562 15.140625 C 32.121094 26.03125 25.367188 36.910156 14.484375 39.480469 C 3.605469 42.050781 -7.304688 35.34375 -9.921875 24.476562 C -12.539062 13.605469 -5.882812 2.667969 4.976562 0 L 4.820312 -0.101562 C 12.476562 -2.925781 20.972656 0.964844 23.832031 8.605469 C 26.691406 16.246094 22.839844 24.757812 15.214844 27.65625 C 7.589844 30.554688 -0.941406 26.746094 -3.878906 19.132812 C -6.8125 11.523438 -3.042969 2.972656 4.550781 0 L 4.421875 -0.0898438 C 16.125 -3.878906 28.683594 2.511719 32.511719 14.203125 C 36.335938 25.890625 29.984375 38.472656 18.308594 42.335938 C 6.632812 46.199219 -5.96875 39.890625 -9.871094 28.226562 C -13.773438 16.5625 -7.507812 3.941406 4.144531 0 L 3.976562 -0.128906 C 12.023438 -3.859375 21.578125 -0.386719 25.347656 7.644531 C 29.117188 15.675781 25.6875 25.246094 17.671875 29.054688 C 9.65625 32.859375 0.0742188 29.472656 -3.769531 21.476562 C -7.617188 13.480469 -4.273438 3.882812 3.703125 0 L 3.550781 -0.125 C 14.355469 -3.695312 26.015625 2.140625 29.632812 12.929688 C 33.253906 23.71875 27.472656 35.40625 16.703125 39.074219 C 5.929688 42.746094 -5.785156 37.019531 -9.503906 26.261719 C -13.222656 15.507812 -7.550781 3.769531 3.1875 0 L 3.140625 -0.0390625 C 14.582031 -1.03125 24.671875 7.410156 25.71875 18.847656 C 26.765625 30.28125 18.375 40.414062 6.945312 41.519531 C -4.488281 42.621094 -14.660156 34.28125 -15.820312 22.855469 C -16.980469 11.433594 -8.691406 1.214844 2.726562 0 L 2.601562 -0.121094 C 2.488281 -0.226562 2.382812 -0.332031 2.273438 -0.441406 L 2.148438 -0.570312 C 8.066406 -8.21875 19.039062 -9.671875 26.746094 -3.832031 C 34.453125 2.011719 36.019531 12.96875 30.253906 20.734375 C 24.492188 28.5 13.550781 30.175781 5.726562 24.488281 C -2.097656 18.804688 -3.882812 7.878906 1.722656 0 L 1.703125 -0.0195312 C 10.960938 -0.316406 18.71875 6.914062 19.074219 16.167969 C 19.433594 25.417969 12.257812 33.226562 3.007812 33.648438 C -6.242188 34.070312 -14.097656 26.945312 -14.582031 17.699219 C -15.066406 8.453125 -8 0.546875 1.242188 0 L 1.136719 -0.125 C 10.339844 -3.230469 20.320312 1.679688 23.472656 10.863281 C 26.628906 20.050781 21.773438 30.054688 12.605469 33.261719 C 3.4375 36.464844 -6.597656 31.660156 -9.847656 22.511719 C -13.101562 13.363281 -8.355469 3.304688 0.777344 0 L 0.671875 -0.132812 C 11.042969 -3.074219 21.839844 2.910156 24.84375 13.265625 C 27.847656 23.617188 21.925781 34.453125 11.589844 37.515625 C 1.257812 40.582031 -9.613281 34.726562 -12.742188 24.410156 C -15.867188 14.09375 -10.074219 3.1875 0.222656 0 C -2.816406 -4.144531 -3.90625 -9.859375 -1.480469 -14.550781 M 4.929688 -15.160156 C 2.933594 -12.289062 3.042969 -8.449219 4.597656 -5.414062 C 10.453125 -5.582031 15.65625 -1.710938 17.175781 3.945312 C 18.695312 9.605469 16.128906 15.5625 10.976562 18.347656 C 5.824219 21.136719 -0.566406 20.019531 -4.46875 15.652344 C -8.367188 11.28125 -8.761719 4.804688 -5.414062 0 C -5.113281 0.429688 -4.785156 0.9375 -4.386719 1.28125 C -10.460938 1.148438 -15.484375 -3.492188 -16.09375 -9.539062 C -16.703125 -15.585938 -12.707031 -21.132812 -6.777344 -22.476562 C -0.851562 -23.816406 5.144531 -20.523438 7.195312 -14.804688 C 9.246094 -9.085938 6.710938 -2.730469 1.28125 0 L 1.398438 0.117188 C 6.441406 5.144531 6.460938 13.304688 1.449219 18.363281 C -3.566406 23.417969 -11.726562 23.464844 -16.796875 18.46875 C -21.871094 13.472656 -21.945312 5.3125 -16.960938 0.222656 C -11.980469 -4.863281 -3.824219 -4.964844 1.28125 0 L 1.300781 0.015625 L 1.304688 0.0195312 C 6.992188 5.101562 7.488281 13.832031 2.410156 19.523438 C -2.667969 25.214844 -11.398438 25.714844 -17.09375 20.640625 C -22.789062 15.5625 -23.292969 6.835938 -18.21875 1.136719 C -13.148438 -4.558594 -4.417969 -5.070312 1.28125 0 L 1.402344 0.09375 C 7.253906 4.707031 8.269531 13.1875 3.671875 19.050781 C -0.925781 24.917969 -9.402344 25.957031 -15.28125 21.375 C -21.15625 16.792969 -22.21875 8.320312 -17.65625 2.429688 C -13.089844 -3.460938 -4.621094 -4.546875 1.28125 0 L 1.296875 0.0117188 C 1.382812 0.0703125 1.46875 0.125 1.554688 0.179688 L 1.671875 0.261719 C 1.808594 0.347656 1.945312 0.433594 2.085938 0.515625 L 2.144531 0.546875 C 2.265625 0.617188 2.390625 0.6875 2.511719 0.753906 L 2.640625 0.820312 C 2.726562 0.863281 2.8125 0.910156 2.898438 0.953125 L 2.9375 0.96875 C 3.113281 1.054688 3.289062 1.140625 3.46875 1.21875 L 3.589844 1.265625 C 3.734375 1.328125 3.878906 1.390625 4.027344 1.445312 L 4.214844 1.511719 C 4.347656 1.5625 4.480469 1.609375 4.617188 1.652344 L 4.796875 1.710938 C 4.988281 1.769531 5.179688 1.847656 5.378906 1.878906 C 15.671875 3.585938 18.050781 -4.34375 18.050781 -4.34375 C 15.910156 -1.257812 11.757812 0.214844 7.332031 -0.933594 C 8.804688 -7.636719 15.371094 -11.925781 22.101562 -10.578125 C 28.832031 -9.234375 33.246094 -2.746094 32.023438 4.007812 C 30.804688 10.761719 24.402344 15.296875 17.628906 14.203125 C 10.851562 13.109375 6.199219 6.796875 7.164062 0 L 6.988281 -0.0585938 C 12.804688 -2.359375 19.390625 0.472656 21.714844 6.28125 C 24.039062 12.09375 21.222656 18.6875 15.421875 21.03125 C 9.621094 23.375 3.015625 20.582031 0.65625 14.789062 C -1.707031 8.996094 1.0625 2.382812 6.847656 0 L 6.664062 -0.0703125 C 13.929688 -2.824219 22.054688 0.816406 24.835938 8.074219 C 27.617188 15.328125 24.003906 23.46875 16.753906 26.273438 C 9.507812 29.078125 1.355469 25.492188 -1.472656 18.253906 C -4.300781 11.015625 -0.742188 2.851562 6.484375 0 L 6.367188 -0.0507812 C 12.816406 -1.269531 19.042969 2.949219 20.296875 9.394531 C 21.550781 15.839844 17.363281 22.085938 10.925781 23.375 C 4.488281 24.664062 -1.777344 20.507812 -3.101562 14.078125 C -4.425781 7.648438 -0.304688 1.355469 6.117188 0 C 6.027344 -0.0429688 5.9375 -0.0898438 5.847656 -0.136719 L 5.691406 -0.21875 C 9.8125 -4.738281 16.808594 -5.089844 21.355469 -1 C 25.90625 3.089844 26.300781 10.082031 22.242188 14.65625 C 18.183594 19.230469 11.191406 19.671875 6.589844 15.644531 C 1.988281 11.617188 1.5 4.628906 5.5 0 L 5.417969 -0.046875 C 11.902344 -1.164062 18.074219 3.164062 19.226562 9.644531 C 20.382812 16.125 16.082031 22.316406 9.609375 23.503906 C 3.136719 24.691406 -3.078125 20.429688 -4.300781 13.960938 C -5.523438 7.496094 -1.292969 1.257812 5.167969 0 L 5.042969 -0.0820312 C 8.421875 -6.328125 15.628906 -9.460938 22.503906 -7.675781 C 29.378906 -5.890625 34.144531 0.355469 34.058594 7.457031 C 33.972656 14.558594 29.050781 20.683594 22.132812 22.300781 C 15.21875 23.917969 8.09375 20.609375 4.867188 14.28125 L 4.742188 14.183594 C 2.800781 12.652344 1.265625 10.5625 0.535156 8.191406 C -0.230469 5.730469 -0.0664062 2.96875 1.261719 0.730469 M 6.832031 0.535156 C 5.65625 2.265625 5.539062 4.414062 6.355469 6.324219 C 7.214844 8.351562 8.976562 9.945312 11.035156 10.699219 C 11.121094 10.730469 11.207031 10.757812 11.289062 10.785156 L 11.402344 10.824219 C 11.523438 10.859375 11.644531 10.90625 11.769531 10.929688 C 17.457031 12.027344 18.996094 8.011719 19.40625 7.421875 C 18.058594 9.363281 15.789062 9.832031 13.003906 9.15625 C 12.78125 9.101562 12.539062 9.023438 12.328125 8.949219 C 14.335938 5.769531 18.230469 4.335938 21.824219 5.453125 C 25.414062 6.570312 27.808594 9.960938 27.65625 13.71875 C 27.507812 17.476562 24.851562 20.667969 21.183594 21.496094 C 17.511719 22.320312 13.746094 20.582031 11.996094 17.25 C 9.503906 15.359375 7.957031 11.753906 9.582031 8.816406 " />
    </g>
</svg>