<?xml version="1.0" encoding="UTF-8"?>
<svg xmlns="http://www.w3.org/2000/svg" xmlns:xlink="http://www.w3.org/1999/xlink" width="32pt" height="32pt" viewBox="0 0 32 32" version="1.0">
    <g id="surface1">
        <path style=" stroke:none;fill-rule:nonzero;fill:rgb(94.117647%,85.882353%,30.980392%);fill-opacity:1;" d="M 0.351562 0.351562 L 31.648438 0.351562 L 31.648438 31.648438 L 0.351562 31.648438 Z M 0.351562 0.351562 " />
        <path style=" stroke:none;fill-rule:nonzero;fill:rgb(19.607843%,20%,18.823529%);fill-opacity:1;" d="M 29.085938 24.183594 C 28.859375 22.757812 27.925781 21.558594 25.167969 20.4375 C 24.210938 20 23.144531 19.683594 22.824219 18.957031 C 22.710938 18.535156 22.695312 18.296875 22.769531 18.039062 C 22.972656 17.210938 23.964844 16.953125 24.75 17.191406 C 25.253906 17.359375 25.734375 17.75 26.023438 18.371094 C 27.371094 17.496094 27.371094 17.503906 28.3125 16.902344 C 27.96875 16.367188 27.785156 16.121094 27.558594 15.890625 C 26.746094 14.984375 25.640625 14.515625 23.867188 14.550781 L 22.945312 14.671875 C 22.0625 14.894531 21.222656 15.359375 20.726562 15.980469 C 19.246094 17.660156 19.667969 20.601562 21.472656 21.8125 C 23.246094 23.144531 25.855469 23.449219 26.191406 24.695312 C 26.515625 26.222656 25.066406 26.714844 23.632812 26.539062 C 22.570312 26.320312 21.984375 25.78125 21.347656 24.804688 C 20.175781 25.480469 20.175781 25.480469 18.96875 26.175781 C 19.253906 26.800781 19.554688 27.082031 20.035156 27.625 C 22.300781 29.921875 27.972656 29.808594 28.992188 26.328125 C 29.03125 26.210938 29.308594 25.414062 29.085938 24.183594 Z M 17.367188 14.734375 L 14.4375 14.734375 L 14.425781 22.304688 C 14.425781 23.914062 14.507812 25.390625 14.246094 25.839844 C 13.820312 26.730469 12.710938 26.621094 12.203125 26.449219 C 11.6875 26.195312 11.425781 25.835938 11.125 25.328125 C 11.039062 25.179688 10.976562 25.066406 10.957031 25.058594 L 8.578125 26.515625 C 8.972656 27.328125 9.554688 28.035156 10.304688 28.492188 C 11.417969 29.160156 12.917969 29.367188 14.484375 29.007812 C 15.507812 28.710938 16.386719 28.09375 16.847656 27.15625 C 17.515625 25.925781 17.371094 24.441406 17.367188 22.796875 C 17.378906 20.109375 17.367188 17.429688 17.367188 14.734375 Z M 17.367188 14.734375 " />
    </g>
</svg>