<?xml version="1.0" encoding="UTF-8"?>
<svg width="32pt" height="32pt" version="1.0" viewBox="0 0 32 32" xmlns="http://www.w3.org/2000/svg">
    <g>
        <path d="m0.35156 0.35156h31.297v31.297h-31.297z" fill="#efdb4e" />
        <path
            d="m29.086 24.184c-0.22656-1.4258-1.1602-2.625-3.918-3.7461-0.95703-0.4375-2.0234-0.75391-2.3438-1.4805-0.11328-0.42188-0.12891-0.66016-0.054688-0.91797 0.20312-0.82812 1.1953-1.0859 1.9805-0.84766 0.50391 0.16797 0.98438 0.55859 1.2734 1.1797 1.3477-0.875 1.3477-0.86719 2.2891-1.4688-0.34375-0.53516-0.52734-0.78125-0.75391-1.0117-0.8125-0.90625-1.918-1.375-3.6914-1.3398l-0.92188 0.12109c-0.88281 0.22266-1.7227 0.6875-2.2188 1.3086-1.4805 1.6797-1.0586 4.6211 0.74609 5.832 1.7734 1.332 4.3828 1.6367 4.7188 2.8828 0.32422 1.5273-1.125 2.0195-2.5586 1.8438-1.0625-0.21875-1.6484-0.75781-2.2852-1.7344-1.1719 0.67578-1.1719 0.67578-2.3789 1.3711 0.28516 0.625 0.58594 0.90625 1.0664 1.4492 2.2656 2.2969 7.9375 2.1836 8.957-1.2969 0.039062-0.11719 0.31641-0.91406 0.09375-2.1445zm-11.719-9.4492h-2.9297l-0.011719 7.5703c0 1.6094 0.082031 3.0859-0.17969 3.5352-0.42578 0.89062-1.5352 0.78125-2.043 0.60938-0.51562-0.25391-0.77734-0.61328-1.0781-1.1211-0.085938-0.14844-0.14844-0.26172-0.16797-0.26953l-2.3789 1.457c0.39453 0.8125 0.97656 1.5195 1.7266 1.9766 1.1133 0.66797 2.6133 0.875 4.1797 0.51562 1.0234-0.29687 1.9023-0.91406 2.3633-1.8516 0.66797-1.2305 0.52344-2.7148 0.51953-4.3594 0.011718-2.6875 0-5.3672 0-8.0625z"
            fill="#31332f" />
    </g>
</svg>