<?xml version="1.0" encoding="UTF-8"?>
<svg xmlns="http://www.w3.org/2000/svg" xmlns:xlink="http://www.w3.org/1999/xlink" width="32pt" height="32pt" viewBox="0 0 32 32" version="1.0">
    <g id="surface1">
        <path style=" stroke:none;fill-rule:nonzero;fill:rgb(51.372549%,80.392157%,16.078431%);fill-opacity:1;" d="M 28.191406 7.582031 L 17.167969 1.183594 C 16.472656 0.785156 15.566406 0.785156 14.867188 1.183594 L 3.726562 7.582031 C 3.007812 7.996094 2.5 8.773438 2.5 9.601562 L 2.5 22.386719 C 2.5 23.21875 3.019531 23.992188 3.738281 24.40625 L 6.683594 26.078125 C 8.089844 26.773438 8.585938 26.773438 9.226562 26.773438 C 11.308594 26.773438 12.5 25.511719 12.5 23.316406 L 12.5 10.695312 C 12.5 10.515625 12.40625 10.25 12.230469 10.25 L 10.828125 10.25 C 10.648438 10.25 10.25 10.515625 10.25 10.691406 L 10.25 23.316406 C 10.25 24.289062 9.367188 25.257812 7.722656 24.4375 L 4.679688 22.683594 C 4.574219 22.625 4.5 22.507812 4.5 22.386719 L 4.5 9.601562 C 4.5 9.480469 4.640625 9.359375 4.746094 9.296875 L 15.851562 2.910156 C 15.957031 2.847656 16.109375 2.847656 16.210938 2.910156 L 27.183594 9.296875 C 27.285156 9.359375 27.25 9.476562 27.25 9.601562 L 27.25 22.386719 C 27.25 22.507812 27.296875 22.628906 27.191406 22.6875 L 16.171875 29.082031 C 16.074219 29.136719 15.957031 29.136719 15.855469 29.082031 L 13.027344 27.394531 C 12.941406 27.34375 12.839844 27.328125 12.761719 27.371094 C 11.972656 27.816406 11.828125 27.878906 11.089844 28.132812 C 10.910156 28.195312 10.640625 28.304688 11.191406 28.613281 L 14.894531 30.804688 C 6.386719 27.015625 2.5625 17.046875 6.351562 8.539062 C 10.140625 0.0351562 20.109375 -3.789062 28.613281 0 C 29.027344 0 29.425781 -0.105469 29.78125 -0.3125 L 40.753906 -6.707031 C 41.46875 -7.125 41.808594 -7.898438 41.808594 -8.726562 L 41.808594 9.601562 C 41.808594 8.773438 41.46875 8 40.753906 7.582031 Z M 19.476562 20.359375 C 16.546875 20.359375 15.898438 19.550781 15.683594 18.09375 C 15.660156 17.9375 15.527344 17.75 15.367188 17.75 L 13.933594 17.75 C 13.757812 17.75 13.613281 17.964844 13.613281 18.140625 C 13.613281 20.007812 14.628906 22.269531 19.476562 22.269531 C 22.988281 22.269531 25 20.90625 25 18.492188 C 25 16.097656 23.382812 15.472656 19.980469 15.019531 C 16.539062 14.566406 16.1875 14.335938 16.1875 13.53125 C 16.1875 12.867188 16.484375 11.980469 19.03125 11.980469 C 21.308594 11.980469 22.148438 12.46875 22.492188 14.003906 C 22.523438 14.148438 22.65625 14.25 22.804688 14.25 L 24.242188 14.25 C 24.332031 14.25 24.414062 14.214844 24.476562 14.152344 C 24.535156 14.082031 24.570312 13.996094 24.558594 13.90625 C 24.335938 11.265625 22.582031 10.03125 19.03125 10.03125 C 15.875 10.03125 13.992188 11.367188 13.992188 13.601562 C 13.992188 16.027344 15.867188 16.695312 18.898438 16.996094 C 22.523438 17.351562 22.804688 17.882812 22.804688 18.59375 C 22.804688 19.832031 21.808594 20.359375 19.476562 20.359375 Z M 19.476562 20.359375 " />
    </g>
</svg>