<?xml version="1.0" encoding="UTF-8"?>
<svg width="32pt" height="32pt" version="1.1" viewBox="0 0 32 32" xmlns="http://www.w3.org/2000/svg">
  <defs>
    <radialGradient id="a" cx="-16.114" cy="20.532" r="18.384" gradientTransform="translate(26.52 -9.307)"
      gradientUnits="userSpaceOnUse">
      <stop stop-color="#fff" offset="0" />
      <stop stop-color="#4c6a95" offset=".5" />
      <stop stop-color="#221f20" offset="1" />
    </radialGradient>
  </defs>
  <g>
    <path d="m30 16c0-4.0664-6.2695-7.3633-14-7.3633s-14 3.2969-14 7.3633 6.2695 7.3633 14 7.3633 14-3.2969 14-7.3633z"
      fill="url(#a)" />
    <path
      d="m29.453 16c0-3.7656-6.0234-6.8164-13.453-6.8164s-13.453 3.0508-13.453 6.8164 6.0234 6.8164 13.453 6.8164 13.453-3.0508 13.453-6.8164z"
      fill="#627fb5" />
    <path
      d="m18.727 18.199l0.66406-3.4336c0.19531-0.59766 0.054687-1.2539-0.37109-1.7188-0.58203-0.41406-1.293-0.59766-2-0.52344h-1.1523l0.33203-1.7031c0.011719-0.0625-0.007813-0.12891-0.046875-0.17969-0.042969-0.050781-0.10547-0.078125-0.16797-0.078125h-1.6016c-0.10547 0-0.19531 0.074219-0.21484 0.17578l-0.70703 3.6484c-0.054688-0.39062-0.22266-0.75781-0.48047-1.0547-0.57812-0.58203-1.3828-0.875-2.1992-0.80859h-3.082c-0.10547 0-0.19531 0.074218-0.21484 0.17578l-1.4336 7.3828c-0.011719 0.0625 0.003907 0.12891 0.046875 0.17969 0.042969 0.050781 0.10156 0.078125 0.16797 0.078125h1.6016c0.10547 0 0.19531-0.074219 0.21875-0.17578l0.34375-1.7852h1.2031c0.52734 0.015625 1.0586-0.054687 1.5664-0.19922 0.42969-0.14453 0.82031-0.37891 1.1484-0.69141 0.26953-0.24219 0.5-0.52734 0.67969-0.84375l-0.28516 1.4766c-0.011719 0.0625 0.003906 0.12891 0.046874 0.17969 0.039063 0.050781 0.10156 0.082031 0.16797 0.082031h1.6016c0.10156 0 0.19141-0.074218 0.21484-0.17969l0.78516-4.0508h1.0938c0.46484 0 0.60156 0.09375 0.64062 0.13281 0.039062 0.039063 0.10156 0.16406 0.023437 0.57031l-0.63281 3.2656c-0.011719 0.0625 0.003906 0.12891 0.046875 0.17969 0.039062 0.050781 0.10156 0.078125 0.16797 0.078125h1.6211c0.10156-0.003906 0.1875-0.078125 0.20703-0.17969zm-7.3984-2.832c-0.046875 0.41797-0.24609 0.80469-0.55859 1.0898-0.39453 0.24609-0.85547 0.35938-1.3164 0.32031h-0.71094l0.51562-2.6484h0.92188c0.67578 0 0.94922 0.14453 1.0586 0.26562 0.16797 0.29297 0.20312 0.64844 0.089844 0.97266z"
      fill="#fff" />
    <path
      d="m25.547 13.332c-0.57812-0.57812-1.3828-0.875-2.1992-0.80859h-3.0938c-0.10547 0-0.19531 0.074218-0.21484 0.17969l-1.4336 7.3789c-0.011719 0.0625 0.003906 0.12891 0.046875 0.17969 0.042968 0.050781 0.10156 0.082031 0.16797 0.082031h1.6094c0.10547 0 0.19531-0.074219 0.21484-0.17969l0.34766-1.7852h1.1992c0.53125 0.015625 1.0586-0.050781 1.5664-0.19922 0.42969-0.14063 0.82422-0.37891 1.1523-0.6875 0.55859-0.50781 0.9375-1.1836 1.0742-1.9297 0.21875-0.76953 0.054687-1.5977-0.4375-2.2305zm-1.668 2.0352c-0.046875 0.41797-0.25 0.80469-0.5625 1.0898-0.39062 0.24609-0.85547 0.35938-1.3164 0.32031h-0.71094l0.51563-2.6484h0.92187c0.67578 0 0.94922 0.14453 1.0586 0.26562 0.17188 0.29297 0.20312 0.64844 0.09375 0.97266z"
      fill="#fff" />
    <path
      d="m10.18 13.906c0.43359-0.054688 0.875 0.070312 1.2188 0.33984 0.22266 0.34375 0.27734 0.77344 0.14453 1.1602-0.054688 0.47266-0.28516 0.91016-0.64062 1.2227-0.42969 0.27734-0.9375 0.40625-1.4492 0.37109h-0.97656l0.59766-3.0898zm-3.918 6.2188h1.6055l0.38281-1.9648h1.3789c0.50391 0.015625 1.0117-0.046875 1.5-0.1875 0.39844-0.13281 0.76172-0.35156 1.0664-0.64453 0.52734-0.47266 0.88281-1.1094 1.0117-1.8086 0.20312-0.70312 0.0625-1.4609-0.38672-2.043-0.53516-0.53125-1.2812-0.80078-2.0352-0.73047h-3.0859z"
      fill="#000003" />
    <path
      d="m14.387 10.781h1.6016l-0.38672 1.9609h1.418c0.65234-0.066407 1.3086 0.097656 1.8516 0.46875 0.36328 0.41406 0.48047 0.99219 0.30469 1.5156l-0.66797 3.4336h-1.6172l0.63281-3.2617c0.089843-0.25391 0.0625-0.53516-0.078126-0.76172-0.23047-0.16406-0.51953-0.23828-0.80078-0.19922h-1.2734l-0.82422 4.2266h-1.5977z"
      fill="#000003" />
    <path
      d="m22.727 13.906c0.4375-0.054688 0.875 0.070312 1.2227 0.33984 0.22266 0.34375 0.27734 0.77344 0.14453 1.1602-0.058594 0.47266-0.28516 0.91016-0.64453 1.2227-0.42969 0.27734-0.9375 0.41016-1.4492 0.37109h-0.97656l0.59766-3.0898zm-3.918 6.2188h1.6094l0.38281-1.9648h1.375c0.50781 0.015625 1.0117-0.046875 1.5-0.1875 0.39844-0.13281 0.76562-0.35156 1.0703-0.64453 0.52734-0.47266 0.88281-1.1094 1.0117-1.8086 0.20313-0.70312 0.058594-1.4609-0.38672-2.043-0.53906-0.53125-1.2812-0.80078-2.0352-0.73047h-3.0938z"
      fill="#000003" />
  </g>
</svg>