<?xml version="1.0" encoding="UTF-8"?>
<svg width="32pt" height="32pt" version="1.0" viewBox="0 0 32 32" xmlns="http://www.w3.org/2000/svg"
    xmlns:xlink="http://www.w3.org/1999/xlink">
    <defs>
        <linearGradient id="e" x1="70.252" x2="170.66" y1="1237.5" y2="1151.1"
            gradientTransform="matrix(.14075 0 0 -.142 -7.3038 179.52)" gradientUnits="userSpaceOnUse">
            <stop stop-color="#5a9ed4" offset="0" />
            <stop stop-color="#2f6997" offset="1" />
        </linearGradient>
        <linearGradient id="d" x1="209.47" x2="173.62" y1="1098.8" y2="1149.5"
            gradientTransform="matrix(.14075 0 0 -.142 -7.3038 179.52)" gradientUnits="userSpaceOnUse">
            <stop stop-color="#ffd43b" offset="0" />
            <stop stop-color="#ffe772" offset="1" />
        </linearGradient>
        <filter id="g" x="0%" y="0%" width="100%" height="100%">
            <feColorMatrix in="SourceGraphic" values="0 0 0 0 1 0 0 0 0 1 0 0 0 0 1 0 0 0 1 0" />
        </filter>
        <mask id="c">
            <g filter="url(#g)">
                <rect width="32" height="32" fill-opacity=".44314" />
            </g>
        </mask>
        <radialGradient id="b" cx="1825.7" cy="444.45" r="26.743"
            gradientTransform="matrix(0 -.06 -.26375 0 133.24 139.4)" gradientUnits="userSpaceOnUse">
            <stop stop-color="#b8b8b8" stop-opacity=".49804" offset="0" />
            <stop stop-color="#7f7f7f" stop-opacity="0" offset="1" />
        </radialGradient>
        <clipPath id="f">
            <rect width="32" height="32" />
        </clipPath>
        <g id="a" clip-path="url(#f)">
            <path
                d="m24.328 29.898c0 0.88672-3.7031 1.6055-8.2734 1.6055-4.5703 0-8.2734-0.71875-8.2734-1.6055 0-0.88281 3.7031-1.6016 8.2734-1.6016 4.5703 0 8.2734 0.71875 8.2734 1.6016z"
                fill="url(#b)" />
        </g>
    </defs>
    <path
        d="m15.848 3.0625c-1.0547 0.003906-2.0625 0.09375-2.9492 0.25-2.6133 0.46094-3.0859 1.4297-3.0859 3.2109v2.3516h6.1719v0.78516h-8.4883c-1.7969 0-3.3672 1.0781-3.8594 3.1289-0.56641 2.3516-0.58984 3.8203 0 6.2734 0.44141 1.8281 1.4883 3.1328 3.2812 3.1328h2.125v-2.8203c0-2.0391 1.7617-3.8359 3.8555-3.8359h6.1641c1.7188 0 3.0898-1.4141 3.0898-3.1367v-5.8789c0-1.6719-1.4141-2.9297-3.0898-3.2109-1.0586-0.17578-2.1602-0.25391-3.2148-0.25zm-3.3398 1.8906c0.64063 0 1.1602 0.53125 1.1602 1.1797 0 0.64844-0.51953 1.1758-1.1602 1.1758-0.63672 0-1.1562-0.52734-1.1562-1.1758 0-0.64844 0.51953-1.1797 1.1562-1.1797z"
        fill="url(#e)" />
    <path
        d="m22.922 9.6602v2.7422c0 2.125-1.8047 3.9141-3.8594 3.9141h-6.1641c-1.6914 0-3.0859 1.4453-3.0859 3.1367v5.8789c0 1.6719 1.4531 2.6562 3.0859 3.1367 1.9531 0.57422 3.8281 0.67578 6.1641 0 1.5547-0.44922 3.0898-1.3555 3.0898-3.1367v-2.3555h-6.168v-0.78125h9.2539c1.793 0 2.4609-1.2539 3.0859-3.1328 0.64453-1.9336 0.61719-3.793 0-6.2734-0.44141-1.7852-1.2891-3.1289-3.0859-3.1289zm-3.4688 14.887c0.64062 0 1.1562 0.52344 1.1562 1.1719 0 0.65234-0.51562 1.1797-1.1562 1.1797-0.63672 0-1.1602-0.52734-1.1602-1.1797 0-0.64844 0.52344-1.1719 1.1602-1.1719z"
        fill="url(#d)" />
    <use mask="url(#c)" xlink:href="#a" />
</svg>