<?xml version="1.0" encoding="UTF-8"?>
<svg xmlns="http://www.w3.org/2000/svg" xmlns:xlink="http://www.w3.org/1999/xlink" width="32pt" height="32pt"
    viewBox="0 0 32 32" version="1.0">
    <g id="surface1">
        <path style=" stroke:none;fill-rule:nonzero;fill:rgb(38.039216%,85.490196%,98.431373%);fill-opacity:1;"
            d="M 18.851562 16 C 18.851562 17.574219 17.574219 18.851562 16 18.851562 C 14.425781 18.851562 13.148438 17.574219 13.148438 16 C 13.148438 14.425781 14.425781 13.148438 16 13.148438 C 17.574219 13.148438 18.851562 14.425781 18.851562 16 Z M 18.851562 16 " />
        <path style=" stroke:none;fill-rule:nonzero;fill:rgb(38.039216%,85.490196%,98.431373%);fill-opacity:1;"
            d="M 26.824219 11.300781 C 26.273438 11.101562 25.699219 10.898438 25.101562 10.726562 C 25.25 10.125 25.375 9.523438 25.476562 8.949219 C 26 5.648438 25.425781 3.324219 23.824219 2.425781 C 23.351562 2.148438 22.824219 2.023438 22.226562 2.023438 C 20.476562 2.023438 18.25 3.324219 16 5.5 C 13.75 3.324219 11.523438 2.023438 9.773438 2.023438 C 9.175781 2.023438 8.648438 2.148438 8.175781 2.425781 C 6.574219 3.351562 6 5.675781 6.523438 8.949219 C 6.625 9.523438 6.75 10.125 6.898438 10.726562 C 6.300781 10.898438 5.726562 11.074219 5.175781 11.300781 C 2.050781 12.5 0.351562 14.148438 0.351562 16 C 0.351562 17.851562 2.074219 19.5 5.175781 20.699219 C 5.726562 20.898438 6.300781 21.101562 6.898438 21.273438 C 6.75 21.875 6.625 22.476562 6.523438 23.050781 C 6 26.351562 6.574219 28.675781 8.175781 29.574219 C 8.648438 29.851562 9.175781 29.976562 9.773438 29.976562 C 11.550781 29.976562 13.773438 28.675781 16 26.5 C 18.25 28.675781 20.476562 29.976562 22.226562 29.976562 C 22.824219 29.976562 23.351562 29.851562 23.824219 29.574219 C 25.425781 28.648438 26 26.324219 25.476562 23.050781 C 25.375 22.476562 25.25 21.875 25.101562 21.273438 C 25.699219 21.101562 26.273438 20.925781 26.824219 20.699219 C 29.949219 19.5 31.648438 17.851562 31.648438 16 C 31.648438 14.148438 29.949219 12.5 26.824219 11.300781 Z M 23.125 3.675781 C 24.148438 4.273438 24.5 6.125 24.074219 8.75 C 24 9.273438 23.875 9.824219 23.726562 10.398438 C 22.425781 10.101562 21.050781 9.898438 19.601562 9.773438 C 18.75 8.574219 17.875 7.5 17 6.523438 C 18.851562 4.699219 20.726562 3.449219 22.25 3.449219 C 22.574219 3.449219 22.875 3.523438 23.125 3.675781 Z M 20.324219 18.5 C 19.875 19.300781 19.351562 20.101562 18.800781 20.898438 C 17.875 20.976562 16.949219 21 16 21 C 15.023438 21 14.101562 20.976562 13.199219 20.898438 C 12.648438 20.101562 12.148438 19.300781 11.699219 18.5 C 11.226562 17.675781 10.773438 16.824219 10.375 16 C 10.773438 15.175781 11.226562 14.324219 11.699219 13.5 C 12.148438 12.699219 12.675781 11.898438 13.226562 11.101562 C 14.148438 11.023438 15.074219 11 16.023438 11 C 17 11 17.925781 11.023438 18.824219 11.101562 C 19.375 11.898438 19.875 12.699219 20.324219 13.5 C 20.800781 14.324219 21.25 15.175781 21.648438 16 C 21.226562 16.824219 20.800781 17.648438 20.324219 18.5 Z M 22.398438 17.675781 C 22.773438 18.550781 23.074219 19.398438 23.351562 20.25 C 22.5 20.449219 21.601562 20.601562 20.648438 20.726562 C 20.949219 20.25 21.273438 19.75 21.550781 19.226562 C 21.851562 18.699219 22.125 18.175781 22.398438 17.675781 Z M 16 24.449219 C 15.398438 23.800781 14.824219 23.101562 14.273438 22.375 C 14.851562 22.398438 15.425781 22.425781 16 22.425781 C 16.574219 22.425781 17.148438 22.398438 17.726562 22.375 C 17.175781 23.101562 16.601562 23.800781 16 24.449219 Z M 11.351562 20.699219 C 10.398438 20.574219 9.5 20.425781 8.648438 20.226562 C 8.925781 19.398438 9.226562 18.523438 9.601562 17.648438 C 9.875 18.148438 10.148438 18.675781 10.449219 19.175781 C 10.75 19.726562 11.050781 20.199219 11.351562 20.699219 Z M 9.601562 14.324219 C 9.226562 13.449219 8.925781 12.601562 8.648438 11.75 C 9.5 11.550781 10.398438 11.398438 11.351562 11.273438 C 11.050781 11.75 10.726562 12.25 10.449219 12.773438 C 10.148438 13.300781 9.875 13.824219 9.601562 14.324219 Z M 16 7.550781 C 16.601562 8.199219 17.175781 8.898438 17.726562 9.625 C 17.148438 9.601562 16.574219 9.574219 16 9.574219 C 15.425781 9.574219 14.851562 9.601562 14.273438 9.625 C 14.824219 8.898438 15.398438 8.199219 16 7.550781 Z M 21.550781 12.800781 L 20.648438 11.300781 C 21.601562 11.425781 22.5 11.574219 23.351562 11.773438 C 23.074219 12.601562 22.773438 13.476562 22.398438 14.351562 C 22.125 13.824219 21.851562 13.300781 21.550781 12.800781 Z M 7.925781 8.75 C 7.5 6.125 7.851562 4.273438 8.875 3.675781 C 9.125 3.523438 9.425781 3.449219 9.75 3.449219 C 11.25 3.449219 13.125 4.675781 15 6.523438 C 14.125 7.476562 13.25 8.574219 12.398438 9.773438 C 10.949219 9.898438 9.574219 10.125 8.273438 10.398438 C 8.125 9.824219 8.023438 9.273438 7.925781 8.75 Z M 1.75 16 C 1.75 14.824219 3.175781 13.574219 5.675781 12.648438 C 6.175781 12.449219 6.726562 12.273438 7.273438 12.125 C 7.675781 13.375 8.175781 14.699219 8.773438 16.023438 C 8.175781 17.351562 7.648438 18.648438 7.273438 19.898438 C 3.824219 18.898438 1.75 17.398438 1.75 16 Z M 8.875 28.324219 C 7.851562 27.726562 7.5 25.875 7.925781 23.25 C 8 22.726562 8.125 22.175781 8.273438 21.601562 C 9.574219 21.898438 10.949219 22.101562 12.398438 22.226562 C 13.25 23.425781 14.125 24.5 15 25.476562 C 13.148438 27.300781 11.273438 28.550781 9.75 28.550781 C 9.425781 28.550781 9.125 28.476562 8.875 28.324219 Z M 24.074219 23.25 C 24.5 25.875 24.148438 27.726562 23.125 28.324219 C 22.875 28.476562 22.574219 28.550781 22.25 28.550781 C 20.75 28.550781 18.875 27.324219 17 25.476562 C 17.875 24.523438 18.75 23.425781 19.601562 22.226562 C 21.050781 22.101562 22.425781 21.875 23.726562 21.601562 C 23.875 22.175781 23.976562 22.726562 24.074219 23.25 Z M 26.324219 19.351562 C 25.824219 19.550781 25.273438 19.726562 24.726562 19.875 C 24.324219 18.625 23.824219 17.300781 23.226562 15.976562 C 23.824219 14.648438 24.351562 13.351562 24.726562 12.101562 C 28.175781 13.101562 30.25 14.601562 30.25 16 C 30.25 17.175781 28.800781 18.425781 26.324219 19.351562 Z M 26.324219 19.351562 " />
    </g>
</svg>