<?xml version="1.0" encoding="UTF-8"?>
<svg width="32pt" height="32pt" version="1.0" viewBox="0 0 32 32" xmlns="http://www.w3.org/2000/svg">
    <g fill="#61d9fb">
        <path
            d="m18.852 16c0 1.5742-1.2773 2.8516-2.8516 2.8516s-2.8516-1.2773-2.8516-2.8516 1.2773-2.8516 2.8516-2.8516 2.8516 1.2773 2.8516 2.8516z" />
        <path
            d="m26.824 11.301c-0.55078-0.19922-1.125-0.40234-1.7227-0.57422 0.14844-0.60156 0.27344-1.2031 0.375-1.7773 0.52344-3.3008-0.050781-5.625-1.6523-6.5234-0.47266-0.27734-1-0.40234-1.5977-0.40234-1.75 0-3.9766 1.3008-6.2266 3.4766-2.25-2.1758-4.4766-3.4766-6.2266-3.4766-0.59766 0-1.125 0.125-1.5977 0.40234-1.6016 0.92578-2.1758 3.25-1.6523 6.5234 0.10156 0.57422 0.22656 1.1758 0.375 1.7773-0.59766 0.17188-1.1719 0.34766-1.7227 0.57422-3.125 1.1992-4.8242 2.8477-4.8242 4.6992s1.7227 3.5 4.8242 4.6992c0.55078 0.19922 1.125 0.40234 1.7227 0.57422-0.14844 0.60156-0.27344 1.2031-0.375 1.7773-0.52344 3.3008 0.050781 5.625 1.6523 6.5234 0.47266 0.27734 1 0.40234 1.5977 0.40234 1.7773 0 4-1.3008 6.2266-3.4766 2.25 2.1758 4.4766 3.4766 6.2266 3.4766 0.59766 0 1.125-0.125 1.5977-0.40234 1.6016-0.92578 2.1758-3.25 1.6523-6.5234-0.10156-0.57422-0.22656-1.1758-0.375-1.7773 0.59766-0.17188 1.1719-0.34766 1.7227-0.57422 3.125-1.1992 4.8242-2.8477 4.8242-4.6992s-1.6992-3.5-4.8242-4.6992zm-3.6992-7.625c1.0234 0.59766 1.375 2.4492 0.94922 5.0742-0.074219 0.52344-0.19922 1.0742-0.34766 1.6484-1.3008-0.29688-2.6758-0.5-4.125-0.625-0.85156-1.1992-1.7266-2.2734-2.6016-3.25 1.8516-1.8242 3.7266-3.0742 5.25-3.0742 0.32422 0 0.625 0.074219 0.875 0.22656zm-2.8008 14.824c-0.44922 0.80078-0.97266 1.6016-1.5234 2.3984-0.92578 0.078124-1.8516 0.10156-2.8008 0.10156-0.97656 0-1.8984-0.023438-2.8008-0.10156-0.55078-0.79688-1.0508-1.5977-1.5-2.3984-0.47266-0.82422-0.92578-1.6758-1.3242-2.5 0.39844-0.82422 0.85156-1.6758 1.3242-2.5 0.44922-0.80078 0.97656-1.6016 1.5273-2.3984 0.92188-0.078124 1.8477-0.10156 2.7969-0.10156 0.97656 0 1.9023 0.023438 2.8008 0.10156 0.55078 0.79688 1.0508 1.5977 1.5 2.3984 0.47656 0.82422 0.92578 1.6758 1.3242 2.5-0.42188 0.82422-0.84766 1.6484-1.3242 2.5zm2.0742-0.82422c0.375 0.875 0.67578 1.7227 0.95312 2.5742-0.85156 0.19922-1.75 0.35156-2.7031 0.47656 0.30078-0.47656 0.625-0.97656 0.90234-1.5 0.30078-0.52734 0.57422-1.0508 0.84766-1.5508zm-6.3984 6.7734c-0.60156-0.64844-1.1758-1.3477-1.7266-2.0742 0.57812 0.023438 1.1523 0.050781 1.7266 0.050781s1.1484-0.027343 1.7266-0.050781c-0.55078 0.72656-1.125 1.4258-1.7266 2.0742zm-4.6484-3.75c-0.95312-0.125-1.8516-0.27344-2.7031-0.47266 0.27734-0.82812 0.57812-1.7031 0.95312-2.5781 0.27344 0.5 0.54688 1.0273 0.84766 1.5273 0.30078 0.55078 0.60156 1.0234 0.90234 1.5234zm-1.75-6.375c-0.375-0.875-0.67578-1.7227-0.95312-2.5742 0.85156-0.19922 1.75-0.35156 2.7031-0.47656-0.30078 0.47656-0.625 0.97656-0.90234 1.5-0.30078 0.52734-0.57422 1.0508-0.84766 1.5508zm6.3984-6.7734c0.60156 0.64844 1.1758 1.3477 1.7266 2.0742-0.57812-0.023438-1.1523-0.050781-1.7266-0.050781s-1.1484 0.027343-1.7266 0.050781c0.55078-0.72656 1.125-1.4258 1.7266-2.0742zm5.5508 5.25l-0.90234-1.5c0.95312 0.125 1.8516 0.27344 2.7031 0.47266-0.27734 0.82812-0.57812 1.7031-0.95312 2.5781-0.27344-0.52734-0.54688-1.0508-0.84766-1.5508zm-13.625-4.0508c-0.42578-2.625-0.074219-4.4766 0.94922-5.0742 0.25-0.15234 0.55078-0.22656 0.875-0.22656 1.5 0 3.375 1.2266 5.25 3.0742-0.875 0.95312-1.75 2.0508-2.6016 3.25-1.4492 0.125-2.8242 0.35156-4.125 0.625-0.14844-0.57422-0.25-1.125-0.34766-1.6484zm-6.1758 7.25c0-1.1758 1.4258-2.4258 3.9258-3.3516 0.5-0.19922 1.0508-0.375 1.5977-0.52344 0.40234 1.25 0.90234 2.5742 1.5 3.8984-0.59766 1.3281-1.125 2.625-1.5 3.875-3.4492-1-5.5234-2.5-5.5234-3.8984zm7.125 12.324c-1.0234-0.59766-1.375-2.4492-0.94922-5.0742 0.074219-0.52344 0.19922-1.0742 0.34766-1.6484 1.3008 0.29688 2.6758 0.5 4.125 0.625 0.85156 1.1992 1.7266 2.2734 2.6016 3.25-1.8516 1.8242-3.7266 3.0742-5.25 3.0742-0.32422 0-0.625-0.074219-0.875-0.22656zm15.199-5.0742c0.42578 2.625 0.074219 4.4766-0.94922 5.0742-0.25 0.15234-0.55078 0.22656-0.875 0.22656-1.5 0-3.375-1.2266-5.25-3.0742 0.875-0.95312 1.75-2.0508 2.6016-3.25 1.4492-0.125 2.8242-0.35156 4.125-0.625 0.14844 0.57422 0.25 1.125 0.34766 1.6484zm2.25-3.8984c-0.5 0.19922-1.0508 0.375-1.5977 0.52344-0.40234-1.25-0.90234-2.5742-1.5-3.8984 0.59766-1.3281 1.125-2.625 1.5-3.875 3.4492 1 5.5234 2.5 5.5234 3.8984 0 1.1758-1.4492 2.4258-3.9258 3.3516z" />
    </g>
</svg>