<?xml version="1.0" encoding="UTF-8"?>
<svg width="32pt" height="32pt" version="1.0" viewBox="0 0 32 32" xmlns="http://www.w3.org/2000/svg">
    <path
        d="m26.109 17.57c-0.87891 0.003907-1.7461 0.20313-2.5352 0.58984-0.25-0.41016-0.44141-0.85156-0.57031-1.3125-0.074218-0.36328-0.089844-0.73438-0.050781-1.1016 0.085937-0.40234 0.19531-0.80078 0.33203-1.1914-0.003906-0.050782-0.058594-0.29297-0.625-0.30078-0.5625-0.007812-1.0469 0.10547-1.0977 0.25781-0.097656 0.26953-0.17578 0.55078-0.23438 0.83203-0.46875 1.1484-1.0391 2.2539-1.7148 3.293-0.375-0.61719-0.53125-1.3477-0.4375-2.0664 0.082031-0.40234 0.19531-0.80078 0.33203-1.1914-0.007812-0.050781-0.0625-0.28906-0.625-0.30078-0.5625-0.007813-1.0469 0.10938-1.1016 0.25781-0.050781 0.14844-0.11719 0.5-0.23438 0.83594-0.11719 0.33203-1.4844 3.3828-1.8398 4.1719-0.18359 0.39844-0.34375 0.72656-0.45703 0.94531-0.003906 0.015626-0.011719 0.027344-0.019531 0.039063-0.097657 0.19141-0.15234 0.29297-0.15234 0.29297v0.007812c-0.078125 0.13672-0.16016 0.26562-0.19922 0.26562-0.074218-0.28906-0.070312-0.58594 0.007813-0.87109 0.20312-1.0586 0.69141-2.7031 0.6875-2.7617 0-0.03125 0.089843-0.31641-0.31641-0.46484-0.19531-0.09375-0.42969-0.050781-0.57812 0.10156-0.039063 0-0.0625 0.085937-0.0625 0.085937s0.44531-1.8516-0.84766-1.8516c-1.0195 0.20313-1.9102 0.8125-2.4766 1.6836-0.34766 0.1875-1.0898 0.59375-1.8828 1.0273-0.30078 0.16797-0.61328 0.33984-0.90234 0.5-0.023437-0.019531-0.042968-0.046875-0.0625-0.066406-1.5742-1.6758-4.4688-2.8633-4.3438-5.1055 0.042969-0.82031 0.32422-2.9688 5.5586-5.5742 4.3047-2.125 7.7305-1.5352 8.3242-0.23047 0.85156 1.8594-1.8359 5.3164-6.2852 5.8203-0.99609 0.19922-2.0312-0.0625-2.8125-0.71094-0.23438-0.25781-0.26953-0.27344-0.35938-0.22266-0.14062 0.078125-0.050782 0.30859 0 0.44141 0.34375 0.62109 0.92188 1.0742 1.6094 1.2617 1.75 0.37891 3.5742 0.19922 5.2148-0.51562 2.6992-1.043 4.8008-3.9453 4.1836-6.3711-0.61719-2.4648-4.7109-3.2812-8.582-1.9023-2.4258 0.81641-4.6641 2.1016-6.5938 3.7852-2.1328 1.9922-2.4688 3.7266-2.332 4.4531 0.5 2.5781 4.0508 4.2539 5.4727 5.5-0.074219 0.042969-0.14062 0.078125-0.19531 0.10938-0.71094 0.35156-3.4219 1.7695-4.1016 3.2656-0.76562 1.6992 0.125 2.9141 0.71094 3.0781 1.8164 0.4375 3.7109-0.32812 4.7109-1.9062 0.84375-1.293 1.0039-2.9219 0.42578-4.3516-0.007812-0.011718-0.011719-0.023437-0.023437-0.03125l0.55859-0.32812c0.36328-0.21484 0.72266-0.41406 1.0273-0.57813-0.20703 0.60156-0.32812 1.2266-0.36328 1.8633-0.070312 0.97266 0.22656 1.9336 0.83594 2.6992 0.1875 0.16016 0.42969 0.23828 0.67578 0.21875 0.59766 0 0.875-0.5 1.1758-1.0938 0.36719-0.72656 0.69922-1.5703 0.69922-1.5703s-0.41406 2.2812 0.71094 2.2812c0.41016 0 0.82422-0.53125 1.0078-0.80078v0.007812s0.007812-0.015625 0.03125-0.050781l0.066406-0.10938v-0.007813c0.16406-0.28906 0.53125-0.9375 1.0781-2.0156 0.70703-1.3906 1.3867-3.1328 1.3867-3.1328 0.066406 0.38281 0.15625 0.76172 0.26953 1.1328 0.16406 0.44922 0.35938 0.88672 0.58203 1.3086-0.16406 0.23047-0.26562 0.35938-0.26562 0.35938l0.007813 0.003906c-0.13281 0.17188-0.27734 0.36328-0.4375 0.54688-0.47266 0.51953-0.91016 1.0703-1.3125 1.6445-0.125 0.20312-0.070313 0.46484 0.12109 0.60156 0.21094 0.10938 0.45313 0.14844 0.6875 0.11328 0.35156-0.019531 0.69922-0.097656 1.0273-0.23437 0.31641-0.11328 0.61328-0.26953 0.88281-0.46484 0.57031-0.39453 0.89062-1.0547 0.85156-1.7461-0.03125-0.42578-0.14062-0.84375-0.32422-1.2305 0.050782-0.074219 0.10156-0.14453 0.14844-0.21484 0.57031-0.85156 1.082-1.7344 1.5352-2.6523 0.066406 0.38281 0.15625 0.76172 0.26953 1.1328 0.13672 0.38672 0.30469 0.76172 0.5 1.125-0.65234 0.50391-1.168 1.1641-1.4961 1.9219-0.32031 0.92969-0.070313 1.3477 0.39844 1.4453 0.26172 0.019531 0.51953-0.035156 0.75-0.15234 0.33594-0.10938 0.65625-0.27344 0.94531-0.48438 0.61719-0.36719 1.0078-1.0156 1.043-1.7305-0.023437-0.35156-0.10156-0.69531-0.23437-1.0234 0.86328-0.33594 1.7969-0.44531 2.7148-0.3125 2.4336 0.28516 2.9141 1.8047 2.8242 2.4453-0.089844 0.46094-0.37109 0.85938-0.77344 1.0938-0.16797 0.10938-0.22656 0.14453-0.21094 0.22266 0.019531 0.10937 0.10156 0.10547 0.24609 0.085937 0.75-0.23438 1.2812-0.90625 1.332-1.6914 0.078125-1.5-1.3555-3.1445-3.8867-3.1289zm-18.781 6.3281c-0.80469 0.88281-1.9297 1.2148-2.418 0.93359-0.51953-0.30078-0.31641-1.6016 0.67578-2.5312 0.58984-0.53125 1.2227-1.0039 1.8984-1.418 0.12109-0.074218 0.29297-0.17578 0.5-0.30078l0.058594-0.03125 0.12109-0.078125c0.36328 1.2109 0.042969 2.5195-0.83594 3.4258zm5.8828-4c-0.28125 0.6875-0.86719 2.4414-1.2266 2.3438-0.30859-0.082032-0.5-1.4141-0.0625-2.7266 0.22266-0.63281 0.54688-1.2227 0.95703-1.7539 0.44141-0.49219 0.92578-0.65625 1.043-0.45312-0.10547 0.89453-0.34766 1.7656-0.71094 2.5898zm4.8516 2.3242c-0.11719 0.058594-0.22656 0.097656-0.28125 0.070313-0.035156-0.019531 0.054688-0.097657 0.054688-0.097657s0.60547-0.65625 0.84766-0.95312c0.13672-0.17188 0.30078-0.37891 0.47656-0.60938v0.066407c0 0.78125-0.75781 1.3086-1.0938 1.5234zm3.7461-0.85547c-0.085938-0.058594-0.074219-0.26563 0.21875-0.90234 0.20312-0.41406 0.48828-0.77734 0.83594-1.0742 0.050781 0.14844 0.078125 0.30859 0.082031 0.46875 0.007813 0.70312-0.46094 1.3242-1.1367 1.5078z"
        fill="#cd6799" />
</svg>