<?xml version="1.0" encoding="UTF-8"?>
<svg xmlns="http://www.w3.org/2000/svg" xmlns:xlink="http://www.w3.org/1999/xlink" width="32pt" height="32pt"
    viewBox="0 0 32 32" version="1.0">
    <g id="surface1">
        <path style=" stroke:none;fill-rule:evenodd;fill:rgb(79.607843%,40%,60%);fill-opacity:1;"
            d="M 0.304688 14.039062 C 0.304688 14.214844 0.355469 14.332031 0.386719 14.445312 C 0.574219 15.175781 0.980469 15.804688 1.460938 16.378906 C 2.148438 17.199219 2.988281 17.855469 3.851562 18.476562 C 4.597656 19.011719 5.359375 19.539062 6.109375 20.070312 C 6.238281 20.164062 6.359375 20.265625 6.5 20.378906 C 6.378906 20.445312 6.28125 20.503906 6.175781 20.554688 C 5.1875 21.058594 4.234375 21.621094 3.355469 22.300781 C 2.828125 22.710938 2.316406 23.148438 1.953125 23.71875 C 1.375 24.636719 1.167969 25.617188 1.601562 26.660156 C 1.726562 26.964844 1.921875 27.226562 2.191406 27.421875 C 2.28125 27.484375 2.378906 27.546875 2.484375 27.574219 C 2.746094 27.636719 3.015625 27.675781 3.285156 27.726562 L 4.042969 27.726562 C 4.882812 27.648438 5.644531 27.363281 6.335938 26.886719 C 7.414062 26.144531 8.140625 25.144531 8.453125 23.867188 C 8.679688 22.933594 8.6875 22.003906 8.421875 21.078125 C 2.601562 21.148438 -2.175781 16.484375 -2.246094 10.664062 C -2.316406 4.84375 2.347656 0.0703125 8.167969 0 C 8.132812 -0.0820312 8.097656 -0.164062 8.050781 -0.269531 L 9.769531 -1.257812 L 9.796875 -1.234375 C 9.765625 -1.132812 9.730469 -1.03125 9.703125 -0.925781 C 9.5 -0.179688 9.363281 0.578125 9.410156 1.351562 C 9.464844 2.175781 9.695312 2.949219 10.175781 3.640625 C 10.566406 4.195312 11.496094 4.21875 11.914062 3.65625 C 12.058594 3.457031 12.203125 3.25 12.308594 3.027344 C 12.589844 2.449219 12.851562 1.863281 13.117188 1.277344 L 13.164062 1.167969 C 13.144531 1.445312 13.121094 1.691406 13.113281 1.933594 C 13.097656 2.3125 13.117188 2.691406 13.25 3.054688 C 13.359375 3.363281 13.550781 3.59375 13.902344 3.632812 C 14.144531 3.664062 14.339844 3.550781 14.519531 3.410156 C 13.574219 6.476562 10.324219 8.199219 7.257812 7.257812 C 4.191406 6.316406 2.46875 3.066406 3.410156 0 C 3.886719 -0.871094 4.375 -1.742188 4.804688 -2.636719 C 5.269531 -3.601562 5.679688 -4.597656 6.109375 -5.582031 L 6.183594 -5.757812 C 6.285156 -5.355469 6.355469 -4.960938 6.488281 -4.589844 C 6.640625 -4.15625 6.828125 -3.734375 7.035156 -3.324219 C 7.132812 -3.132812 7.121094 -3.003906 6.984375 -2.84375 C 6.421875 -2.164062 5.867188 -1.476562 5.3125 -0.789062 C 5.191406 -0.636719 5.066406 -0.480469 4.964844 -0.316406 C 5.121094 -0.207031 5.238281 -0.0585938 5.304688 0.117188 L 7.722656 0.117188 C 8.496094 0.0625 9.199219 -0.210938 9.820312 -0.671875 C 10.625 -1.265625 10.882812 -2.082031 10.6875 -3.046875 C 10.636719 -3.308594 10.542969 -3.5625 10.453125 -3.8125 C 10.410156 -3.929688 10.410156 -4.007812 10.484375 -4.113281 C 11.125 -5.03125 11.675781 -6.007812 12.1875 -7.007812 C 12.207031 -7.046875 12.230469 -7.085938 12.265625 -7.125 C 12.429688 -6.265625 12.679688 -5.433594 13.125 -4.679688 C 12.898438 -4.457031 12.671875 -4.257812 12.46875 -4.039062 C 12.019531 -3.554688 11.628906 -3.03125 11.425781 -2.390625 C 11.339844 -2.117188 11.269531 -1.835938 11.308594 -1.539062 C 11.371094 -1.082031 11.746094 -0.785156 12.195312 -0.890625 C 13.160156 -1.113281 13.992188 -1.566406 14.597656 -2.371094 C 15.007812 -2.910156 15.042969 -3.515625 14.875 -4.148438 C 14.828125 -4.320312 14.769531 -4.488281 14.710938 -4.6875 C 14.949219 -4.761719 15.179688 -4.847656 15.421875 -4.902344 C 16.664062 -5.1875 17.894531 -5.136719 19.09375 -4.6875 C 19.796875 -4.425781 20.363281 -3.988281 20.695312 -3.296875 C 21.105469 -2.453125 20.878906 -1.648438 20.085938 -1.117188 C 20.007812 -1.066406 19.925781 -1.027344 19.863281 -0.964844 C 20.164062 -1.011719 20.441406 -0.804688 20.488281 -0.507812 C 20.535156 -0.207031 20.328125 0.0742188 20.03125 0.117188 C 20.035156 0.148438 20.117188 0.1875 20.164062 0.1875 C 20.425781 0.183594 20.636719 0.046875 20.839844 -0.09375 C 21.351562 -0.445312 21.726562 -0.921875 21.804688 -1.546875 L 21.820312 -1.59375 L 21.800781 -2 C 21.792969 -2.023438 21.808594 -2.046875 21.804688 -2.066406 C 21.695312 -2.976562 21.210938 -3.683594 20.503906 -4.238281 C 19.683594 -4.878906 18.714844 -5.144531 17.691406 -5.183594 C 18.585938 -3.558594 18.722656 -1.617188 18.066406 0.117188 C 17.839844 0.199219 17.621094 0.296875 17.394531 0.386719 C 17.363281 0.332031 17.332031 0.28125 17.304688 0.226562 C 17.074219 -0.25 16.792969 -0.703125 16.730469 -1.246094 C 16.6875 -1.632812 16.632812 -2.015625 16.722656 -2.398438 C 16.8125 -2.765625 16.925781 -3.125 17.035156 -3.488281 C 17.089844 -3.675781 17.050781 -3.78125 16.875 -3.863281 C 17.972656 -3.847656 18.851562 -2.941406 18.832031 -1.839844 C 18.816406 -0.742188 17.910156 0.136719 16.808594 0.117188 C 16.371094 0.0546875 15.941406 0.0898438 15.515625 0.214844 C 15.367188 0.257812 15.257812 0.34375 15.222656 0.507812 C 15.207031 0.605469 15.167969 0.695312 15.140625 0.789062 C 15.027344 1.179688 14.949219 1.578125 14.773438 1.949219 C 14.324219 2.882812 13.8125 3.78125 13.285156 4.675781 C 13.230469 4.769531 13.171875 4.867188 13.097656 4.980469 C 12.914062 4.597656 12.71875 4.25 12.660156 3.847656 C 12.59375 3.386719 12.539062 2.929688 12.652344 2.476562 C 12.738281 2.136719 12.847656 1.804688 12.949219 1.46875 C 13 1.3125 12.976562 1.226562 12.832031 1.144531 C 12.757812 1.101562 12.675781 1.066406 12.59375 1.050781 C 12.582031 0.738281 12.617188 0.421875 12.703125 0.117188 C 12.570312 0.164062 12.496094 0.25 12.457031 0.390625 C 12.335938 0.804688 12.230469 1.226562 12.058594 1.621094 C 11.367188 3.210938 10.652344 4.789062 9.941406 6.371094 C 9.789062 6.703125 9.617188 7.023438 9.449219 7.34375 C 9.40625 7.425781 9.34375 7.496094 9.292969 7.574219 C 9.25 7.523438 9.230469 7.488281 9.234375 7.453125 C 9.234375 7.25 9.210938 7.039062 9.25 6.84375 C 15.1875 29.148438 2.480469 52.164062 -19.558594 59.023438 C -41.59375 65.878906 -65.117188 54.140625 -72.886719 32.40625 C -80.652344 10.671875 -69.898438 -13.316406 -48.507812 -21.980469 C -27.117188 -30.644531 -2.699219 -20.894531 6.84375 0.117188 C 6.960938 -0.367188 7.097656 -0.851562 7.230469 -1.332031 C 7.273438 -1.496094 7.273438 -1.644531 7.15625 -1.78125 C 6.960938 -2.007812 6.554688 -2.058594 6.3125 -1.882812 L 6.203125 -1.824219 L 6.226562 -1.996094 C 6.277344 -2.367188 6.285156 -2.734375 6.183594 -3.097656 C 6.058594 -3.554688 5.734375 -3.8125 5.265625 -3.800781 C 5.042969 -3.792969 4.8125 -3.753906 4.609375 -3.675781 C 3.757812 -3.339844 3.097656 -2.746094 2.539062 -2.035156 C 3.132812 -2.078125 3.652344 -1.632812 3.695312 -1.039062 C 3.742188 -0.445312 3.296875 0.0742188 2.703125 0.117188 C 1.980469 0.519531 1.253906 0.914062 0.527344 1.3125 L -0.277344 1.753906 C -0.496094 1.550781 -0.691406 1.335938 -0.914062 1.152344 C -1.597656 0.597656 -2.289062 0.0546875 -2.976562 -0.496094 C -3.585938 -0.980469 -4.175781 -1.488281 -4.625 -2.136719 C -4.960938 -2.613281 -5.175781 -3.140625 -5.199219 -3.734375 C -5.222656 -4.488281 -5.007812 -5.179688 -4.625 -5.824219 C -4.132812 -6.648438 -3.460938 -7.308594 -2.722656 -7.90625 C -1.941406 -8.539062 -1.09375 -9.074219 -0.21875 -9.566406 C 1.003906 -10.25 2.265625 -10.859375 3.617188 -11.257812 C 5.003906 -11.671875 6.410156 -11.90625 7.859375 -11.742188 C 8.429688 -11.675781 8.980469 -11.546875 9.492188 -11.269531 C 9.878906 -11.054688 10.199219 -10.773438 10.347656 -10.339844 C 10.492188 -9.910156 10.488281 -9.472656 10.386719 -9.039062 C 10.179688 -8.152344 9.699219 -7.425781 9.089844 -6.773438 C 8.089844 -5.707031 6.871094 -4.980469 5.5 -4.503906 C 6.128906 -9.460938 10.363281 -13.167969 15.359375 -13.136719 C 20.355469 -13.101562 24.539062 -9.335938 25.101562 -4.371094 C 25.660156 0.59375 22.417969 5.195312 17.554688 6.339844 C 12.6875 7.484375 7.734375 4.8125 6.023438 0.117188 C 5.339844 0.175781 4.671875 0.117188 4.027344 -0.121094 C 3.597656 -0.277344 3.226562 -0.519531 2.925781 -0.867188 C 2.871094 -0.929688 2.804688 -1 2.703125 -0.941406 C 2.605469 -0.882812 2.589844 -0.789062 2.621094 -0.695312 C 2.675781 -0.539062 2.726562 -0.375 2.8125 -0.234375 C 3.027344 0.117188 3.339844 0.371094 3.683594 0.589844 C 4.34375 1.007812 5.082031 1.148438 5.847656 1.183594 C 7.011719 1.234375 8.144531 1.058594 9.261719 0.746094 C 10.859375 0.304688 12.246094 -0.484375 13.359375 -1.722656 C 14.285156 -2.753906 14.945312 -3.921875 15.085938 -5.328125 C 15.15625 -6.015625 15.082031 -6.6875 14.761719 -7.3125 C 14.414062 -7.992188 13.859375 -8.496094 13.195312 -8.84375 C 17.1875 4.542969 16.148438 4.25 15.070312 4.25 L 13.992188 4.25 C 12.691406 4.25 11.433594 4.625 10.207031 5.070312 C 9.28125 5.40625 8.375 5.804688 7.492188 6.246094 C 5.570312 7.203125 3.78125 8.359375 2.3125 9.953125 C 1.582031 10.746094 0.960938 11.621094 0.605469 12.648438 C -2.027344 8.761719 -1.640625 3.574219 1.539062 0.117188 M 8.5 9.121094 C 8.417969 10.238281 7.910156 11.140625 7.085938 11.871094 C 6.621094 12.285156 6.089844 12.578125 5.46875 12.679688 C 5.242188 12.71875 5.011719 12.726562 4.796875 12.632812 C 4.484375 12.5 4.414062 12.222656 4.40625 11.929688 C 4.398438 11.460938 4.5625 11.035156 4.789062 10.632812 C 5.082031 10.105469 5.511719 9.707031 5.972656 9.332031 C 6.699219 8.742188 7.484375 8.242188 8.289062 7.769531 L 8.351562 7.746094 C 8.476562 8.207031 8.535156 8.660156 8.5 9.121094 Z M 13.574219 17.746094 C 13.515625 18.101562 13.445312 18.457031 13.339844 18.800781 C 12.980469 19.996094 12.519531 21.152344 12.019531 22.296875 C 11.925781 22.507812 11.792969 22.699219 11.675781 22.898438 C 5.386719 22.875 0.304688 17.757812 0.328125 11.46875 C 0.351562 5.175781 5.46875 0.09375 11.757812 0.117188 C 11.613281 0.261719 11.476562 0.253906 11.40625 0.0664062 C 11.320312 -0.148438 11.265625 -0.382812 11.222656 -0.613281 C 11.191406 -0.765625 11.199219 -0.929688 11.191406 -1.085938 C 11.199219 -2.210938 11.542969 -3.230469 12.125 -4.179688 C 12.363281 -4.574219 12.625 -4.945312 13.023438 -5.195312 C 14.492188 -0.164062 11.601562 5.105469 6.570312 6.570312 C 1.539062 8.039062 -3.726562 5.148438 -5.195312 0.117188 C -4.980469 0.0585938 -4.851562 0.15625 -4.886719 0.371094 Z M 17.867188 23.210938 L 19.410156 21.410156 C 19.472656 22.078125 18.335938 23.414062 17.867188 23.210938 Z M 22.792969 22 C 22.683594 22.0625 22.566406 22.109375 22.453125 22.164062 C 22.351562 22.21875 22.316406 22.164062 22.3125 22.078125 C 16.25 22.140625 11.28125 17.28125 11.214844 11.214844 C 11.152344 5.152344 16.011719 0.183594 22.078125 0.117188 C 22.285156 -0.617188 22.667969 -1.242188 23.238281 -1.753906 L 23.277344 -1.773438 C 23.550781 -1.015625 23.238281 -0.179688 22.53125 0.222656 Z M 22.792969 22 " />
    </g>
</svg>