<?xml version="1.0" encoding="UTF-8"?>
<svg xmlns="http://www.w3.org/2000/svg" xmlns:xlink="http://www.w3.org/1999/xlink" width="32pt" height="32pt"
    viewBox="0 0 32 32" version="1.0">
    <g id="surface1">
        <path style=" stroke:none;fill-rule:nonzero;fill:rgb(100%,100%,100%);fill-opacity:1;"
            d="M 5.667969 11.75 L 30.585938 11.75 L 30.585938 30.167969 L 5.667969 30.167969 Z M 5.667969 11.75 " />
        <path style=" stroke:none;fill-rule:nonzero;fill:rgb(0%,47.843137%,80%);fill-opacity:1;"
            d="M 0.375 15.976562 L 0.375 31.601562 L 31.625 31.601562 L 31.625 0.351562 L 0.375 0.351562 Z M 25.558594 14.726562 C 26.269531 13.148438 27.9375 12.230469 29.652344 12.476562 C 31.363281 12.71875 32.710938 14.066406 32.957031 15.777344 C 33.199219 17.492188 32.28125 19.160156 30.703125 19.871094 C 30.703125 19.914062 29.351562 20.824219 28.53125 21.335938 C 28.5 21.355469 28.378906 21.226562 28.246094 21.027344 C 27.800781 20.785156 27.480469 20.367188 27.363281 19.871094 C 26.417969 19.808594 25.808594 20.304688 25.8125 21.121094 C 25.46875 22.417969 24.136719 23.1875 22.84375 22.84375 C 21.546875 22.496094 20.777344 21.167969 21.121094 19.871094 C 21.328125 20.304688 21.71875 20.5625 22.933594 21.085938 C 25.171875 22.050781 26.128906 22.683594 26.722656 23.585938 C 27.386719 24.585938 27.535156 26.203125 27.085938 27.398438 C 26.585938 28.699219 25.359375 29.578125 23.628906 29.871094 C 25.066406 25.367188 29.578125 22.585938 34.25 23.324219 C 38.921875 24.0625 42.355469 28.101562 42.332031 32.828125 C 42.3125 37.558594 38.84375 41.566406 34.167969 42.261719 C 29.488281 42.960938 25.003906 40.140625 23.601562 35.621094 C 23.316406 35.304688 22.753906 34.476562 22.789062 34.417969 C 23.121094 31.207031 25.996094 28.875 29.207031 29.207031 C 32.417969 29.539062 34.75 32.410156 34.417969 35.621094 L 20.5 25.25 L 21.398438 24.730469 L 21.585938 25.007812 C 24.515625 21.464844 29.765625 20.96875 33.308594 23.898438 C 36.851562 26.828125 37.347656 32.078125 34.417969 35.621094 C 35.417969 36.148438 36.78125 36.074219 37.457031 35.46875 C 37.996094 35.96875 38.039062 36.804688 37.554688 37.359375 C 37.066406 37.910156 36.230469 37.976562 35.664062 37.503906 C 35.101562 37.035156 35.011719 36.199219 35.46875 35.621094 C 35.21875 35.273438 34.71875 34.984375 33.320312 34.371094 C 31.707031 33.675781 31.011719 33.246094 30.378906 32.5625 C 32.339844 31.667969 34.660156 32.433594 35.699219 34.324219 C 36.738281 36.214844 36.144531 38.585938 34.339844 39.761719 C 32.53125 40.9375 30.125 40.523438 28.816406 38.8125 C 29.148438 37.253906 30.316406 36.167969 32.019531 35.84375 C 29.816406 32.628906 30.285156 28.285156 33.125 25.613281 C 35.960938 22.941406 40.324219 22.730469 43.402344 25.121094 C 46.484375 27.511719 47.363281 31.789062 45.480469 35.199219 C 43.597656 38.613281 39.507812 40.144531 35.84375 38.8125 Z M 18.222656 16.039062 L 18.222656 17.316406 L 14.164062 17.316406 L 14.164062 28.875 L 11.289062 28.875 L 11.289062 17.316406 L 7.21875 17.316406 L 7.21875 16.066406 C 13.5 8.160156 25 6.84375 32.90625 13.125 C 40.8125 19.40625 42.125 30.90625 35.84375 38.8125 C 7.269531 14.75 9.75 14.75 12.75 14.75 L 18.207031 14.75 Z M 18.222656 16.039062 " />
    </g>
</svg>