<?xml version="1.0" encoding="UTF-8"?>
<svg xmlns="http://www.w3.org/2000/svg" xmlns:xlink="http://www.w3.org/1999/xlink" width="32pt" height="32pt"
    viewBox="0 0 32 32" version="1.0">
    <g id="surface1">
        <path style=" stroke:none;fill-rule:nonzero;fill:rgb(14.117647%,53.72549%,79.215686%);fill-opacity:1;"
            d="M 0.914062 11.261719 C 0.914062 11.261719 0.15625 10.714844 1.066406 9.984375 L 3.183594 8.085938 C 3.183594 8.085938 3.789062 7.445312 4.429688 8.003906 L 23.972656 22.835938 L 23.972656 29.945312 C 23.972656 29.945312 23.964844 31.0625 22.535156 30.941406 Z M 0.914062 11.261719 " />
        <path style=" stroke:none;fill-rule:nonzero;fill:rgb(6.27451%,43.921569%,70.196078%);fill-opacity:1;"
            d="M 5.953125 15.84375 L 0.914062 20.433594 C 0.914062 20.433594 0.398438 20.820312 0.914062 21.511719 L 3.253906 23.644531 C 3.253906 23.644531 3.808594 24.242188 4.628906 23.5625 L 9.96875 19.503906 Z M 5.953125 15.84375 " />
        <path style=" stroke:none;fill-rule:nonzero;fill:rgb(3.137255%,46.666667%,72.54902%);fill-opacity:1;"
            d="M 14.796875 15.882812 L 24.035156 8.8125 L 23.972656 1.738281 C 23.972656 1.738281 23.578125 0.191406 22.265625 0.996094 L 9.96875 12.210938 Z M 14.796875 15.882812 " />
        <path style=" stroke:none;fill-rule:nonzero;fill:rgb(23.529412%,60%,83.137255%);fill-opacity:1;"
            d="M 22.535156 30.949219 C 23.070312 31.5 23.722656 31.320312 23.722656 31.320312 L 30.921875 27.765625 C 31.84375 27.132812 31.714844 26.351562 31.714844 26.351562 L 31.714844 5.117188 C 31.714844 4.183594 30.761719 3.859375 30.761719 3.859375 L 24.519531 0.84375 C 23.15625 0 22.265625 0.996094 22.265625 0.996094 C 22.265625 0.996094 23.410156 0.167969 23.972656 1.738281 L 23.972656 29.816406 C 23.972656 30.011719 23.933594 30.199219 23.851562 30.371094 C 23.6875 30.703125 23.328125 31.011719 22.476562 30.882812 Z M 22.535156 30.949219 " />
    </g>
</svg>