<?xml version="1.0" encoding="UTF-8"?>
<svg width="32pt" height="32pt" version="1.0" viewBox="0 0 32 32" xmlns="http://www.w3.org/2000/svg">
    <g>
        <path
            d="m0.91406 11.262s-0.75781-0.54688 0.15234-1.2773l2.1172-1.8984s0.60547-0.64063 1.2461-0.082032l19.543 14.832v7.1094s-0.007812 1.1172-1.4375 0.99609z"
            fill="#2388c9" />
        <path
            d="m5.9531 15.844l-5.0391 4.5898s-0.51562 0.38672 0 1.0781l2.3398 2.1328s0.55469 0.59766 1.375-0.082031l5.3398-4.0586z"
            fill="#1070b2" />
        <path d="m14.797 15.883l9.2383-7.0703-0.0625-7.0742s-0.39453-1.5469-1.707-0.74219l-12.297 11.215z"
            fill="#0877b9" />
        <path
            d="m22.535 30.949c0.53516 0.55078 1.1875 0.37109 1.1875 0.37109l7.1992-3.5547c0.92188-0.63281 0.79297-1.4141 0.79297-1.4141v-21.234c0-0.93359-0.95312-1.2578-0.95312-1.2578l-6.2422-3.0156c-1.3633-0.84375-2.2539 0.15234-2.2539 0.15234s1.1445-0.82812 1.707 0.74219v28.078c0 0.19531-0.039062 0.38281-0.12109 0.55469-0.16406 0.33203-0.52344 0.64062-1.375 0.51172z"
            fill="#3c99d4" />
    </g>
</svg>